<?xml version="1.0" encoding="utf-8"?>
<!-- Generator: Adobe Illustrator 20.1.0, SVG Export Plug-In . SVG Version: 6.00 Build 0)  -->
<svg version="1.1" id="Layer_1" xmlns="http://www.w3.org/2000/svg" xmlns:xlink="http://www.w3.org/1999/xlink" x="0px" y="0px"
	 viewBox="0 0 290.6 290.6" style="enable-background:new 0 0 290.6 290.6;" xml:space="preserve">
<style type="text/css">
	.st0{fill:#FF8A18;}
	.st1{fill:#333333;}
</style>
<circle class="st0" cx="131.2" cy="107.8" r="60.9"/>
<path class="st1" d="M142.1,105c7.4-3.9,12.6-11.7,12.6-20.6c0-12.9-10.5-23.4-23.4-23.4s-23.4,10.5-23.4,23.4
	c0,9,5.1,16.7,12.6,20.6c-12.8,4.5-21.9,16.6-21.9,30.9v4.7c0,2.6,2.1,4.7,4.7,4.7h56.2c2.6,0,4.7-2.1,4.7-4.7v-4.7
	C164.1,121.7,154.9,109.5,142.1,105z M131.2,70.3c7.8,0,14.1,6.3,14.1,14.1s-6.3,14.1-14.1,14.1s-14.1-6.3-14.1-14.1
	S123.5,70.3,131.2,70.3z M107.8,135.9c0-12.9,10.5-23.4,23.4-23.4s23.4,10.5,23.4,23.4H107.8z"/>
<path class="st1" d="M262.5,13.8c0-7.6-6.2-13.8-13.8-13.8h-14.3H225H56.2C40.7,0,28.1,12.6,28.1,28.1v234.4
	c0,15.5,12.6,28.1,28.1,28.1h178.1V239v-4.7v-56.2h14.3c7.6,0,13.8-6.2,13.8-13.8v-38c0-3.5-1.4-6.7-3.5-9.1
	c2.2-2.4,3.5-5.6,3.5-9.1v-38c0-3.5-1.4-6.7-3.5-9.1c2.2-2.4,3.5-5.6,3.5-9.1V13.8H262.5z M234.4,9.4h14.3c2.4,0,4.4,2,4.4,4.4v38
	c0,2.4-2,4.4-4.4,4.4h-14.3V9.4z M253.1,70.1v38c0,2.4-2,4.4-4.4,4.4h-14.3V65.6h14.3C251.1,65.6,253.1,67.6,253.1,70.1z M225,281.2
	H56.2c-10.3,0-18.8-8.4-18.8-18.8c0-10.3,8.4-18.8,18.8-18.8H225V281.2z M225,234.4H56.2c-7.2,0-13.8,2.7-18.8,7.2V28.1
	c0-10.3,8.4-18.8,18.8-18.8H225v46.9v9.4v46.9v9.4v56.2V234.4z M253.1,164.3c0,2.4-2,4.4-4.4,4.4h-14.3v-46.9h14.3
	c2.4,0,4.4,2,4.4,4.4V164.3z"/>
<rect x="51.6" y="257.8" class="st1" width="164.1" height="9.4"/>
</svg>
