<?xml version="1.0" encoding="utf-8"?>
<!-- Generator: Adobe Illustrator 20.1.0, SVG Export Plug-In . SVG Version: 6.00 Build 0)  -->
<svg version="1.1" id="Слой_1" xmlns="http://www.w3.org/2000/svg" xmlns:xlink="http://www.w3.org/1999/xlink" x="0px" y="0px"
	 viewBox="0 0 2000 2000" style="enable-background:new 0 0 2000 2000;" xml:space="preserve">
<style type="text/css">
	.st0{fill:#FFFFFF;}
	.st1{fill:none;stroke:#E08C44;stroke-width:2;stroke-miterlimit:10;}
	.st2{fill:none;stroke:#E08C44;stroke-width:2;stroke-miterlimit:10;stroke-dasharray:11.8033,11.8033;}
	.st3{fill:none;stroke:#E08C44;stroke-width:2;stroke-miterlimit:10;stroke-dasharray:11.5161,11.5161;}
	.st4{fill:none;stroke:#E08C44;stroke-width:2;stroke-miterlimit:10;stroke-dasharray:11.5213,11.5213;}
	.st5{fill:#E08C44;}
	.st6{font-family:'MuseoSansCyrl-500';}
	.st7{font-size:31.614px;}
	.st8{fill:#A9B2BA;}
	.st9{fill:none;stroke:#A9B2BA;stroke-width:2;stroke-miterlimit:10;}
	.st10{fill:none;stroke:#A9B2BA;stroke-width:2;stroke-miterlimit:10;stroke-dasharray:12.3188,12.3188;}
	.st11{fill:none;stroke:#A9B2BA;stroke-width:2;stroke-miterlimit:10;stroke-dasharray:11.7256,11.7256;}
	.st12{fill:none;stroke:#A9B2BA;stroke-width:2;stroke-miterlimit:10;stroke-dasharray:11.1924,11.1924;}
	.st13{fill:none;stroke:#E08C44;stroke-width:2;stroke-miterlimit:10;stroke-dasharray:11.9885,11.9885;}
	.st14{fill:none;stroke:#E08C44;stroke-width:2;stroke-miterlimit:10;stroke-dasharray:11.8124,11.8124;}
	.st15{fill:none;stroke:#E08C44;stroke-width:2;stroke-miterlimit:10;stroke-dasharray:11.987,11.987;}
	.st16{fill:none;stroke:#E08C44;stroke-width:2;stroke-miterlimit:10;stroke-dasharray:12.1062,12.1062;}
	.st17{fill:none;stroke:#A9B2BA;stroke-width:2;stroke-miterlimit:10;stroke-dasharray:12.0136,12.0136;}
	.st18{fill:none;stroke:#A9B2BA;stroke-width:2;stroke-miterlimit:10;stroke-dasharray:11.85,11.85;}
	.st19{fill:none;stroke:#A9B2BA;stroke-width:2;stroke-miterlimit:10;stroke-dasharray:12.1942,12.1942;}
	.st20{fill:none;stroke:#A9B2BA;stroke-width:2;stroke-miterlimit:10;stroke-dasharray:11.5213,11.5213;}
	.st21{fill:none;stroke:#A9B2BA;stroke-width:2;stroke-miterlimit:10;stroke-dasharray:11.8118,11.8118;}
	.st22{fill:none;stroke:#E08C44;stroke-width:2;stroke-miterlimit:10;stroke-dasharray:12.7206,12.7206;}
	.st23{fill:none;stroke:#E08C44;stroke-width:2;stroke-miterlimit:10;stroke-dasharray:12.4553,12.4553;}
	.st24{fill:#A8B0B8;}
</style>
<g>
	<line class="st0" x1="999.2" y1="335.7" x2="999.2" y2="808"/>
	<g>
		<line class="st1" x1="999.2" y1="335.7" x2="999.2" y2="341.7"/>
		<line class="st2" x1="999.2" y1="353.5" x2="999.2" y2="796.1"/>
		<line class="st1" x1="999.2" y1="802" x2="999.2" y2="808"/>
	</g>
</g>
<g>
	<line class="st0" x1="789.2" y1="805.7" x2="997" y2="805.7"/>
	<g>
		<line class="st1" x1="789.2" y1="805.7" x2="795.2" y2="805.7"/>
		<line class="st3" x1="806.8" y1="805.7" x2="985.3" y2="805.7"/>
		<line class="st1" x1="991" y1="805.7" x2="997" y2="805.7"/>
	</g>
</g>
<g>
	<line class="st0" x1="816.7" y1="335.7" x2="1001.5" y2="335.7"/>
	<g>
		<line class="st1" x1="816.7" y1="335.7" x2="822.7" y2="335.7"/>
		<line class="st4" x1="834.2" y1="335.7" x2="989.7" y2="335.7"/>
		<line class="st1" x1="995.5" y1="335.7" x2="1001.5" y2="335.7"/>
	</g>
</g>
<text transform="matrix(1 0 0 1 822.7778 308.2222)" class="st5 st6 st7">+ 1000 руб.</text>
<polygon class="st8" points="788.7,1305.9 817.6,1322.6 817.6,1289.3 "/>
<g>
	<g>
		<line class="st9" x1="998" y1="1303.6" x2="998" y2="1309.6"/>
		<line class="st10" x1="998" y1="1322" x2="998" y2="1660.7"/>
		<line class="st9" x1="998" y1="1666.9" x2="998" y2="1672.9"/>
	</g>
</g>
<g>
	<line class="st0" x1="789" y1="1670.6" x2="1000.3" y2="1670.6"/>
	<g>
		<line class="st9" x1="789" y1="1670.6" x2="795" y2="1670.6"/>
		<line class="st11" x1="806.7" y1="1670.6" x2="988.5" y2="1670.6"/>
		<line class="st9" x1="994.3" y1="1670.6" x2="1000.3" y2="1670.6"/>
	</g>
</g>
<g>
	<line class="st0" x1="817.6" y1="1305.9" x2="997.5" y2="1305.9"/>
	<g>
		<line class="st9" x1="817.6" y1="1305.9" x2="823.6" y2="1305.9"/>
		<line class="st12" x1="834.8" y1="1305.9" x2="985.9" y2="1305.9"/>
		<line class="st9" x1="991.5" y1="1305.9" x2="997.5" y2="1305.9"/>
	</g>
</g>
<g>
	<line class="st0" x1="1235.8" y1="333.4" x2="1235.8" y2="1268.5"/>
	<g>
		<line class="st1" x1="1235.8" y1="333.4" x2="1235.8" y2="339.4"/>
		<line class="st13" x1="1235.8" y1="351.4" x2="1235.8" y2="1256.5"/>
		<line class="st1" x1="1235.8" y1="1262.5" x2="1235.8" y2="1268.5"/>
	</g>
</g>
<g>
	<line class="st0" x1="789" y1="1266.2" x2="1238.1" y2="1266.2"/>
	<g>
		<line class="st1" x1="789" y1="1266.2" x2="795" y2="1266.2"/>
		<line class="st14" x1="806.9" y1="1266.2" x2="1226.2" y2="1266.2"/>
		<line class="st1" x1="1232.1" y1="1266.2" x2="1238.1" y2="1266.2"/>
	</g>
</g>
<polygon class="st5" points="789.2,335.7 818.2,352.4 818.2,319 "/>
<g>
	<line class="st0" x1="1538.5" y1="335.7" x2="1538.5" y2="1750.2"/>
	<g>
		<line class="st1" x1="1538.5" y1="335.7" x2="1538.5" y2="341.7"/>
		<line class="st15" x1="1538.5" y1="353.7" x2="1538.5" y2="1738.2"/>
		<line class="st1" x1="1538.5" y1="1744.2" x2="1538.5" y2="1750.2"/>
	</g>
</g>
<g>
	<line class="st0" x1="789" y1="1747.9" x2="1539.5" y2="1747.9"/>
	<g>
		<line class="st1" x1="789" y1="1747.9" x2="795" y2="1747.9"/>
		<line class="st16" x1="807.1" y1="1747.9" x2="1527.4" y2="1747.9"/>
		<line class="st1" x1="1533.5" y1="1747.9" x2="1539.5" y2="1747.9"/>
	</g>
</g>
<polygon class="st5" points="1030.6,335.7 1059.5,352.4 1059.5,319 "/>
<g>
	<g>
		<line class="st9" x1="1465.3" y1="821.9" x2="1465.3" y2="827.9"/>
		<line class="st17" x1="1465.3" y1="839.9" x2="1465.3" y2="1698.9"/>
		<line class="st9" x1="1465.3" y1="1704.9" x2="1465.3" y2="1710.9"/>
	</g>
</g>
<g>
	<line class="st0" x1="789" y1="1708.6" x2="1405.3" y2="1708.6"/>
	<g>
		<line class="st9" x1="789" y1="1708.6" x2="795" y2="1708.6"/>
		<line class="st18" x1="806.8" y1="1708.6" x2="1393.4" y2="1708.6"/>
		<line class="st9" x1="1399.3" y1="1708.6" x2="1405.3" y2="1708.6"/>
	</g>
</g>
<polygon class="st8" points="1251.5,823.8 1280.5,840.5 1280.5,807.1 "/>
<g>
	<g>
		<line class="st9" x1="999.2" y1="840.8" x2="999.2" y2="846.8"/>
		<line class="st19" x1="999.2" y1="859" x2="999.2" y2="1218.8"/>
		<line class="st9" x1="999.2" y1="1224.9" x2="999.2" y2="1230.9"/>
	</g>
</g>
<g>
	<g>
		<line class="st9" x1="816.7" y1="840.9" x2="822.7" y2="840.9"/>
		<line class="st20" x1="834.2" y1="840.9" x2="989.7" y2="840.9"/>
		<line class="st9" x1="995.5" y1="840.9" x2="1001.5" y2="840.9"/>
	</g>
</g>
<polygon class="st8" points="789.2,840.9 818.1,857.6 818.1,824.2 "/>
<g>
	<g>
		<line class="st9" x1="788.7" y1="1228.6" x2="794.7" y2="1228.6"/>
		<line class="st21" x1="806.5" y1="1228.6" x2="989.6" y2="1228.6"/>
		<line class="st9" x1="995.5" y1="1228.6" x2="1001.5" y2="1228.6"/>
	</g>
</g>
<text transform="matrix(1 0 0 1 1088.6602 308.2222)" class="st5 st6 st7">+ 150 руб.</text>
<polygon class="st5" points="1262.9,335.7 1291.8,352.4 1291.8,319 "/>
<g>
	<line class="st0" x1="1059.6" y1="335.7" x2="1236.9" y2="335.7"/>
	<g>
		<line class="st1" x1="1059.6" y1="335.7" x2="1065.6" y2="335.7"/>
		<line class="st22" x1="1078.3" y1="335.7" x2="1224.6" y2="335.7"/>
		<line class="st1" x1="1230.9" y1="335.7" x2="1236.9" y2="335.7"/>
	</g>
</g>
<g>
	<line class="st0" x1="1292.1" y1="335.7" x2="1540.8" y2="335.7"/>
	<g>
		<line class="st1" x1="1292.1" y1="335.7" x2="1298.1" y2="335.7"/>
		<line class="st23" x1="1310.6" y1="335.7" x2="1528.6" y2="335.7"/>
		<line class="st1" x1="1534.8" y1="335.7" x2="1540.8" y2="335.7"/>
	</g>
</g>
<text transform="matrix(1 0 0 1 820.4683 881.9282)" class="st24 st6 st7">+ 1000 руб.</text>
<text transform="matrix(1 0 0 1 1345.6504 308.0278)" class="st5 st6 st7">+ 100 руб.</text>
<text transform="matrix(1 0 0 1 1303.125 807.0737)" class="st24 st6 st7">+ 150 руб.</text>
<text transform="matrix(1 0 0 1 817.2271 1354.4727)" class="st24 st6 st7">+ 1000 руб.</text>
<g>
	<g>
		<line class="st9" x1="1280.5" y1="824.2" x2="1286.5" y2="824.2"/>
		<line class="st20" x1="1298" y1="824.2" x2="1453.5" y2="824.2"/>
		<line class="st9" x1="1459.3" y1="824.2" x2="1465.3" y2="824.2"/>
	</g>
</g>
</svg>
