<?xml version="1.0" encoding="utf-8"?>
<!-- Generator: Adobe Illustrator 20.1.0, SVG Export Plug-In . SVG Version: 6.00 Build 0)  -->
<svg version="1.1" id="Слой_1" xmlns="http://www.w3.org/2000/svg" xmlns:xlink="http://www.w3.org/1999/xlink" x="0px" y="0px"
	 viewBox="0 0 2000 2000" style="enable-background:new 0 0 2000 2000;" xml:space="preserve">
<style type="text/css">
	@font-face{
		font-family:'MuseoSansCyrl-500'; 
		src: url('/fonts/MuseoSansCyrl_500.eot');
		src: local('☺'), url('/fonts/MuseoSansCyrl_500.woff') format('woff'), url('/fonts/MuseoSansCyrl_500.ttf') format('truetype'), url('/fonts/MuseoSansCyrl_500.svg') format('svg');
	}
	.st0{fill:#FFFFFF;}
	.st1{fill:none;stroke:#FF8A18;stroke-width:2;stroke-miterlimit:10;}
	.st2{fill:none;stroke:#FF8A18;stroke-width:2;stroke-miterlimit:10;stroke-dasharray:12.2629,12.2629;}
	.st3{fill:none;stroke:#FF8A18;stroke-width:2;stroke-miterlimit:10;stroke-dasharray:10.8539,10.8539;}
	.st4{fill:none;stroke:#FF8A18;stroke-width:2;stroke-miterlimit:10;stroke-dasharray:9.6667,9.6667;}
	.st5{fill:#FF8A18;}
	.st6{font-family:'MuseoSansCyrl-500';}
	.st7{font-size:27.1795px;}
	.st8{fill:none;stroke:#A9B2BA;stroke-width:2;stroke-miterlimit:10;}
	.st9{fill:none;stroke:#A9B2BA;stroke-width:2;stroke-miterlimit:10;stroke-dasharray:11.6561,11.6561;}
	.st10{fill:none;stroke:#A9B2BA;stroke-width:2;stroke-miterlimit:10;stroke-dasharray:10.7703,10.7703;}
	.st11{fill:none;stroke:#A9B2BA;stroke-width:2;stroke-miterlimit:10;stroke-dasharray:12.9906,12.9906;}
	.st12{fill:#AAB3BB;}
	.st13{fill:#A9B2BA;}
	.st14{fill:none;stroke:#A9B2BA;stroke-width:2;stroke-miterlimit:10;stroke-dasharray:12.0266,12.0266;}
	.st15{fill:none;stroke:#A9B2BA;stroke-width:2;stroke-miterlimit:10;stroke-dasharray:10.7705,10.7705;}
	.st16{fill:none;stroke:#FF8A18;stroke-width:2;stroke-miterlimit:10;stroke-dasharray:11.8655,11.8655;}
	.st17{fill:none;stroke:#FF8A18;stroke-width:2;stroke-miterlimit:10;stroke-dasharray:12.6747,12.6747;}
	.st18{fill:none;stroke:#FF8A18;stroke-width:2;stroke-miterlimit:10;stroke-dasharray:12.0075,12.0075;}
	.st19{fill:none;stroke:#FF8A18;stroke-width:2;stroke-miterlimit:10;stroke-dasharray:11.5913,11.5913;}
	.st20{fill:none;stroke:#A9B2BA;stroke-width:2;stroke-miterlimit:10;stroke-dasharray:11.9225,11.9225;}
	.st21{fill:none;stroke:#A9B2BA;stroke-width:2;stroke-miterlimit:10;stroke-dasharray:11.4883,11.4883;}
	.st22{fill:none;stroke:#A9B2BA;stroke-width:2;stroke-miterlimit:10;stroke-dasharray:9.5802,9.5802;}
</style>
<g>
	<line class="st0" x1="302.3" y1="744.3" x2="768" y2="744.3"/>
	<g>
		<line class="st1" x1="302.3" y1="744.3" x2="308.3" y2="744.3"/>
		<line class="st2" x1="320.5" y1="744.3" x2="755.9" y2="744.3"/>
		<line class="st1" x1="762" y1="744.3" x2="768" y2="744.3"/>
	</g>
</g>
<g>
	<line class="st0" x1="767" y1="655.4" x2="767" y2="743.3"/>
	<g>
		<line class="st1" x1="767" y1="655.4" x2="767" y2="661.4"/>
		<line class="st3" x1="767" y1="672.2" x2="767" y2="731.9"/>
		<line class="st1" x1="767" y1="737.3" x2="767" y2="743.3"/>
	</g>
</g>
<g>
	<line class="st0" x1="302.3" y1="703.3" x2="302.3" y2="744.3"/>
	<g>
		<line class="st1" x1="302.3" y1="703.3" x2="302.3" y2="709.3"/>
		<line class="st4" x1="302.3" y1="719" x2="302.3" y2="733.5"/>
		<line class="st1" x1="302.3" y1="738.3" x2="302.3" y2="744.3"/>
	</g>
</g>
<text transform="matrix(1 0 0 1 232.3149 675.8809)" class="st5 st6 st7">+ 1000 руб.</text>
<polygon class="st5" points="302.3,690.8 309.6,703.3 295.1,703.3 "/>
<g>
	<g>
		<line class="st8" x1="803" y1="743.8" x2="809" y2="743.8"/>
		<line class="st9" x1="820.7" y1="743.8" x2="1211.2" y2="743.8"/>
		<line class="st8" x1="1217" y1="743.8" x2="1223" y2="743.8"/>
	</g>
</g>
<g>
	<line class="st0" x1="1222" y1="655.7" x2="1222" y2="743.1"/>
	<g>
		<line class="st8" x1="1222" y1="655.7" x2="1222" y2="661.7"/>
		<line class="st10" x1="1222" y1="672.4" x2="1222" y2="731.7"/>
		<line class="st8" x1="1222" y1="737.1" x2="1222" y2="743.1"/>
	</g>
</g>
<g>
	<line class="st0" x1="803.8" y1="667.9" x2="803.8" y2="744.8"/>
	<g>
		<line class="st8" x1="803.8" y1="667.9" x2="803.8" y2="673.9"/>
		<line class="st11" x1="803.8" y1="686.9" x2="803.8" y2="732.3"/>
		<line class="st8" x1="803.8" y1="738.8" x2="803.8" y2="744.8"/>
	</g>
</g>
<text transform="matrix(1 0 0 1 939.2953 726.8332)" class="st12 st6 st7">+ 1000 руб.</text>
<polygon class="st13" points="803.8,655.4 811,667.9 796.5,667.9 "/>
<g>
	<g>
		<line class="st8" x1="1279.1" y1="743.8" x2="1285.1" y2="743.8"/>
		<line class="st14" x1="1297.1" y1="743.8" x2="1675.9" y2="743.8"/>
		<line class="st8" x1="1681.9" y1="743.8" x2="1687.9" y2="743.8"/>
	</g>
</g>
<g>
	<line class="st0" x1="1686.9" y1="655.7" x2="1686.9" y2="743.1"/>
	<g>
		<line class="st8" x1="1686.9" y1="655.7" x2="1686.9" y2="661.7"/>
		<line class="st15" x1="1686.9" y1="672.4" x2="1686.9" y2="731.7"/>
		<line class="st8" x1="1686.9" y1="737.1" x2="1686.9" y2="743.1"/>
	</g>
</g>
<g>
	<line class="st0" x1="1278.8" y1="667.9" x2="1278.8" y2="744.8"/>
	<g>
		<line class="st8" x1="1278.8" y1="667.9" x2="1278.8" y2="673.9"/>
		<line class="st11" x1="1278.8" y1="686.9" x2="1278.8" y2="732.3"/>
		<line class="st8" x1="1278.8" y1="738.8" x2="1278.8" y2="744.8"/>
	</g>
</g>
<text transform="matrix(1 0 0 1 1409.2378 726.8333)" class="st12 st6 st7">+ 1000 руб.</text>
<polygon class="st13" points="1278.8,655.7 1286,668.2 1271.5,668.2 "/>
<g>
	<line class="st0" x1="301.3" y1="857.8" x2="1250.7" y2="857.8"/>
	<g>
		<line class="st1" x1="301.3" y1="857.8" x2="307.3" y2="857.8"/>
		<line class="st16" x1="319.2" y1="857.8" x2="1238.7" y2="857.8"/>
		<line class="st1" x1="1244.7" y1="857.8" x2="1250.7" y2="857.8"/>
	</g>
</g>
<g>
	<line class="st0" x1="1249.7" y1="655.7" x2="1249.7" y2="857.8"/>
	<g>
		<line class="st1" x1="1249.7" y1="655.7" x2="1249.7" y2="661.7"/>
		<line class="st17" x1="1249.7" y1="674.3" x2="1249.7" y2="845.5"/>
		<line class="st1" x1="1249.7" y1="851.8" x2="1249.7" y2="857.8"/>
	</g>
</g>
<g>
	<line class="st0" x1="302.4" y1="817.4" x2="302.4" y2="858.4"/>
	<g>
		<line class="st1" x1="302.4" y1="817.4" x2="302.4" y2="823.4"/>
		<line class="st4" x1="302.4" y1="833" x2="302.4" y2="847.5"/>
		<line class="st1" x1="302.4" y1="852.4" x2="302.4" y2="858.4"/>
	</g>
</g>
<text transform="matrix(1 0 0 1 239.3156 791.3032)" class="st5 st6 st7">+ 150 руб.</text>
<polygon class="st5" points="302.3,804.1 309.6,816.6 295.1,816.6 "/>
<g>
	<line class="st0" x1="302.1" y1="980.6" x2="1743" y2="980.6"/>
	<g>
		<line class="st1" x1="302.1" y1="980.6" x2="308.1" y2="980.6"/>
		<line class="st18" x1="320.1" y1="980.6" x2="1731" y2="980.6"/>
		<line class="st1" x1="1737" y1="980.6" x2="1743" y2="980.6"/>
	</g>
</g>
<g>
	<line class="st0" x1="1742" y1="655.7" x2="1742" y2="980.6"/>
	<g>
		<line class="st1" x1="1742" y1="655.7" x2="1742" y2="661.7"/>
		<line class="st19" x1="1742" y1="673.3" x2="1742" y2="968.8"/>
		<line class="st1" x1="1742" y1="974.6" x2="1742" y2="980.6"/>
	</g>
</g>
<g>
	<line class="st0" x1="303.2" y1="940.2" x2="303.2" y2="981.2"/>
	<g>
		<line class="st1" x1="303.2" y1="940.2" x2="303.2" y2="946.2"/>
		<line class="st4" x1="303.2" y1="955.9" x2="303.2" y2="970.4"/>
		<line class="st1" x1="303.2" y1="975.2" x2="303.2" y2="981.2"/>
	</g>
</g>
<text transform="matrix(1 0 0 1 244.1217 914.1488)" class="st5 st6 st7">+ 100 руб.</text>
<polygon class="st5" points="303.1,926.9 310.4,939.5 295.9,939.5 "/>
<g>
	<g>
		<line class="st8" x1="784.5" y1="919.2" x2="790.5" y2="919.2"/>
		<line class="st20" x1="802.4" y1="919.2" x2="1702.6" y2="919.2"/>
		<line class="st8" x1="1708.5" y1="919.2" x2="1714.5" y2="919.2"/>
	</g>
</g>
<g>
	<line class="st0" x1="1714.5" y1="655.7" x2="1714.5" y2="908.9"/>
	<g>
		<line class="st8" x1="1714.5" y1="655.7" x2="1714.5" y2="661.7"/>
		<line class="st21" x1="1714.5" y1="673.2" x2="1714.5" y2="897.2"/>
		<line class="st8" x1="1714.5" y1="902.9" x2="1714.5" y2="908.9"/>
	</g>
</g>
<g>
	<line class="st0" x1="784.5" y1="879.5" x2="784.5" y2="920.2"/>
	<g>
		<line class="st8" x1="784.5" y1="879.5" x2="784.5" y2="885.5"/>
		<line class="st22" x1="784.5" y1="895" x2="784.5" y2="909.4"/>
		<line class="st8" x1="784.5" y1="914.2" x2="784.5" y2="920.2"/>
	</g>
</g>
<text transform="matrix(1 0 0 1 1189.0002 902.8356)" class="st12 st6 st7">+ 150 руб.</text>
<polygon class="st13" points="784.7,867 791.9,879.5 777.4,879.5 "/>
</svg>
