<?xml version="1.0" encoding="utf-8"?>
<!-- Generator: Adobe Illustrator 20.1.0, SVG Export Plug-In . SVG Version: 6.00 Build 0)  -->
<svg version="1.1" id="Слой_1" xmlns="http://www.w3.org/2000/svg" xmlns:xlink="http://www.w3.org/1999/xlink" x="0px" y="0px"
	 viewBox="0 0 2000 2000" style="enable-background:new 0 0 2000 2000;" xml:space="preserve">
<style type="text/css">
	.st0{fill:#E08C44;}
	.st1{fill:#313131;}
	.st2{fill:#AAB3BB;}
	.st3{fill:#E18C44;}
	.st4{font-family:'MuseoSansCyrl-900';}
	.st5{font-size:89.7028px;}
	.st6{font-family:'MuseoSansCyrl-300';}
	.st7{font-size:24.4343px;}
	.st8{font-family:'MuseoSansCyrl-700';}
	.st9{font-size:33.059px;}
	.st10{fill:#FFFFFF;}
	.st11{fill:none;stroke:#E08C44;stroke-width:2;stroke-miterlimit:10;}
	.st12{fill:none;stroke:#E08C44;stroke-width:2;stroke-miterlimit:10;stroke-dasharray:12.2629,12.2629;}
	.st13{fill:none;stroke:#E08C44;stroke-width:2;stroke-miterlimit:10;stroke-dasharray:10.8539,10.8539;}
	.st14{fill:none;stroke:#E08C44;stroke-width:2;stroke-miterlimit:10;stroke-dasharray:9.6667,9.6667;}
	.st15{font-family:'MuseoSansCyrl-500';}
	.st16{font-size:27.1795px;}
	.st17{fill:none;stroke:#A9B2BA;stroke-width:2;stroke-miterlimit:10;}
	.st18{fill:none;stroke:#A9B2BA;stroke-width:2;stroke-miterlimit:10;stroke-dasharray:11.6561,11.6561;}
	.st19{fill:none;stroke:#A9B2BA;stroke-width:2;stroke-miterlimit:10;stroke-dasharray:10.7703,10.7703;}
	.st20{fill:none;stroke:#A9B2BA;stroke-width:2;stroke-miterlimit:10;stroke-dasharray:12.9906,12.9906;}
	.st21{fill:#A9B2BA;}
	.st22{fill:none;stroke:#A9B2BA;stroke-width:2;stroke-miterlimit:10;stroke-dasharray:12.0266,12.0266;}
	.st23{fill:none;stroke:#A9B2BA;stroke-width:2;stroke-miterlimit:10;stroke-dasharray:10.7705,10.7705;}
	.st24{fill:none;stroke:#E08C44;stroke-width:2;stroke-miterlimit:10;stroke-dasharray:11.8655,11.8655;}
	.st25{fill:none;stroke:#E08C44;stroke-width:2;stroke-miterlimit:10;stroke-dasharray:12.6747,12.6747;}
	.st26{fill:none;stroke:#E08C44;stroke-width:2;stroke-miterlimit:10;stroke-dasharray:12.0075,12.0075;}
	.st27{fill:none;stroke:#E08C44;stroke-width:2;stroke-miterlimit:10;stroke-dasharray:11.5913,11.5913;}
	.st28{fill:none;stroke:#A9B2BA;stroke-width:2;stroke-miterlimit:10;stroke-dasharray:11.9225,11.9225;}
	.st29{fill:none;stroke:#A9B2BA;stroke-width:2;stroke-miterlimit:10;stroke-dasharray:11.4883,11.4883;}
	.st30{fill:none;stroke:#A9B2BA;stroke-width:2;stroke-miterlimit:10;stroke-dasharray:9.5802,9.5802;}
</style>
<rect x="274.1" y="514.1" class="st0" width="57.3" height="28.7"/>
<path class="st0" d="M330.3,415.9c13.6,15.2,12.3,38.5-2.9,52s-38.5,12.3-52-2.9c-12.5-14-12.5-35.1,0-49.1
	C275.4,415.9,330.3,415.9,330.3,415.9z"/>
<path class="st1" d="M376.5,559.2v-49.1c0-16.8-11.4-31.4-27.6-35.6c18.8-25.4,13.5-61.3-11.9-80.2s-61.4-13.6-80.3,11.9
	c-15,20.3-15,48,0,68.2c-16.2,4.2-27.6,18.9-27.6,35.6v49.1c0,16.5,12.3,30.4,28.7,32.5v6.5c-14.7,5.2-24.5,19.1-24.6,34.7v4.1
	h139.2v-4.1c0-15.6-9.9-29.5-24.6-34.7v-6.5C364.2,589.6,376.5,575.7,376.5,559.2z M347.9,583.4v-16h19
	C363.9,575.7,356.6,581.9,347.9,583.4L347.9,583.4z M302.9,391.3c27.1,0,49.1,22.1,49.1,49.2s-22.1,49.1-49.2,49.1
	c-27.1,0-49.1-22-49.1-49.1C253.7,413.3,275.7,391.3,302.9,391.3L302.9,391.3z M238.7,567.4h19v16
	C249,581.8,241.7,575.7,238.7,567.4z M270.1,604.2c9.4,0,18.1,4.6,23.5,12.2h-47C251.9,608.8,260.7,604.2,270.1,604.2L270.1,604.2z
	 M241.7,628.8c0.2-1.4,0.5-2.8,0.9-4.1h54.9c0.4,1.3,0.7,2.7,0.9,4.1H241.7z M307.2,628.8c0.2-1.4,0.5-2.8,0.9-4.1H363
	c0.4,1.3,0.7,2.7,0.9,4.1H307.2z M359,616.5h-47c9-13,26.8-16.2,39.8-7.2C354.7,611.2,357.1,613.6,359,616.5z M335.6,596
	c-11.2,0-21.7,5.1-28.7,13.9v-42.5h-8.2v42.5c-7.8-9.9-20.2-15.1-32.8-13.6v-82.2h-8.2v45h-20.4V510c0-14.7,11.1-26.9,25.7-28.5
	c22.2,21.6,57.6,21.6,79.7,0c14.6,1.6,25.6,13.8,25.6,28.5v49.1h-20.5v-45h-8.2v82.1C338.3,596.1,336.9,596.1,335.6,596L335.6,596z"
	/>
<rect x="290.5" y="526.4" class="st1" width="24.6" height="8.2"/>
<rect x="274.1" y="551" class="st1" width="8.2" height="8.2"/>
<rect x="306.9" y="424" class="st1" width="8.2" height="8.2"/>
<rect x="278.2" y="424" class="st1" width="20.5" height="8.2"/>
<path class="st1" d="M818.2,565.8l-4.2,6.4c12.6,8.1,20.2,22,20.2,37v21h-47.5l27.9-47.8l-6.6-3.9l-23.5,40.2L761,578.5l-6.6,3.9
	l27.9,47.8h-47.6v-21c0-15,7.6-28.9,20.2-37l-4.2-6.4c-14.8,9.5-23.7,25.9-23.7,43.5v28.6h114.7v-28.6
	C841.8,591.6,832.9,575.2,818.2,565.8z"/>
<path class="st1" d="M742.1,530.9c0,23.3,18.9,42.2,42.2,42.2s42.2-18.9,42.2-42.2c0-23.4-19-42.2-42.2-42.2l0,0
	C761,488.6,742.1,507.6,742.1,530.9z M818.9,530.9c0,19-15.5,34.5-34.5,34.5s-34.5-15.5-34.5-34.5c0-19,15.5-34.5,34.5-34.5
	C803.5,496.4,818.9,511.8,818.9,530.9L818.9,530.9z"/>
<circle class="st0" cx="784.5" cy="531.1" r="34.7"/>
<g>
	<rect x="451.7" y="562.6" class="st2" width="180.9" height="8"/>
	<polygon class="st2" points="667,566.8 632.6,586.6 632.6,546.9 	"/>
</g>
<g>
	<path class="st1" d="M1283.5,565l-4.2,6.4c12.6,8.1,20.2,22,20.2,37v21h-47.5l27.9-47.8l-6.6-3.9l-23.5,40.2l-23.5-40.2l-6.6,3.9
		l27.9,47.8h-47.6v-21c0-15,7.6-28.9,20.2-37l-4.2-6.4c-14.8,9.5-23.7,25.9-23.7,43.5V637h114.7v-28.6
		C1307.2,590.8,1298.3,574.4,1283.5,565z"/>
	<path class="st1" d="M1207.4,530.1c0,23.3,18.9,42.2,42.2,42.2c23.4,0,42.2-18.9,42.2-42.2c0-23.4-19-42.2-42.2-42.2l0,0
		C1226.4,487.9,1207.4,506.8,1207.4,530.1z M1284.2,530.1c0,19-15.5,34.5-34.5,34.5c-19,0-34.5-15.5-34.5-34.5
		c0-19,15.5-34.5,34.5-34.5C1268.8,495.6,1284.2,511,1284.2,530.1L1284.2,530.1z"/>
	<circle class="st3" cx="1249.8" cy="530.3" r="34.7"/>
</g>
<g>
	<path class="st1" d="M1748.2,564.7l-4.2,6.4c12.6,8.1,20.2,22,20.2,37v21h-47.5l27.9-47.8l-6.6-3.9l-23.5,40.2l-23.5-40.2l-6.6,3.9
		l27.9,47.8h-47.6v-21c0-15,7.6-28.9,20.2-37l-4.2-6.4c-14.8,9.5-23.7,25.9-23.7,43.5v28.6h114.7v-28.6
		C1771.9,590.5,1763,574.1,1748.2,564.7z"/>
	<path class="st1" d="M1672.1,529.8c0,23.3,18.9,42.2,42.2,42.2c23.4,0,42.2-18.9,42.2-42.2c0-23.4-19-42.2-42.2-42.2l0,0
		C1691.1,487.5,1672.1,506.5,1672.1,529.8z M1748.9,529.8c0,19-15.5,34.5-34.5,34.5s-34.5-15.5-34.5-34.5c0-19,15.5-34.5,34.5-34.5
		C1733.5,495.3,1748.9,510.7,1748.9,529.8L1748.9,529.8z"/>
	<circle class="st0" cx="1714.5" cy="530" r="34.7"/>
</g>
<g>
	<rect x="920.2" y="563.3" class="st2" width="180.9" height="8"/>
	<polygon class="st2" points="1135.5,567.4 1101.1,587.3 1101.1,547.6 	"/>
</g>
<g>
	<rect x="1381.8" y="563.5" class="st2" width="180.9" height="8"/>
	<polygon class="st2" points="1597.1,567.6 1562.7,587.5 1562.7,547.7 	"/>
</g>
<text transform="matrix(1 0 0 1 232.3154 346.5049)" class="st0 st4 st5">ВЫ</text>
<text transform="matrix(1 0 0 1 467 547.7488)" class="st3 st6 st7">скидка 10%</text>
<text transform="matrix(1 0 0 1 932.7457 548.0487)" class="st3 st6 st7">скидка 10%</text>
<text transform="matrix(1 0 0 1 1401 547.8873)" class="st3 st6 st7">скидка 10%</text>
<text transform="matrix(1 0 0 1 682 466.9201)" class="st0 st8 st9">Участник №1</text>
<text transform="matrix(1 0 0 1 1145.5049 466.9202)" class="st0 st8 st9">Участник №2</text>
<text transform="matrix(1 0 0 1 1609.5298 466.92)" class="st0 st8 st9">Участник №3</text>
<g>
	<line class="st10" x1="302.3" y1="744.3" x2="768" y2="744.3"/>
	<g>
		<line class="st11" x1="302.3" y1="744.3" x2="308.3" y2="744.3"/>
		<line class="st12" x1="320.5" y1="744.3" x2="755.9" y2="744.3"/>
		<line class="st11" x1="762" y1="744.3" x2="768" y2="744.3"/>
	</g>
</g>
<g>
	<line class="st10" x1="767" y1="655.4" x2="767" y2="743.3"/>
	<g>
		<line class="st11" x1="767" y1="655.4" x2="767" y2="661.4"/>
		<line class="st13" x1="767" y1="672.2" x2="767" y2="731.9"/>
		<line class="st11" x1="767" y1="737.3" x2="767" y2="743.3"/>
	</g>
</g>
<g>
	<line class="st10" x1="302.3" y1="703.3" x2="302.3" y2="744.3"/>
	<g>
		<line class="st11" x1="302.3" y1="703.3" x2="302.3" y2="709.3"/>
		<line class="st14" x1="302.3" y1="719" x2="302.3" y2="733.5"/>
		<line class="st11" x1="302.3" y1="738.3" x2="302.3" y2="744.3"/>
	</g>
</g>
<text transform="matrix(1 0 0 1 232.3149 675.8809)" class="st0 st15 st16">+ 1000 руб.</text>
<polygon class="st0" points="302.3,690.8 309.6,703.3 295.1,703.3 "/>
<g>
	<g>
		<line class="st17" x1="803" y1="743.8" x2="809" y2="743.8"/>
		<line class="st18" x1="820.7" y1="743.8" x2="1211.2" y2="743.8"/>
		<line class="st17" x1="1217" y1="743.8" x2="1223" y2="743.8"/>
	</g>
</g>
<g>
	<line class="st10" x1="1222" y1="655.7" x2="1222" y2="743.1"/>
	<g>
		<line class="st17" x1="1222" y1="655.7" x2="1222" y2="661.7"/>
		<line class="st19" x1="1222" y1="672.4" x2="1222" y2="731.7"/>
		<line class="st17" x1="1222" y1="737.1" x2="1222" y2="743.1"/>
	</g>
</g>
<g>
	<line class="st10" x1="803.8" y1="667.9" x2="803.8" y2="744.8"/>
	<g>
		<line class="st17" x1="803.8" y1="667.9" x2="803.8" y2="673.9"/>
		<line class="st20" x1="803.8" y1="686.9" x2="803.8" y2="732.3"/>
		<line class="st17" x1="803.8" y1="738.8" x2="803.8" y2="744.8"/>
	</g>
</g>
<text transform="matrix(1 0 0 1 939.2953 726.8332)" class="st2 st15 st16">+ 1000 руб.</text>
<polygon class="st21" points="803.8,655.4 811,667.9 796.5,667.9 "/>
<g>
	<g>
		<line class="st17" x1="1279.1" y1="743.8" x2="1285.1" y2="743.8"/>
		<line class="st22" x1="1297.1" y1="743.8" x2="1675.9" y2="743.8"/>
		<line class="st17" x1="1681.9" y1="743.8" x2="1687.9" y2="743.8"/>
	</g>
</g>
<g>
	<line class="st10" x1="1686.9" y1="655.7" x2="1686.9" y2="743.1"/>
	<g>
		<line class="st17" x1="1686.9" y1="655.7" x2="1686.9" y2="661.7"/>
		<line class="st23" x1="1686.9" y1="672.4" x2="1686.9" y2="731.7"/>
		<line class="st17" x1="1686.9" y1="737.1" x2="1686.9" y2="743.1"/>
	</g>
</g>
<g>
	<line class="st10" x1="1278.8" y1="667.9" x2="1278.8" y2="744.8"/>
	<g>
		<line class="st17" x1="1278.8" y1="667.9" x2="1278.8" y2="673.9"/>
		<line class="st20" x1="1278.8" y1="686.9" x2="1278.8" y2="732.3"/>
		<line class="st17" x1="1278.8" y1="738.8" x2="1278.8" y2="744.8"/>
	</g>
</g>
<text transform="matrix(1 0 0 1 1409.2378 726.8333)" class="st2 st15 st16">+ 1000 руб.</text>
<polygon class="st21" points="1278.8,655.7 1286,668.2 1271.5,668.2 "/>
<g>
	<line class="st10" x1="301.3" y1="857.8" x2="1250.7" y2="857.8"/>
	<g>
		<line class="st11" x1="301.3" y1="857.8" x2="307.3" y2="857.8"/>
		<line class="st24" x1="319.2" y1="857.8" x2="1238.7" y2="857.8"/>
		<line class="st11" x1="1244.7" y1="857.8" x2="1250.7" y2="857.8"/>
	</g>
</g>
<g>
	<line class="st10" x1="1249.7" y1="655.7" x2="1249.7" y2="857.8"/>
	<g>
		<line class="st11" x1="1249.7" y1="655.7" x2="1249.7" y2="661.7"/>
		<line class="st25" x1="1249.7" y1="674.3" x2="1249.7" y2="845.5"/>
		<line class="st11" x1="1249.7" y1="851.8" x2="1249.7" y2="857.8"/>
	</g>
</g>
<g>
	<line class="st10" x1="302.4" y1="817.4" x2="302.4" y2="858.4"/>
	<g>
		<line class="st11" x1="302.4" y1="817.4" x2="302.4" y2="823.4"/>
		<line class="st14" x1="302.4" y1="833" x2="302.4" y2="847.5"/>
		<line class="st11" x1="302.4" y1="852.4" x2="302.4" y2="858.4"/>
	</g>
</g>
<text transform="matrix(1 0 0 1 239.3156 791.3032)" class="st0 st15 st16">+ 150 руб.</text>
<polygon class="st0" points="302.3,804.1 309.6,816.6 295.1,816.6 "/>
<g>
	<line class="st10" x1="302.1" y1="980.6" x2="1743" y2="980.6"/>
	<g>
		<line class="st11" x1="302.1" y1="980.6" x2="308.1" y2="980.6"/>
		<line class="st26" x1="320.1" y1="980.6" x2="1731" y2="980.6"/>
		<line class="st11" x1="1737" y1="980.6" x2="1743" y2="980.6"/>
	</g>
</g>
<g>
	<line class="st10" x1="1742" y1="655.7" x2="1742" y2="980.6"/>
	<g>
		<line class="st11" x1="1742" y1="655.7" x2="1742" y2="661.7"/>
		<line class="st27" x1="1742" y1="673.3" x2="1742" y2="968.8"/>
		<line class="st11" x1="1742" y1="974.6" x2="1742" y2="980.6"/>
	</g>
</g>
<g>
	<line class="st10" x1="303.2" y1="940.2" x2="303.2" y2="981.2"/>
	<g>
		<line class="st11" x1="303.2" y1="940.2" x2="303.2" y2="946.2"/>
		<line class="st14" x1="303.2" y1="955.9" x2="303.2" y2="970.4"/>
		<line class="st11" x1="303.2" y1="975.2" x2="303.2" y2="981.2"/>
	</g>
</g>
<text transform="matrix(1 0 0 1 244.1217 914.1488)" class="st0 st15 st16">+ 100 руб.</text>
<polygon class="st0" points="303.1,926.9 310.4,939.5 295.9,939.5 "/>
<g>
	<g>
		<line class="st17" x1="784.5" y1="919.2" x2="790.5" y2="919.2"/>
		<line class="st28" x1="802.4" y1="919.2" x2="1702.6" y2="919.2"/>
		<line class="st17" x1="1708.5" y1="919.2" x2="1714.5" y2="919.2"/>
	</g>
</g>
<g>
	<line class="st10" x1="1714.5" y1="655.7" x2="1714.5" y2="908.9"/>
	<g>
		<line class="st17" x1="1714.5" y1="655.7" x2="1714.5" y2="661.7"/>
		<line class="st29" x1="1714.5" y1="673.2" x2="1714.5" y2="897.2"/>
		<line class="st17" x1="1714.5" y1="902.9" x2="1714.5" y2="908.9"/>
	</g>
</g>
<g>
	<line class="st10" x1="784.5" y1="879.5" x2="784.5" y2="920.2"/>
	<g>
		<line class="st17" x1="784.5" y1="879.5" x2="784.5" y2="885.5"/>
		<line class="st30" x1="784.5" y1="895" x2="784.5" y2="909.4"/>
		<line class="st17" x1="784.5" y1="914.2" x2="784.5" y2="920.2"/>
	</g>
</g>
<text transform="matrix(1 0 0 1 1189.0002 902.8356)" class="st2 st15 st16">+ 150 руб.</text>
<polygon class="st21" points="784.7,867 791.9,879.5 777.4,879.5 "/>
</svg>
