<?xml version="1.0" encoding="utf-8"?>
<!-- Generator: Adobe Illustrator 20.1.0, SVG Export Plug-In . SVG Version: 6.00 Build 0)  -->
<svg version="1.1" id="Layer_1" xmlns="http://www.w3.org/2000/svg" xmlns:xlink="http://www.w3.org/1999/xlink" x="0px" y="0px"
	 viewBox="0 0 496 496" style="enable-background:new 0 0 496 496;" xml:space="preserve">
<style type="text/css">
	.st0{fill:#FF8A18;}
	.st1{fill:#333333;}
</style>
<g>
	<path class="st0" d="M400,256.2c0,0-62.4,16-152,16s-152-16-152-16l-4.9-1.2c-6.4,26.6-9.9,53.8-10.8,81.2
		c3.9,0.2,53.7,3.4,87.6,16c35.3,13,56,40,56,40h16h16h16c0,0,20.7-27,56-40c33.9-12.5,83.8-15.7,87.6-16
		c-0.8-27.3-4.4-54.4-10.7-80.8L400,256.2z"/>
	<rect y="88.2" class="st0" width="16" height="16"/>
	<rect x="32" y="88.2" class="st0" width="16" height="16"/>
	<polygon class="st0" points="88.8,124.6 103.2,131.8 120.9,96.2 103.2,60.6 88.8,67.8 99,88.2 64,88.2 64,104.2 99,104.2 	"/>
	<rect x="480" y="88.2" class="st0" width="16" height="16"/>
	<rect x="448" y="88.2" class="st0" width="16" height="16"/>
	<polygon class="st0" points="407.2,67.8 392.8,60.6 375,96.2 392.8,131.8 407.2,124.6 396.9,104.2 432,104.2 432,88.2 396.9,88.2 	
		"/>
</g>
<g>
	<path class="st1" d="M375.9,156c-10.4-19.5-15.9-41.5-15.9-63.6c0-12.7,1.8-25.3,5.3-37.5l12.9-44.6L362.8,6l-12.9,44.6
		C346,64.1,344,78.2,344,92.4c0,24.7,6.1,49.3,17.8,71.1c14.5,27.1,25.6,55.9,33.3,85.6c-13.2,3-70.1,15.1-147.1,15.1
		c-76.8,0-133.9-12-147.1-15.1c7.8-29.7,18.9-58.5,33.3-85.6c11.6-21.8,17.8-46.4,17.8-71.1c0-14.2-2-28.3-5.9-41.9L133.2,6
		l-15.4,4.4L130.7,55c3.5,12.2,5.3,24.8,5.3,37.5c0,22.1-5.5,44.1-15.9,63.6C88.6,215,72,281.5,72,348.4c0,40.2,4,80.5,11.9,119.9
		l4.3,21.4l15.7-3.1l-4.3-21.4C91.9,426.8,88,387.5,88,348.4c0-1.2,0.1-2.4,0.1-3.6c16.1,1.4,51.6,5.4,77.1,14.9
		c29.5,10.9,48.4,32.5,51.8,36.6c1.5,3.6,6.9,18.4,6.9,35.9c0,20.8-7.7,53.8-7.8,54.2l15.6,3.7c0.3-1.4,8.2-35.2,8.2-57.8
		c0-12.8-2.5-24.1-4.8-32h25.6c-2.3,7.9-4.8,19.2-4.8,32c0,22.7,7.9,56.4,8.2,57.8l15.6-3.7c-0.1-0.3-7.8-33.3-7.8-54.2
		c0-17.3,5.5-32.1,6.9-35.8c3.4-4.1,22.3-25.7,51.8-36.7c25.5-9.4,61-13.4,77.1-14.9c0,1.2,0.1,2.4,0.1,3.6
		c0,39.1-3.9,78.4-11.6,116.8l-4.3,21.4l15.7,3.1l4.3-21.4C420,429,424,388.6,424,348.4C424,281.5,407.4,215,375.9,156z
		 M325.2,344.7c-30.2,11.2-50.1,31.7-57,39.5h-40.5c-6.8-7.8-26.8-28.3-57-39.5c-28-10.4-65.8-14.5-82.2-15.9
		c1.1-21.6,4-43,8.6-64.1c13.9,3.2,71.3,15.5,150.8,15.5c79.4,0,136.9-12.2,150.8-15.5c4.6,21.1,7.6,42.5,8.6,64.1
		C391,330.2,353.3,334.3,325.2,344.7z"/>
	<path class="st1" d="M389.4,280.6c-39.7,13.6-93.2,15.6-93.7,15.6l0.6,16c2.3-0.1,56.3-2.1,98.3-16.4L389.4,280.6z"/>
</g>
</svg>
