<?xml version="1.0" encoding="utf-8"?>
<!-- Generator: Adobe Illustrator 20.1.0, SVG Export Plug-In . SVG Version: 6.00 Build 0)  -->
<svg version="1.1" id="Layer_1" xmlns="http://www.w3.org/2000/svg" xmlns:xlink="http://www.w3.org/1999/xlink" x="0px" y="0px"
	 viewBox="0 0 295.2 295.2" style="enable-background:new 0 0 295.2 295.2;" xml:space="preserve">
<style type="text/css">
	.st0{fill:#333333;}
	.st1{fill:#FF8A18;}
</style>
<path class="st0" d="M295.2,161.9h-38.1v-42.8l-75.2-0.5l-29.5-12.2V90.5h-9.5v15.9l-29.5,12.2l-75.2,0.5v42.8H0V219h85.7v-57.1
	H47.6v-33.4l65.7-0.4l29.6,13.1v20.7h-38.1V219h85.7v-57.1h-38.1v-20.7l29.6-13.1l65.7,0.4v33.4h-38.1V219h38.1v14.3H142.9v23.8h-19
	c-10.5,0-19,8.5-19,19s8.5,19,19,19h47.6c10.5,0,19-8.5,19-19s-8.5-19-19-19h-19v-14.3h104.8V219h38.1v-57.1H295.2z M76.2,209.5H9.5
	v-38.1h66.7V209.5z M181,209.5h-66.7v-38.1H181V209.5z M147.6,132.9l-21.2-9.4l21.2-8.8l21.2,8.8L147.6,132.9z M181,276.2
	c0,5.3-4.3,9.5-9.5,9.5h-47.6c-5.3,0-9.5-4.3-9.5-9.5c0-5.3,4.3-9.5,9.5-9.5h47.6C176.7,266.7,181,270.9,181,276.2z M285.7,209.5
	H219v-38.1h66.7V209.5z"/>
<path class="st1" d="M171.4,95.2h-47.6V67.8c-9-7.2-14.3-18.1-14.3-29.7c0-21,17.1-38.1,38.1-38.1s38.1,17.1,38.1,38.1
	c0,11.6-5.3,22.5-14.3,29.7L171.4,95.2L171.4,95.2z"/>
<path class="st0" d="M176.2,71.4h-23.8V51.5c5.5-2,9.5-7.2,9.5-13.4c0-7.9-6.4-14.3-14.3-14.3s-14.3,6.4-14.3,14.3
	c0,6.2,4,11.4,9.5,13.4v19.9H119V81h57.1L176.2,71.4L176.2,71.4z M147.6,33.3c2.6,0,4.8,2.1,4.8,4.8s-2.1,4.8-4.8,4.8
	s-4.8-2.1-4.8-4.8S145,33.3,147.6,33.3z"/>
<rect x="71.4" y="33.3" class="st0" width="23.8" height="9.5"/>
<rect x="76.3" y="57.9" transform="matrix(0.9238 -0.3828 0.3828 0.9238 -17.2702 38.5298)" class="st0" width="23.8" height="9.5"/>
<rect x="202.3" y="50.8" transform="matrix(0.3827 -0.9239 0.9239 0.3827 69.9178 229.9568)" class="st0" width="9.5" height="23.8"/>
<rect x="200" y="33.3" class="st0" width="23.8" height="9.5"/>
<rect x="195.1" y="8.7" transform="matrix(0.9238 -0.3828 0.3828 0.9238 10.6145 80.2579)" class="st0" width="23.8" height="9.5"/>
<rect x="83.5" y="1.6" transform="matrix(0.3827 -0.9239 0.9239 0.3827 42.0274 89.8474)" class="st0" width="9.5" height="23.8"/>
</svg>
