<?xml version="1.0" encoding="utf-8"?>
<!-- Generator: Adobe Illustrator 20.1.0, SVG Export Plug-In . SVG Version: 6.00 Build 0)  -->
<svg version="1.1" id="Слой_1" xmlns="http://www.w3.org/2000/svg" xmlns:xlink="http://www.w3.org/1999/xlink" x="0px" y="0px"
	 viewBox="0 0 512 512" style="enable-background:new 0 0 512 512;" xml:space="preserve">
<style type="text/css">
	.st0{fill:#FF8A18;}
	.st1{fill:#333333;}
</style>
<polygon class="st0" points="79.9,374.3 99.8,414.7 144.4,421.1 112.1,452.6 119.7,497 79.9,476 40,497 47.6,452.6 15.4,421.1 
	60,414.7 "/>
<circle class="st0" cx="256" cy="85" r="68.6"/>
<g>
	<path class="st1" d="M256,161.2c44.5,0,80.6-36.2,80.6-80.6S300.5,0,256,0s-80.6,36.2-80.6,80.6C175.4,125.1,211.5,161.2,256,161.2
		z M256,16.3c35.4,0,64.3,28.8,64.3,64.3s-28.8,64.3-64.3,64.3s-64.3-28.8-64.3-64.3S220.6,16.3,256,16.3z"/>
	<path class="st1" d="M256,193.9c65.2,0,118.7,50.9,122.9,115H190.1c-4.5,0-8.2,3.7-8.2,8.2s3.7,8.2,8.2,8.2h197.3
		c4.5,0,8.2-3.7,8.2-8.2c0-76.9-62.6-139.5-139.5-139.5s-139.5,62.6-139.5,139.5c0,4.5,3.7,8.2,8.2,8.2h32.7c4.5,0,8.2-3.7,8.2-8.2
		s-3.7-8.2-8.2-8.2h-24.2C137.3,244.8,190.8,193.9,256,193.9L256,193.9z"/>
	<path class="st1" d="M153,411.5l-44.8-7.5l-21-40.3c-1.4-2.7-4.2-4.4-7.2-4.4s-5.8,1.7-7.2,4.4l-21,40.3L7,411.5
		c-3,0.5-5.5,2.6-6.4,5.5s-0.2,6.1,1.9,8.2l31.8,32.4l-6.7,45c-0.4,3,0.8,6,3.3,7.8c2.5,1.8,5.7,2.1,8.4,0.7L80,490.8l40.7,20.3
		c1.2,0.6,2.4,0.9,3.6,0.9c1.7,0,3.4-0.5,4.8-1.6c2.5-1.8,3.7-4.8,3.3-7.8l-6.7-45l31.8-32.4c2.1-2.2,2.9-5.4,1.9-8.2
		C158.4,414.1,156,412,153,411.5L153,411.5z M111.1,449.1c-1.8,1.8-2.6,4.4-2.3,6.9l5,33.5l-30.3-15.1c-2.3-1.1-5-1.1-7.3,0
		L46,489.5l5-33.5c0.4-2.5-0.5-5.1-2.3-6.9L25,425l33.4-5.6c2.5-0.4,4.7-2,5.9-4.3l15.6-30l15.6,30c1.2,2.3,3.4,3.9,5.9,4.3
		l33.4,5.6L111.1,449.1z"/>
	<path class="st1" d="M329.1,411.5l-44.8-7.5l-21-40.3c-1.4-2.7-4.2-4.4-7.2-4.4s-5.8,1.7-7.2,4.4l-21,40.3l-44.8,7.5
		c-3,0.5-5.5,2.6-6.4,5.5s-0.2,6.1,1.9,8.2l31.8,32.4l-6.7,45c-0.4,3,0.8,6,3.3,7.8c2.5,1.8,5.7,2.1,8.4,0.7l40.7-20.3l40.7,20.3
		c1.2,0.6,2.4,0.9,3.6,0.9c1.7,0,3.4-0.5,4.8-1.6c2.5-1.8,3.7-4.8,3.3-7.8l-6.7-45l31.8-32.4c2.1-2.2,2.9-5.4,1.9-8.2
		C334.5,414.1,332.1,412,329.1,411.5L329.1,411.5z M287.2,449.1c-1.8,1.8-2.6,4.4-2.3,6.9l5,33.5l-30.3-15.1
		c-1.1-0.6-2.4-0.9-3.6-0.9c-1.2,0-2.5,0.3-3.6,0.9l-30.3,15.1l5-33.5c0.4-2.5-0.5-5.1-2.3-6.9L201.1,425l33.4-5.6
		c2.5-0.4,4.7-2,5.9-4.3l15.6-30l15.6,30c1.2,2.3,3.4,3.9,5.9,4.3l33.4,5.6L287.2,449.1L287.2,449.1z"/>
	<path class="st1" d="M511.6,417c-0.9-2.9-3.4-5-6.4-5.5l-44.8-7.5l-21-40.3c-1.4-2.7-4.2-4.4-7.2-4.4s-5.8,1.7-7.2,4.4L404,404
		l-44.8,7.5c-3,0.5-5.5,2.6-6.4,5.5s-0.2,6.1,1.9,8.2l31.8,32.4l-6.7,45c-0.4,3,0.8,6,3.3,7.8c2.5,1.8,5.7,2.1,8.4,0.7l40.7-20.3
		l40.7,20.3c1.2,0.6,2.4,0.9,3.6,0.9c1.7,0,3.4-0.5,4.8-1.6c2.5-1.8,3.7-4.8,3.3-7.8l-6.7-45l31.8-32.4
		C511.8,423.1,512.5,419.9,511.6,417L511.6,417z M463.3,449.1c-1.8,1.8-2.6,4.4-2.3,6.9l5,33.5l-30.3-15.1c-1.1-0.6-2.4-0.9-3.6-0.9
		s-2.5,0.3-3.6,0.9l-30.3,15.1l5-33.5c0.4-2.5-0.5-5.1-2.3-6.9L377.2,425l33.4-5.6c2.5-0.4,4.7-2,5.9-4.3l15.6-30l15.6,30
		c1.2,2.3,3.4,3.9,5.9,4.3L487,425L463.3,449.1L463.3,449.1z"/>
	<path class="st1" d="M256,117.7c10.7,0,20.9-4.7,28-12.8c3-3.4,2.6-8.6-0.8-11.5c-3.4-3-8.6-2.6-11.5,0.8
		c-3.9,4.5-9.6,7.1-15.6,7.1s-11.7-2.6-15.6-7.1c-3-3.4-8.1-3.8-11.5-0.8s-3.8,8.1-0.8,11.5C235.1,113,245.3,117.7,256,117.7
		L256,117.7z"/>
</g>
</svg>
