<?xml version="1.0" encoding="utf-8"?>
<!-- Generator: Adobe Illustrator 20.1.0, SVG Export Plug-In . SVG Version: 6.00 Build 0)  -->
<svg version="1.1" id="Capa_1" xmlns="http://www.w3.org/2000/svg" xmlns:xlink="http://www.w3.org/1999/xlink" x="0px" y="0px"
	 viewBox="0 0 475 475" style="enable-background:new 0 0 475 475;" xml:space="preserve">
<style type="text/css">
	.st0{fill:#FF8A18;}
	.st1{fill:#333333;}
</style>
<path class="st0" d="M165.5,109.2c0,0,24-30.3,70.5-27.3c0,0,52.1-75.5,121,2c0,0,94,0.5,75,101H167.5L165.5,109.2z"/>
<path class="st0" d="M57.6,82.6l103,102h-108C52.6,184.6,8.7,117.6,57.6,82.6z"/>
<path class="st0" d="M165.6,39.7l-5.3,144.9l-73.1-79.5C87.2,105.1,106.8,27.4,165.6,39.7z"/>
<path id="XMLID_971_" class="st1" d="M440.8,177.2c2.5-8,3.9-16.4,3.9-24.8c0-44.9-33.5-78.4-78.4-78.4c-0.9,0-1.9,0-2.8,0.1
	c-15.2-21.4-40.1-34.4-66.5-34.4S245.7,52.6,230.5,74c-1,0-1.9-0.1-2.8-0.1c-19.4,0-40.9,7-55.3,19.1V30.2h-10
	c-39.5,0-69.8,24.1-79.3,60.6L59.3,67l-7.1,7C24.3,101.9,19.9,144.6,39,177.2H0v10c0,85.7,45.9,164.3,120.3,206.6v54.1h234.5v-54.1
	C429.1,351.5,475,272.9,475,187.2v-10H440.8z M227.7,91c2.2,0,4.5,0.1,6.9,0.4l6.4,0.7l3.3-5.5c11-18.5,31.2-30,52.7-30
	s41.7,11.5,52.7,30l3.3,5.5l6.4-0.7c2.3-0.3,4.7-0.4,6.9-0.4c33.8,0,61.4,27.5,61.4,61.4c0,8.6-1.8,17-5.2,24.8h-69.8l37.2-37.2
	l-14.1-14.1l-51.3,51.3H307V92.3h-20v84.9h-17.3l-51.3-51.3L204.2,140l37.2,37.2h-69v-56.9C183.5,102.1,206.3,91,227.7,91z
	 M155.4,47.9V163l-57.9-57.9C99.4,74.5,125.5,52.6,155.4,47.9z M59.8,92.8l84.4,84.4H60.6C40.3,154.2,42,117.1,59.8,92.8z
	 M137.3,430.8v-33h200.5v33H137.3z M342.2,380.8H132.8c-66.7-36.7-112.1-111-115.6-186.6h440.5C454.3,269.8,408.9,344.1,342.2,380.8
	z"/>
</svg>
