<?xml version="1.0" encoding="utf-8"?>
<!-- Generator: Adobe Illustrator 20.1.0, SVG Export Plug-In . SVG Version: 6.00 Build 0)  -->
<svg version="1.1" id="Layer_1" xmlns="http://www.w3.org/2000/svg" xmlns:xlink="http://www.w3.org/1999/xlink" x="0px" y="0px"
	 viewBox="0 0 285.3 285.3" style="enable-background:new 0 0 285.3 285.3;" xml:space="preserve">
<style type="text/css">
	.st0{fill:#F98749;}
	.st1{fill:#333333;}
</style>
<rect x="166.7" y="6.5" transform="matrix(0.5547 -0.8321 0.8321 0.5547 62.26 163.1972)" class="st0" width="33.8" height="33.8"/>
<path class="st1" d="M168.4,238.2c1.8-0.7,3.6-1.7,5-3.1c3.2-3.1,4.6-7.4,4.1-11.8l-7.9-59.5v-42.3l34.6-12.4
	c4.3-1.6,7.6-5.3,8.4-9.9l5.3-28.9l43,27.4l5-7.9l-46.5-29.6c-0.1-3-1.2-6-3.2-8.4c-2.6-3.2-6.5-5-10.6-5c-1.9,0-3.7,0.4-5.4,1.1
	l-37.4-23.8l-5,7.9l35.5,22.6c-0.6,1.2-1.1,2.5-1.3,3.9l-4.4,28.3L160,96.2c-5.1-4.5-11.7-7.1-18.6-7.1c-6,0-11.8,2-17,5.8l-1.4,1.2
	c-0.4,0.3-8,7.3-14.4,13.1V94.3c0-7.1-5-13.3-11.7-14.4c-4.1-0.7-8.3,0.5-11.4,3.2c-3.2,2.7-5,6.6-5,10.7V132c0,9.9,8.1,18,18,18
	c4.5,0,8.8-1.6,12.1-4.6l2.7-2.4v20.8l-7.9,59.1c-0.9,6.8,3,13.1,9,15.3c-7.5,2.1-14.8,5.1-21.6,9l-53,30l4.6,8.2l53-30
	c27.1-15.4,60.8-15.4,88,0l53,30l4.6-8.2l-53-30C183.1,243.3,175.9,240.3,168.4,238.2z M104.3,138.4c-1.6,1.4-3.6,2.2-5.8,2.2
	c-4.8,0-8.7-3.9-8.7-8.7V93.8c0-1.4,0.6-2.7,1.7-3.6c1.1-0.9,2.4-1.3,3.9-1.1c2.2,0.4,3.9,2.6,3.9,5.1v36.1l7.8-7.1
	c0,0,21.3-19.3,22-20l1.2-1c7.7-5.8,18.7-4.6,25,2.4l2.1,2.3l38.6-13.1l5.2-33.9c0-0.1,0.1-0.1,0.1-0.2l8,5.1l-5.9,32.7
	c-0.2,1.2-1.1,2.3-2.3,2.7l-40.8,14.6v49.2l8,60.4c0.2,1.5-0.3,2.9-1.3,3.9c-0.6,0.6-1.9,1.6-4,1.3c-1.9-0.3-3.6-2.1-3.8-4.3
	l-8.8-65.9h-17.6l-8.8,66.3c-0.2,1.3-0.9,2.5-2,3.2c-1.1,0.8-2.5,1-3.9,0.6c-2.1-0.6-3.5-2.9-3.2-5.4l7.9-59.5l0-42.8L104.3,138.4z
	 M128.8,235.2c2.3-2.2,3.9-5.1,4.3-8.3l7.8-58.2h1.2l7.7,57.8c0.5,3.4,2.1,6.5,4.4,8.7C145.7,234.2,137.2,234.2,128.8,235.2z"/>
<path class="st1" d="M169.5,60.9c0-15.5-12.6-28.1-28.1-28.1s-28.1,12.6-28.1,28.1s12.6,28.1,28.1,28.1S169.5,76.5,169.5,60.9z
	 M141.4,79.7c-10.3,0-18.8-8.4-18.8-18.8s8.4-18.8,18.8-18.8s18.8,8.4,18.8,18.8S151.7,79.7,141.4,79.7z"/>
<polygon class="st1" points="253.9,126.6 244.5,126.6 244.5,135.9 235.2,135.9 235.2,145.3 244.5,145.3 244.5,154.7 253.9,154.7 
	253.9,145.3 263.3,145.3 263.3,135.9 253.9,135.9 "/>
<polygon class="st1" points="216.4,173.4 216.4,168.8 221.1,168.8 221.1,159.4 216.4,159.4 216.4,154.7 207,154.7 207,159.4 
	202.3,159.4 202.3,168.8 207,168.8 207,173.4 "/>
<polygon class="st1" points="244.5,168.8 235.2,168.8 235.2,178.1 225.8,178.1 225.8,187.5 235.2,187.5 235.2,196.9 244.5,196.9 
	244.5,187.5 253.9,187.5 253.9,178.1 244.5,178.1 "/>
<polygon class="st1" points="71.1,42.2 80.5,42.2 80.5,32.8 89.8,32.8 89.8,23.4 80.5,23.4 80.5,14.1 71.1,14.1 71.1,23.4 
	61.7,23.4 61.7,32.8 71.1,32.8 "/>
<polygon class="st1" points="33.6,28.1 33.6,23.4 38.3,23.4 38.3,14.1 33.6,14.1 33.6,9.4 24.2,9.4 24.2,14.1 19.5,14.1 19.5,23.4 
	24.2,23.4 24.2,28.1 "/>
<polygon class="st1" points="47.7,70.3 47.7,60.9 57,60.9 57,51.6 47.7,51.6 47.7,42.2 38.3,42.2 38.3,51.6 28.9,51.6 28.9,60.9 
	38.3,60.9 38.3,70.3 "/>
</svg>
