<?xml version="1.0" encoding="utf-8"?>
<!-- Generator: Adobe Illustrator 20.1.0, SVG Export Plug-In . SVG Version: 6.00 Build 0)  -->
<svg version="1.1" id="Layer_1" xmlns="http://www.w3.org/2000/svg" xmlns:xlink="http://www.w3.org/1999/xlink" x="0px" y="0px"
	 viewBox="0 0 200.1 230.6" style="enable-background:new 0 0 200.1 230.6;" xml:space="preserve">
<style type="text/css">
	.st0{fill:#FF8A18;}
	.st1{fill:#333333;}
</style>
<title>гарантия</title>
<circle class="st0" cx="114.9" cy="100.3" r="51.9"/>
<path class="st1" d="M191.9,15.1c-25.9,0-51.6-4.9-75.6-14.6L114.9,0l-1.4,0.5c-24,9.6-49.7,14.6-75.6,14.6h-8.3v77.8H11.1
	C5,92.9,0,97.9,0,104.1v63c0,6.1,5,11.1,11.1,11.1h33.4c8.7,13.9,20.9,25.4,35.3,33.3l35.1,19.1l35.1-19.1
	c30.9-16.9,50.2-49.3,50.2-84.5V15.1H191.9z M7.4,167.1v-63c0-2,1.7-3.7,3.7-3.7c0,0,0,0,0,0h33.3c2,0,3.7,1.7,3.7,3.7c0,0,0,0,0,0
	v63c0,2-1.7,3.7-3.7,3.7c0,0,0,0,0,0H11.1C9.1,170.8,7.4,169.1,7.4,167.1L7.4,167.1z M55.6,111.4c12.5-0.7,22.2-11,22.2-23.5V68.8
	c-0.2-5.1,3.8-9.4,9-9.6c5.1-0.2,9.4,3.8,9.6,9c0,0.2,0,0.4,0,0.6v23.3c0,6.6,5.3,11.9,11.9,11.9h27.2c7.1,0,12.8,5.8,12.8,12.9
	c0,0,0,0,0,0v41c0,7.1-5.7,12.8-12.8,12.8H80.8c-2.9,0-5.7-1.5-7.3-3.9c-3-4.5-8.1-7.2-13.5-7.2h-4.4V111.4z M192.7,126.9
	c0,32.5-17.8,62.4-46.3,78l-31.5,17.2l-31.5-17.2c-12.9-7-23.8-17.1-31.8-29.4c2.3-1.9,3.7-4.7,3.9-7.8
	c7.5,12.9,18.3,23.5,31.4,30.6l28,15.2l28-15.2c26.1-14.3,42.4-41.7,42.4-71.5V70.7h-7.4v56.2c0,27.1-14.8,52-38.6,65l-24.4,13.3
	l-24.4-13.3c-10.4-5.7-19.2-13.7-25.8-23.5c1.1,0.6,2,1.5,2.7,2.5c3,4.5,8.1,7.2,13.5,7.2h54.6c11.2,0,20.2-9,20.2-20.2v-41
	c0-11.2-9.1-20.2-20.2-20.2h-27.2c-2.5,0-4.5-2-4.5-4.5l0,0V68.8c0.2-9.2-7.1-16.9-16.3-17.1c-9.2-0.2-16.9,7.1-17.1,16.3
	c0,0.3,0,0.5,0,0.8v19.1c0,8.4-6.5,15.4-14.8,16c0-3.1-1.4-6-3.7-8.1V36.9c21.5-1.3,42.7-5.7,63-13.1c20.3,7.4,41.5,11.8,63,13.1
	v4.1h7.4V29.9l-3.6-0.2c-22.4-1-44.5-5.5-65.6-13.3l-1.3-0.5l-1.3,0.5c-21,7.8-43.2,12.3-65.6,13.3l-3.5,0.2v63.1h-7.4V22.5h0.8
	c26.4,0,52.5-4.9,77-14.5c24.5,9.6,50.6,14.6,77,14.5h0.8V126.9L192.7,126.9z"/>
<rect x="177.9" y="55.9" class="st1" width="7.4" height="7.4"/>
<rect x="14.8" y="155.9" class="st1" width="25.9" height="7.4"/>
</svg>
