<?xml version="1.0" encoding="utf-8"?>
<!-- Generator: Adobe Illustrator 20.1.0, SVG Export Plug-In . SVG Version: 6.00 Build 0)  -->
<svg version="1.1" id="Layer_1" xmlns="http://www.w3.org/2000/svg" xmlns:xlink="http://www.w3.org/1999/xlink" x="0px" y="0px"
	 viewBox="0 0 142.9 185.7" style="enable-background:new 0 0 142.9 185.7;" xml:space="preserve">
<style type="text/css">
	.st0{fill:#333333;}
	.st1{fill:#FF8A18;}
</style>
<title>участник</title>
<path class="st0" d="M113.3,96l-5.2,8c15.7,10.1,25.2,27.4,25.2,46.1v26.1H74.2l34.7-59.5l-8.2-4.8L71.4,162l-29.2-50.1l-8.2,4.8
	l34.7,59.5H9.5v-26.1c0-18.7,9.5-36,25.2-46.1l-5.2-8C11.1,107.8,0,128.2,0,150.1v35.6h142.8v-35.6
	C142.8,128.2,131.7,107.8,113.3,96z"/>
<path class="st0" d="M18.6,52.6c0,29,23.5,52.6,52.6,52.6s52.6-23.5,52.6-52.6S100.2,0,71.2,0c0,0,0,0,0,0
	C42.2,0,18.6,23.6,18.6,52.6z M114.2,52.6c0,23.7-19.3,43-43,43s-43-19.3-43-43s19.3-43,43-43C95,9.6,114.2,28.8,114.2,52.6
	L114.2,52.6z"/>
<circle class="st1" cx="71.4" cy="52.8" r="43.2"/>
</svg>
