<?xml version="1.0" encoding="utf-8"?>
<!-- Generator: Adobe Illustrator 20.1.0, SVG Export Plug-In . SVG Version: 6.00 Build 0)  -->
<svg version="1.1" id="Layer_1" xmlns="http://www.w3.org/2000/svg" xmlns:xlink="http://www.w3.org/1999/xlink" x="0px" y="0px"
	 viewBox="0 0 496 496" style="enable-background:new 0 0 496 496;" xml:space="preserve">
<style type="text/css">
	.st0{fill:#FF8A18;}
	.st1{fill:#333333;}
</style>
<circle class="st0" cx="312" cy="216" r="80"/>
<g>
	<rect x="144" y="32" class="st1" width="64" height="16"/>
	<rect x="96" y="32" class="st1" width="16" height="16"/>
	<path class="st1" d="M152,416c-15.4,0-28,12.6-28,28s12.6,28,28,28s28-12.6,28-28S167.4,416,152,416z M152,456c-6.6,0-12-5.4-12-12
		s5.4-12,12-12s12,5.4,12,12S158.6,456,152,456z"/>
	<path class="st1" d="M272,163.1v105.9L377.9,216L272,163.1z M288,188.9l54.1,27.1L288,243.1V188.9z"/>
	<path class="st1" d="M496,96H304V40c0-22.1-17.9-40-40-40H40C17.9,0,0,17.9,0,40v416c0,22.1,17.9,40,40,40h224
		c22.1,0,40-17.9,40-40v-80h192V96z M480,312H144V112h336V312z M40,16h224c13.2,0,24,10.8,24,24v24H16V40C16,26.8,26.8,16,40,16z
		 M264,480H40c-13.2,0-24-10.8-24-24v-48h272v48C288,469.2,277.2,480,264,480z M288,392H16V80h272v16H128v280h160V392z M144,360v-32
		h336v32H144z"/>
	<rect x="160" y="336" class="st1" width="24" height="16"/>
	<rect x="232" y="336" class="st1" width="232" height="16"/>
	<rect x="200" y="336" class="st1" width="16" height="16"/>
	<circle class="st1" cx="168" cy="136" r="8"/>
	<circle class="st1" cx="192" cy="136" r="8"/>
	<circle class="st1" cx="216" cy="136" r="8"/>
</g>
</svg>
