<?xml version="1.0" encoding="utf-8"?>
<!-- Generator: Adobe Illustrator 20.1.0, SVG Export Plug-In . SVG Version: 6.00 Build 0)  -->
<svg version="1.1" id="Layer_1" xmlns="http://www.w3.org/2000/svg" xmlns:xlink="http://www.w3.org/1999/xlink" x="0px" y="0px"
	 viewBox="0 0 295.2 295.2" style="enable-background:new 0 0 295.2 295.2;" xml:space="preserve">
<style type="text/css">
	.st0{fill:#FF8A18;}
	.st1{fill:#333333;}
</style>
<rect x="19" y="57.1" class="st0" width="152.4" height="104.8"/>
<path class="st1" d="M0,0v295.2h295.2V0H0z M285.7,9.5v28.6H9.5V9.5H285.7z M9.5,285.7V47.6h276.2v238.1H9.5z"/>
<circle class="st1" cx="23.8" cy="23.8" r="4.8"/>
<circle class="st1" cx="38.1" cy="23.8" r="4.8"/>
<circle class="st1" cx="52.4" cy="23.8" r="4.8"/>
<path class="st1" d="M76.2,82.3v54.5l47.7-27.3L76.2,82.3z M85.7,98.7l19,10.8l-19,10.8V98.7z"/>
<rect x="181" y="57.1" class="st1" width="95.2" height="9.5"/>
<rect x="181" y="81" class="st1" width="95.2" height="9.5"/>
<rect x="181" y="104.8" class="st1" width="95.2" height="9.5"/>
<rect x="181" y="128.6" class="st1" width="95.2" height="9.5"/>
<rect x="181" y="152.4" class="st1" width="95.2" height="9.5"/>
<rect x="19" y="176.2" class="st1" width="257.1" height="9.5"/>
<path class="st1" d="M95.2,200H19v52.4h76.2V200z M85.7,242.9H28.6v-33.3h57.1C85.7,209.5,85.7,242.9,85.7,242.9z"/>
<rect x="19" y="266.7" class="st1" width="257.1" height="9.5"/>
<path class="st1" d="M109.5,200v52.4h76.2V200H109.5z M176.2,242.9H119v-33.3h57.1L176.2,242.9L176.2,242.9z"/>
<path class="st1" d="M200,252.4h76.2V200H200V252.4z M209.5,209.5h57.1v33.3h-57.1V209.5L209.5,209.5z"/>
</svg>
