<?xml version="1.0" encoding="utf-8"?>
<!-- Generator: Adobe Illustrator 20.1.0, SVG Export Plug-In . SVG Version: 6.00 Build 0)  -->
<svg version="1.1" id="Layer_1" xmlns="http://www.w3.org/2000/svg" xmlns:xlink="http://www.w3.org/1999/xlink" x="0px" y="0px"
	 viewBox="0 0 147.4 253.9" style="enable-background:new 0 0 147.4 253.9;" xml:space="preserve">
<style type="text/css">
	.st0{fill:#FF8A18;}
	.st1{fill:#333333;}
</style>
<title>астронавт</title>
<rect x="45" y="131" class="st0" width="57.3" height="28.7"/>
<path class="st0" d="M101.2,32.8c13.6,15.2,12.3,38.5-2.9,52s-38.5,12.3-52-2.9c-12.5-14-12.5-35.1,0-49.1H101.2z"/>
<path class="st1" d="M147.4,176.1v-49.1c0-16.8-11.4-31.4-27.6-35.6c18.8-25.4,13.5-61.3-11.9-80.2S46.5-2.4,27.6,23.1
	c-15,20.3-15,48,0,68.2C11.4,95.5,0,110.2,0,126.9v49.1c0,16.5,12.3,30.4,28.7,32.5v6.5c-14.7,5.2-24.5,19.1-24.6,34.7v4.1h139.2
	v-4.1c0-15.6-9.9-29.5-24.6-34.7v-6.5C135.1,206.5,147.4,192.6,147.4,176.1z M118.8,200.3v-16h19
	C134.8,192.6,127.5,198.8,118.8,200.3L118.8,200.3z M73.8,8.2c27.1,0,49.1,22.1,49.1,49.2s-22.1,49.1-49.2,49.1
	c-27.1,0-49.1-22-49.1-49.1C24.6,30.2,46.6,8.2,73.8,8.2L73.8,8.2z M9.6,184.3h19v16C19.9,198.7,12.6,192.6,9.6,184.3z M41,221.1
	c9.4,0,18.1,4.6,23.5,12.2h-47C22.8,225.7,31.6,221.1,41,221.1L41,221.1z M12.6,245.7c0.2-1.4,0.5-2.8,0.9-4.1h54.9
	c0.4,1.3,0.7,2.7,0.9,4.1H12.6z M78.1,245.7c0.2-1.4,0.5-2.8,0.9-4.1h54.9c0.4,1.3,0.7,2.7,0.9,4.1H78.1z M129.9,233.4h-47
	c9-13,26.8-16.2,39.8-7.2C125.6,228.1,128,230.5,129.9,233.4z M106.5,212.9c-11.2,0-21.7,5.1-28.7,13.9v-42.5h-8.2v42.5
	c-7.8-9.9-20.2-15.1-32.8-13.6V131h-8.2v45H8.2v-49.1c0-14.7,11.1-26.9,25.7-28.5c22.2,21.6,57.6,21.6,79.7,0
	c14.6,1.6,25.6,13.8,25.6,28.5v49.1h-20.5v-45h-8.2v82.1C109.2,213,107.8,213,106.5,212.9L106.5,212.9z"/>
<rect x="61.4" y="143.3" class="st1" width="24.6" height="8.2"/>
<rect x="45" y="167.9" class="st1" width="8.2" height="8.2"/>
<rect x="77.8" y="40.9" class="st1" width="8.2" height="8.2"/>
<rect x="49.1" y="40.9" class="st1" width="20.5" height="8.2"/>
</svg>
