<?xml version="1.0" encoding="utf-8"?>
<!-- Generator: Adobe Illustrator 20.1.0, SVG Export Plug-In . SVG Version: 6.00 Build 0)  -->
<svg version="1.1" id="Layer_1" xmlns="http://www.w3.org/2000/svg" xmlns:xlink="http://www.w3.org/1999/xlink" x="0px" y="0px"
	 viewBox="0 0 290.6 290.6" style="enable-background:new 0 0 290.6 290.6;" xml:space="preserve">
<style type="text/css">
	.st0{fill:#333333;}
	.st1{fill:#F98749;}
</style>
<path class="st0" d="M267.2,260.2V115c0-7.9-6.4-14.3-14.3-14.3h-46.7v9.4h46.7c2.7,0,4.9,2.2,4.9,4.9v145.1H154.7v4.7h-18.8v-4.7
	H32.8V115c0-2.7,2.2-4.9,4.9-4.9h46.7v-9.4H37.7c-7.9,0-14.3,6.4-14.3,14.3v145.1H0v15.5c0,7,5.7,12.6,12.6,12.6H278
	c7,0,12.6-5.7,12.6-12.6v-15.5L267.2,260.2L267.2,260.2z M281.2,275.7c0,1.8-1.4,3.2-3.2,3.2H12.6c-1.8,0-3.2-1.5-3.2-3.2v-6.1
	h117.2v4.7h37.5v-4.7h117.2V275.7z"/>
<polygon class="st0" points="42.2,250.8 248.4,250.8 248.4,119.5 196.9,119.5 196.9,128.9 239.1,128.9 239.1,241.4 51.6,241.4 
	51.6,128.9 93.8,128.9 93.8,119.5 42.2,119.5 "/>
<rect x="140.6" y="2.3" class="st0" width="9.4" height="14.1"/>
<rect x="99.6" y="13.3" transform="matrix(0.866 -0.5001 0.5001 0.866 3.7954 54.8884)" class="st0" width="9.4" height="14.1"/>
<rect x="69.6" y="43.4" transform="matrix(0.5 -0.866 0.866 0.5 -6.5093 89.5159)" class="st0" width="9.4" height="14.1"/>
<rect x="56.2" y="86.7" class="st0" width="14.1" height="9.4"/>
<rect x="220.3" y="86.7" class="st0" width="14.1" height="9.4"/>
<path class="st1" d="M178.1,175.8h-70.3v-4.7c0-13.9-4.9-27.5-14.3-39.4c-10.9-14-15.6-31.4-13.3-49.2c3.9-29.3,28-53,57.4-56.3
	c18.7-2.1,37.4,3.8,51.3,16.2c13.9,12.4,21.9,30.3,21.9,49c0,15-4.9,29.1-14.3,40.8c-8.9,11.2-13.9,24.9-13.9,38.6v4.7L178.1,175.8z
	"/>
<path class="st0" d="M121.9,125.3v41.1h-14.1c-7.8,0-14.1,6.3-14.1,14.1c0,5,2.6,9.4,6.6,11.9c-1.2,2-1.9,4.4-1.9,6.9
	c0,5,2.6,9.4,6.6,11.9c-1.2,2-1.9,4.4-1.9,6.9c0,7.8,6.3,14.1,14.1,14.1h56.2c7.8,0,14.1-6.3,14.1-14.1c0-2.5-0.7-4.8-1.9-6.9
	c3.9-2.5,6.6-6.9,6.6-11.9c0-2.5-0.7-4.8-1.9-6.9c3.9-2.5,6.6-6.9,6.6-11.9c0-7.8-6.3-14.1-14.1-14.1h-14.1v-41.1
	c5.6-3.8,9.4-10.2,9.4-17.5c0-11.6-9.5-21.1-21.1-21.1h-23.4c-6.5,0-11.7-5.3-11.7-11.7c0-6.5,5.3-11.7,11.7-11.7H157
	c6.5,0,11.7,5.3,11.7,11.7v2.3h9.4V75c0-11.6-9.5-21.1-21.1-21.1h-7v-9.4h-9.4v9.4h-7c-11.6,0-21.1,9.5-21.1,21.1
	s9.5,21.1,21.1,21.1H157c6.5,0,11.7,5.3,11.7,11.7c0,6.5-5.3,11.7-11.7,11.7h-23.4c-6.5,0-11.7-5.3-11.7-11.7v-2.3h-9.4v2.3
	C112.5,115.1,116.2,121.5,121.9,125.3z M182.8,199.2c0,2.6-2.1,4.7-4.7,4.7h-4.7h-56.2h-4.7c-2.6,0-4.7-2.1-4.7-4.7
	c0-2.6,2.1-4.7,4.7-4.7h65.6C180.7,194.5,182.8,196.6,182.8,199.2z M173.4,222.7h-56.2c-2.6,0-4.7-2.1-4.7-4.7
	c0-2.6,2.1-4.7,4.7-4.7h56.2c2.6,0,4.7,2.1,4.7,4.7C178.1,220.6,176,222.7,173.4,222.7z M187.5,180.5c0,2.6-2.1,4.7-4.7,4.7h-4.7
	h-65.6h-4.7c-2.6,0-4.7-2.1-4.7-4.7c0-2.6,2.1-4.7,4.7-4.7h75C185.4,175.8,187.5,177.9,187.5,180.5z M140.6,128.9v9.4h9.4v-9.4h7
	c0.8,0,1.6-0.1,2.3-0.2v37.7h-28.1v-37.7c0.8,0.1,1.5,0.2,2.3,0.2H140.6z"/>
<rect x="209.3" y="45.7" transform="matrix(0.8661 -0.4999 0.4999 0.8661 3.7794 114.9039)" class="st0" width="14.1" height="9.4"/>
<rect x="179.3" y="15.7" transform="matrix(0.4999 -0.8661 0.8661 0.4999 75.5487 171.5583)" class="st0" width="14.1" height="9.4"/>
</svg>
