<?xml version="1.0" encoding="iso-8859-1"?>
<!-- Generator: Adobe Illustrator 16.0.0, SVG Export Plug-In . SVG Version: 6.00 Build 0)  -->
<!DOCTYPE svg PUBLIC "-//W3C//DTD SVG 1.1//EN" "http://www.w3.org/Graphics/SVG/1.1/DTD/svg11.dtd">
<svg xmlns="http://www.w3.org/2000/svg" xmlns:xlink="http://www.w3.org/1999/xlink" version="1.1" id="Capa_1" x="0px" y="0px" width="512px" height="512px" viewBox="0 0 792.001 792.002" style="enable-background:new 0 0 792.001 792.002;" xml:space="preserve">
<g>
	<path d="M698.115,333.523c-3.787-9.608-11.371-14.365-22.294-14.365h-212.06L569.129,32.7c4.589-12.406,0.606-21.827-9.617-28.823   c-9.029-6.156-22.247-4.757-29.728,2.612L99.099,431.093c-7.481,7.369-9.253,16.604-5.242,27.051   c3.862,10.074,11.371,14.925,22.293,14.925h212.06L222.842,759.9c-4.58,12.405-0.681,21.547,9.617,28.356   c6.763,4.57,20.447,6.529,30.604-3.451l429.809-424.604C700.344,352.832,702.201,343.971,698.115,333.523z M305.916,674.644   l79.576-217.339c3.041-8.302,2.183-16.23-2.621-22.761c-4.813-6.529-11.371-9.607-19.682-9.607H175.177l310.878-307.353   l-80.015,217.712c-2.77,7.556-1.548,14.738,3.06,21.454c5.019,7.276,11.371,10.914,19.683,10.914h188.012L305.916,674.644z" fill="#ff8a18"/>
</g>
<g>
</g>
<g>
</g>
<g>
</g>
<g>
</g>
<g>
</g>
<g>
</g>
<g>
</g>
<g>
</g>
<g>
</g>
<g>
</g>
<g>
</g>
<g>
</g>
<g>
</g>
<g>
</g>
<g>
</g>
</svg>
