<?xml version="1.0" encoding="utf-8"?>
<!-- Generator: Adobe Illustrator 20.1.0, SVG Export Plug-In . SVG Version: 6.00 Build 0)  -->
<svg version="1.1" id="Layer_1" xmlns="http://www.w3.org/2000/svg" xmlns:xlink="http://www.w3.org/1999/xlink" x="0px" y="0px"
	 viewBox="0 0 512 512" style="enable-background:new 0 0 512 512;" xml:space="preserve">
<style type="text/css">
	.st0{fill:#FF8A18;}
	.st1{fill:#333333;}
</style>
<path class="st0" d="M170.9,131.7c0,0,10.3,2.8,21.9-2.4c15.3-7.1,12.9-19.8,12.9-23.6l0,0c0-6.4,5.6-11.2,12-10.3l108,10.9
	c1.5,0.2,3,0.7,4.1,1.7l31.6,26.6c5.6,3.7,13.3,1.1,15.5-5.2L388.2,81c0.6-1.5-3-3-3.2-4.5l2.6-60.3c-0.6-5.2-5.1-1.7-10.3-1.7
	H205.9c-2.6,0-5.1-6.6-6.9-4.9l-43.6,38.7c-2.4,2.2-3.7,5.6-3.4,9l7.1,64.8C159.8,129.5,164.3,135.5,170.9,131.7z"/>
<g>
	<g>
		<path class="st1" d="M327.9,118.6c3.9,2.2,9,5.2,11.6,1.3c4.3-6.4,0.7-13.3-5.8-17.6c-2.1-1.3-47.9-30.5-126.2-15.7
			c-5.8,1.1-9.9,6.2-9.9,12v20.6c0,2.2,1.5,4.3,3.6,4.7c9.4,2.1,13.3-7.7,13.7-17.4l0,0c-0.2-2.8,1.9-5.4,4.7-5.8
			c28.4-3.2,57.1,0.2,71.5,3.9C291,104.8,312.9,109.6,327.9,118.6z"/>
	</g>
</g>
<g>
	<g>
		<path class="st1" d="M416.1,346.2l-67.6-32.4c-5.2-1.9-12-5.1-17.2-13.3c-1.7-2.8-2.6-6-2.6-9.4v-30.1c3-2.4,7.9-6.9,10.7-9.7
			c23.4-22.6,38-51.1,38-83.7v-26.8l7.5-15.2c5.1-10.3,7.5-28.1,7.5-39.5v-76c0-5.6-6.6-10.3-12.2-10.3H231.3
			c-54.7,0-87.4,33.5-86.5,88.9c0.2,15.3,4.1,30.5,11,44.2l3.9,8v22.3c0,38.6,24.3,70,46.8,94.5l-5.6,39.3c0,6.6-6,14.4-12.2,16.8
			l-76.9,32.4c-22.8,8.6-32.8,23.4-32.8,47.7v108.9c0,5.1,4.1,9.2,9,9c7.3-0.4,9.7-6.6,9.7-14V393.9c0-12.9,6.2-26.4,18.2-30.9
			l76.9-34.3c3.9-1.5,7.5-3.4,10.7-5.8l55.4,37.4v142.8c0,4.7,3.6,8.6,8.2,8.6c7.9,0.2,8.6-6.2,8.6-14V360.4l55.4-37.4
			c3.2,2.4,6.7,4.3,10.7,5.8l71.3,34.3c12,4.5,25.6,18,25.6,30.9v109.3c0,4.7,3.6,8.6,8.2,8.6c7.9,0.2,8.6-6.2,8.6-14V393.9
			C454.4,369.8,438.7,356.5,416.1,346.2z M267.8,345.3l-53.3-35.9c1.1-3.9,1.1-8,1.9-12.4l3.7-27.3c13.1,5.8,29.2,11,44.2,11.6
			c1.3,0,2.4,0,3.7,0c16.1,0,33.5-3.2,47.7-9.2V297c0.2,4.5,0.6,8.4,1.9,12.4L267.8,345.3z M331.3,233
			c-17.8,17.2-41.4,30.1-66.3,29.4c-48.7-1.5-88.2-47.9-88.2-99l-1.9-25.6c0-2.2-0.6-4.3-1.5-6.4l-5.4-11
			c-5.2-10.5-6.2-22.3-6.2-34.1c0-38.4,31.3-69.6,69.6-69.6h142.2v69.8c0,11.8-0.9,23.4-6.2,34.1l-5.4,11c-0.9,1.9-1.5,4.1-1.5,6.4
			l-1.9,29.9C358.8,192.5,349,215.8,331.3,233z"/>
	</g>
</g>
<g>
	<g>
		<path class="st1" d="M162.8,408.7c-7.7,0-8.4,6.4-8.4,14v75.1c0,7.7,0.7,14,8.4,14s8.4-6.4,8.4-14v-75.1
			C171.2,415.1,170.5,408.7,162.8,408.7z"/>
	</g>
</g>
<g>
	<g>
		<path class="st1" d="M372.8,408.7c-7.7,0-8.4,6.4-8.4,14v75.1c0,7.7,0.7,14,8.4,14s8.4-6.4,8.4-14v-75.1
			C381.2,415.1,380.7,408.7,372.8,408.7z"/>
	</g>
</g>
</svg>
