<?xml version="1.0" encoding="UTF-8" standalone="no"?>
<!-- Generator: Adobe Illustrator 20.1.0, SVG Export Plug-In . SVG Version: 6.00 Build 0)  -->

<svg
   xmlns:dc="http://purl.org/dc/elements/1.1/"
   xmlns:cc="http://creativecommons.org/ns#"
   xmlns:rdf="http://www.w3.org/1999/02/22-rdf-syntax-ns#"
   xmlns:svg="http://www.w3.org/2000/svg"
   xmlns="http://www.w3.org/2000/svg"
   xmlns:sodipodi="http://sodipodi.sourceforge.net/DTD/sodipodi-0.dtd"
   xmlns:inkscape="http://www.inkscape.org/namespaces/inkscape"
   version="1.1"
   id="Слой_1"
   x="0px"
   y="0px"
   viewBox="0 0 800 116"
   xml:space="preserve"
   inkscape:version="0.91 r13725"
   sodipodi:docname="min-logo.svg"
   width="800"
   height="116"><metadata
     id="metadata39"><rdf:RDF><cc:Work
         rdf:about=""><dc:format>image/svg+xml</dc:format><dc:type
           rdf:resource="http://purl.org/dc/dcmitype/StillImage" /><dc:title></dc:title></cc:Work></rdf:RDF></metadata><defs
     id="defs37" /><sodipodi:namedview
     pagecolor="#ffffff"
     bordercolor="#666666"
     borderopacity="1"
     objecttolerance="10"
     gridtolerance="10"
     guidetolerance="10"
     inkscape:pageopacity="0"
     inkscape:pageshadow="2"
     inkscape:window-width="1301"
     inkscape:window-height="744"
     id="namedview35"
     showgrid="false"
     inkscape:zoom="0.236"
     inkscape:cx="-123.58305"
     inkscape:cy="-413.8"
     inkscape:window-x="65"
     inkscape:window-y="24"
     inkscape:window-maximized="1"
     inkscape:current-layer="g5"
     fit-margin-top="0"
     fit-margin-left="0"
     fit-margin-right="0"
     fit-margin-bottom="0"
     showborder="true" /><style
     type="text/css"
     id="style3">
	.st0{fill:#FFFFFF;}
	.st1{fill:#FF8A18;}
</style><g
     id="g5"
     transform="translate(-142.3,-427.1)"><path
       class="st0"
       d="m 215.49831,504.8 c 0,6.2 -2.7,10.6 -8.1,13.1 l 8.1,21.3 0,2.7 -13,0 -8.3,-21.9 -4.9,0 0,22 -13.1,0 0,-70 19.7,0 c 11.8,0 19.7,4.9 19.7,15.3 l 0,17.5 z m -26.2,-20.8 0,24.1 6.6,0 c 4.4,0 6.6,-1.4 6.6,-4.4 l 0,-15.3 c 0,-3 -2.2,-4.4 -6.6,-4.4 l -6.6,0 z"
       id="path7"
       inkscape:connector-curvature="0"
       style="fill:#ffffff" /><path
       class="st0"
       d="m 267.59831,484 -24.1,0 0,17 21.9,0 0,12 -21.9,0 0,17 24.1,0 0,12 -37.2,0 0,-70 37.2,0 0,12 z"
       id="path9"
       inkscape:connector-curvature="0"
       style="fill:#ffffff" /><path
       class="st0"
       d="m 296.59831,542 -13.1,0 0,-70 37.2,0 0,12 -24.1,0 0,17 21.9,0 0,12 -21.9,0 0,29 z"
       id="path11"
       inkscape:connector-curvature="0"
       style="fill:#ffffff" /><path
       class="st0"
       d="m 375.49831,526.7 c 0,10.9 -6.9,16.4 -20.8,16.4 -13.9,0 -20.8,-5.5 -20.8,-16.4 l 0,-39.4 c 0,-10.9 6.9,-16.4 20.8,-16.4 13.9,0 20.8,5.5 20.8,16.4 l 0,39.4 z m -13.1,-39.4 c 0,-3 -2.5,-4.4 -7.7,-4.4 -5.1,0 -7.7,1.4 -7.7,4.4 l 0,39.4 c 0,3 2.5,4.4 7.7,4.4 5.1,0 7.7,-1.4 7.7,-4.4 l 0,-39.4 z"
       id="path13"
       inkscape:connector-curvature="0"
       style="fill:#ffffff" /><path
       class="st0"
       d="m 430.29831,504.8 c 0,6.2 -2.7,10.6 -8.1,13.1 l 8.1,21.3 0,2.7 -13,0 -8.3,-21.9 -4.9,0 0,22 -13.2,0 0,-70 19.7,0 c 11.8,0 19.7,4.9 19.7,15.3 l 0,17.5 z m -26.3,-20.8 0,24.1 6.6,0 c 4.4,0 6.6,-1.4 6.6,-4.4 l 0,-15.3 c 0,-3 -2.2,-4.4 -6.6,-4.4 l -6.6,0 z"
       id="path15"
       inkscape:connector-curvature="0"
       style="fill:#ffffff" /><path
       class="st0"
       d="m 490.49831,470.9 2.7,0 0,71.1 -13.1,0 0,-30.1 -9.6,19.1 -2.7,0 -9.5,-19.1 0,30.1 -13.1,0 0,-71.1 2.7,0 21.3,42.7 21.3,-42.7 z"
       id="path17"
       inkscape:connector-curvature="0"
       style="fill:#ffffff" /><path
       class="st0"
       d="m 541.89831,472 10.5,67.3 0,2.7 -12.9,0 -2.5,-16.4 -15.1,0 -2.6,16.4 -12.8,0 0,-2.7 10.5,-67.3 24.9,0 z m -18.2,41.6 11.4,0 -4.6,-29.5 -2.2,0 -4.6,29.5 z"
       id="path19"
       inkscape:connector-curvature="0"
       style="fill:#ffffff" /><path
       class="st0"
       d="m 602.79831,472 0,12 -14.2,0 0,58 -13.1,0 0,-58 -14.2,0 0,-12 41.5,0 z"
       id="path21"
       inkscape:connector-curvature="0"
       style="fill:#ffffff" /><path
       class="st0"
       d="m 655.39831,526.7 c 0,10.9 -6.9,16.4 -20.8,16.4 -13.9,0 -20.8,-5.5 -20.8,-16.4 l 0,-39.4 c 0,-10.9 6.9,-16.4 20.8,-16.4 13.9,0 20.8,5.5 20.8,16.4 l 0,39.4 z m -13.1,-39.4 c 0,-3 -2.5,-4.4 -7.7,-4.4 -5.1,0 -7.7,1.4 -7.7,4.4 l 0,39.4 c 0,3 2.5,4.4 7.7,4.4 5.1,0 7.7,-1.4 7.7,-4.4 l 0,-39.4 z"
       id="path23"
       inkscape:connector-curvature="0"
       style="fill:#ffffff" /><path
       class="st0"
       d="m 710.19831,504.8 c 0,6.2 -2.7,10.6 -8.1,13.1 l 8.1,21.3 0,2.7 -13,0 -8.3,-21.9 -5,0 0,22 -13.1,0 0,-70 19.7,0 c 11.8,0 19.7,4.9 19.7,15.3 l 0,17.5 z m -26.3,-20.8 0,24.1 6.6,0 c 4.4,0 6.6,-1.4 6.6,-4.4 l 0,-15.3 c 0,-3 -2.2,-4.4 -6.6,-4.4 l -6.6,0 z"
       id="path25"
       inkscape:connector-curvature="0"
       style="fill:#ffffff" /><path
       class="st0"
       d="m 724.99831,524.5 13.1,0 0,17.5 -13.1,0 0,-17.5 z"
       id="path27"
       inkscape:connector-curvature="0"
       style="fill:#ffffff" /><path
       class="st0"
       d="m 795.09831,526.7 c 0,10.9 -6.9,16.4 -20.8,16.4 -13.9,0 -20.8,-5.5 -20.8,-16.4 l 0,-39.4 c 0,-10.9 6.9,-16.4 20.8,-16.4 13.9,0 20.8,5.5 20.8,16.4 l 0,39.4 z m -13.1,-39.4 c 0,-3 -2.5,-4.4 -7.7,-4.4 -5.1,0 -7.7,1.4 -7.7,4.4 l 0,39.4 c 0,3 2.5,4.4 7.7,4.4 5.1,0 7.7,-1.4 7.7,-4.4 l 0,-39.4 z"
       id="path29"
       inkscape:connector-curvature="0"
       style="fill:#ffffff" /><path
       class="st0"
       d="m 905.79831,484 -24.1,0 0,17 21.9,0 0,12 -21.9,0 0,17 24.1,0 0,12 -37.2,0 0,-70 37.2,0 0,12 z"
       id="path31"
       inkscape:connector-curvature="0"
       style="fill:#ffffff" /><polygon
       class="st1"
       points="794.1,455.6 805,455.6 805.1,509.2 779.3,470.9 776.6,470.9 776.6,542 789.7,542 789.7,504.8 815.4,543.1 818.2,543.1 818.2,455.6 829.1,455.6 811.8,427.1 "
       id="polygon33"
       style="fill:#ff8a18"
       transform="translate(33.898305,0)" /></g></svg>