<?xml version="1.0" encoding="utf-8"?>
<!-- Generator: Adobe Illustrator 20.1.0, SVG Export Plug-In . SVG Version: 6.00 Build 0)  -->
<svg version="1.1" id="Слой_1" xmlns="http://www.w3.org/2000/svg" xmlns:xlink="http://www.w3.org/1999/xlink" x="0px" y="0px"
	 viewBox="0 0 1000 1000" style="enable-background:new 0 0 1000 1000;" xml:space="preserve">
<style type="text/css">
	.st0{fill:#FFFFFF;}
	.st1{fill:#FF8A18;}
</style>
<g>
	<path class="st0" d="M181.6,504.8c0,6.2-2.7,10.6-8.1,13.1l8.1,21.3v2.7h-13l-8.3-21.9h-4.9V542h-13.1v-70h19.7
		c11.8,0,19.7,4.9,19.7,15.3V504.8z M155.4,484v24.1h6.6c4.4,0,6.6-1.4,6.6-4.4v-15.3c0-3-2.2-4.4-6.6-4.4H155.4z"/>
	<path class="st0" d="M233.7,484h-24.1v17h21.9v12h-21.9v17h24.1v12h-37.2v-70h37.2V484z"/>
	<path class="st0" d="M262.7,542h-13.1v-70h37.2v12h-24.1v17h21.9v12h-21.9V542z"/>
	<path class="st0" d="M341.6,526.7c0,10.9-6.9,16.4-20.8,16.4c-13.9,0-20.8-5.5-20.8-16.4v-39.4c0-10.9,6.9-16.4,20.8-16.4
		c13.9,0,20.8,5.5,20.8,16.4V526.7z M328.5,487.3c0-3-2.5-4.4-7.7-4.4c-5.1,0-7.7,1.4-7.7,4.4v39.4c0,3,2.5,4.4,7.7,4.4
		c5.1,0,7.7-1.4,7.7-4.4V487.3z"/>
	<path class="st0" d="M396.4,504.8c0,6.2-2.7,10.6-8.1,13.1l8.1,21.3v2.7h-13l-8.3-21.9h-4.9V542H357v-70h19.7
		c11.8,0,19.7,4.9,19.7,15.3V504.8z M370.1,484v24.1h6.6c4.4,0,6.6-1.4,6.6-4.4v-15.3c0-3-2.2-4.4-6.6-4.4H370.1z"/>
	<path class="st0" d="M456.6,470.9h2.7V542h-13.1v-30.1l-9.6,19.1h-2.7l-9.5-19.1V542h-13.1v-71.1h2.7l21.3,42.7L456.6,470.9z"/>
	<path class="st0" d="M508,472l10.5,67.3v2.7h-12.9l-2.5-16.4H488l-2.6,16.4h-12.8v-2.7l10.5-67.3H508z M489.8,513.6h11.4l-4.6-29.5
		h-2.2L489.8,513.6z"/>
	<path class="st0" d="M568.9,472v12h-14.2v58h-13.1v-58h-14.2v-12H568.9z"/>
	<path class="st0" d="M621.5,526.7c0,10.9-6.9,16.4-20.8,16.4c-13.9,0-20.8-5.5-20.8-16.4v-39.4c0-10.9,6.9-16.4,20.8-16.4
		c13.9,0,20.8,5.5,20.8,16.4V526.7z M608.4,487.3c0-3-2.5-4.4-7.7-4.4c-5.1,0-7.7,1.4-7.7,4.4v39.4c0,3,2.5,4.4,7.7,4.4
		c5.1,0,7.7-1.4,7.7-4.4V487.3z"/>
	<path class="st0" d="M676.3,504.8c0,6.2-2.7,10.6-8.1,13.1l8.1,21.3v2.7h-13l-8.3-21.9H650V542h-13.1v-70h19.7
		c11.8,0,19.7,4.9,19.7,15.3V504.8z M650,484v24.1h6.6c4.4,0,6.6-1.4,6.6-4.4v-15.3c0-3-2.2-4.4-6.6-4.4H650z"/>
	<path class="st0" d="M691.1,524.5h13.1V542h-13.1V524.5z"/>
	<path class="st0" d="M761.2,526.7c0,10.9-6.9,16.4-20.8,16.4c-13.9,0-20.8-5.5-20.8-16.4v-39.4c0-10.9,6.9-16.4,20.8-16.4
		c13.9,0,20.8,5.5,20.8,16.4V526.7z M748.1,487.3c0-3-2.5-4.4-7.7-4.4c-5.1,0-7.7,1.4-7.7,4.4v39.4c0,3,2.5,4.4,7.7,4.4
		c5.1,0,7.7-1.4,7.7-4.4V487.3z"/>
	<path class="st0" d="M871.9,484h-24.1v17h21.9v12h-21.9v17h24.1v12h-37.2v-70h37.2V484z"/>
	<polygon class="st1" points="829.1,455.6 811.8,427.1 794.1,455.6 805,455.6 805.1,509.2 779.3,470.9 776.6,470.9 776.6,542 
		789.7,542 789.7,504.8 815.4,543.1 818.2,543.1 818.2,455.6 	"/>
</g>
</svg>
