<?xml version="1.0" encoding="utf-8"?>
<!-- Generator: Adobe Illustrator 20.1.0, SVG Export Plug-In . SVG Version: 6.00 Build 0)  -->
<svg version="1.1" id="Layer_1" xmlns="http://www.w3.org/2000/svg" xmlns:xlink="http://www.w3.org/1999/xlink" x="0px" y="0px"
	 viewBox="0 0 290.6 290.6" style="enable-background:new 0 0 290.6 290.6;" xml:space="preserve">
<style type="text/css">
	.st0{fill:#F98749;}
	.st1{fill:#333333;}
</style>
<path class="st0" d="M210.9,117.2c-2.6,0-4.7-2.1-4.7-4.7v-4.7H75v4.7c0,2.6-2.1,4.7-4.7,4.7h-4.7v46.9h4.7c2.6,0,4.7,2.1,4.7,4.7
	v4.7h131.2v-4.7c0-2.6,2.1-4.7,4.7-4.7h4.7v-46.9H210.9z M140.6,168.7c-15.5,0-28.1-12.6-28.1-28.1s12.6-28.1,28.1-28.1
	s28.1,12.6,28.1,28.1S156.2,168.7,140.6,168.7z"/>
<path class="st1" d="M145.3,108.2v-5.1h-9.4v5.1c-15.9,2.3-28.1,15.9-28.1,32.4c0,18.1,14.7,32.8,32.8,32.8s32.8-14.7,32.8-32.8
	C173.4,124.1,161.2,110.5,145.3,108.2z M140.6,164.1c-12.9,0-23.4-10.5-23.4-23.4s10.5-23.4,23.4-23.4s23.4,10.5,23.4,23.4
	S153.5,164.1,140.6,164.1z"/>
<rect x="135.9" y="131.2" class="st1" width="9.4" height="9.4"/>
<rect x="135.9" y="70.3" class="st1" width="9.4" height="14.1"/>
<polygon class="st1" points="145.3,51.6 150,51.6 150,42.2 135.9,42.2 135.9,56.2 145.3,56.2 "/>
<rect x="196.9" y="42.2" class="st1" width="18.8" height="9.4"/>
<rect x="164.1" y="42.2" class="st1" width="18.8" height="9.4"/>
<path class="st1" d="M257.8,70.3c12.9,0,23.4-10.5,23.4-23.4s-10.5-23.4-23.4-23.4c-11.3,0-20.8,8.1-23,18.8h-5.2v9.4h5.2
	C237,62.2,246.5,70.3,257.8,70.3z M257.8,32.8c7.8,0,14.1,6.3,14.1,14.1s-6.3,14.1-14.1,14.1c-7.8,0-14.1-6.3-14.1-14.1
	S250.1,32.8,257.8,32.8z"/>
<polygon class="st1" points="135.9,262.5 131.3,262.5 131.3,271.9 145.3,271.9 145.3,257.8 135.9,257.8 "/>
<rect x="98.4" y="262.5" class="st1" width="18.8" height="9.4"/>
<rect x="65.6" y="262.5" class="st1" width="18.8" height="9.4"/>
<path class="st1" d="M23.4,243.7C10.5,243.7,0,254.3,0,267.2c0,12.9,10.5,23.4,23.4,23.4c11.3,0,20.8-8.1,23-18.8h5.2v-9.4h-5.2
	C44.2,251.8,34.8,243.7,23.4,243.7z M23.4,281.2c-7.8,0-14.1-6.3-14.1-14.1s6.3-14.1,14.1-14.1s14.1,6.3,14.1,14.1
	S31.2,281.2,23.4,281.2z"/>
<path class="st1" d="M267.2,243.7c-11.3,0-20.8,8.1-23,18.8h-42.7v-32.8h70.3V126.6h-18.8v-18.8h-18.8V89.1H79.7V18.7H46.4
	C44.2,8.1,34.8,0,23.4,0C10.5,0,0,10.5,0,23.4s10.5,23.4,23.4,23.4c11.3,0,20.8-8.1,23-18.8h23.9v60.9H46.9v103.1h18.8v18.8h18.8
	v18.8h51.6v14.1h9.4v-14.1h46.9v42.2h52c2.2,10.7,11.6,18.8,23,18.8c12.9,0,23.4-10.5,23.4-23.4
	C290.6,254.3,280.1,243.7,267.2,243.7z M23.4,37.5c-7.8,0-14.1-6.3-14.1-14.1S15.7,9.4,23.4,9.4s14.1,6.3,14.1,14.1
	S31.2,37.5,23.4,37.5z M56.3,98.4H225v84.4H56.3V98.4z M75,192.2h159.4v-75h9.4v84.4h-98.4h-9.4H75V192.2z M93.8,210.9h42.2h9.4
	h107.8v-75h9.4v84.4H93.8V210.9z M267.2,281.2c-7.8,0-14.1-6.3-14.1-14.1s6.3-14.1,14.1-14.1s14.1,6.3,14.1,14.1
	S274.9,281.2,267.2,281.2z"/>
</svg>
