<?xml version="1.0" encoding="utf-8"?>
<!-- Generator: Adobe Illustrator 20.1.0, SVG Export Plug-In . SVG Version: 6.00 Build 0)  -->
<svg version="1.1" id="Layer_1" xmlns="http://www.w3.org/2000/svg" xmlns:xlink="http://www.w3.org/1999/xlink" x="0px" y="0px"
	 viewBox="0 0 225.9 225.9" style="enable-background:new 0 0 225.9 225.9;" xml:space="preserve">
<style type="text/css">
	.st0{fill:#FF8A18;}
	.st1{fill:#333333;}
</style>
<title>оплата</title>
<path class="st0" d="M83.8,211.3h-51v-3.6c0-8.1-6.5-14.6-14.6-14.6h-3.7V94.7H102v98.4h-3.6c-8,0-14.6,6.5-14.6,14.6V211.3z"/>
<path class="st1" d="M142.1,102c6,0,10.9-4.9,10.9-10.9V10.9c0-6-4.9-10.9-10.9-10.9H10.9C4.9,0,0,4.9,0,10.9v215h116.6V102H142.1z
	 M145.8,36.4H7.3V25.5h138.5L145.8,36.4z M10.9,7.3h131.2c2,0,3.6,1.6,3.6,3.6v7.3H7.3v-7.3C7.3,8.9,8.9,7.3,10.9,7.3z M7.3,43.7
	h138.5v47.4c0,2-1.6,3.6-3.6,3.6H10.9c-2,0-3.6-1.6-3.6-3.6V43.7z M83.8,123.9c0,14.1-11.4,25.5-25.4,25.6
	c-14.1,0-25.5-11.4-25.6-25.4c0-9,4.7-17.4,12.5-22h26.1C79.1,106.6,83.8,114.9,83.8,123.9z M109.3,218.6H7.3V101.4
	c1.2,0.4,2.4,0.7,3.6,0.7H34c-12.1,13.4-11.1,34.2,2.3,46.3s34.2,11.1,46.3-2.3c11.3-12.5,11.3-31.5,0-44h26.7L109.3,218.6
	L109.3,218.6z"/>
<path class="st1" d="M109.3,87.5c2.6,0,5.1-0.7,7.3-2c2.2,1.3,4.7,2,7.3,2c8-0.2,14.4-6.9,14.2-15c-0.2-7.8-6.4-14-14.2-14.2
	c-2.6,0-5.1,0.7-7.3,2c-2.2-1.3-4.7-2-7.3-2c-8-0.2-14.7,6.1-15,14.2c-0.2,8,6.1,14.7,14.2,15C108.8,87.5,109.1,87.5,109.3,87.5z
	 M131.2,72.9c0,4-3.3,7.3-7.3,7.3s-7.3-3.3-7.3-7.3c0-4,3.3-7.3,7.3-7.3h0C127.9,65.6,131.2,68.9,131.2,72.9L131.2,72.9z
	 M109.3,65.6c0.6,0,1.3,0.1,1.9,0.3c-2.5,4.3-2.5,9.7,0,14c-0.6,0.2-1.2,0.3-1.9,0.3c-4,0-7.3-3.3-7.3-7.3
	C102,68.9,105.3,65.6,109.3,65.6L109.3,65.6z"/>
<path class="st1" d="M174.9,123.9c-28.2,0-51,22.8-51,51s22.8,51,51,51s51-22.8,51-51C225.9,146.7,203.1,123.9,174.9,123.9z
	 M174.9,218.6c-24.2,0-43.7-19.6-43.7-43.7c0-24.2,19.6-43.7,43.7-43.7c24.2,0,43.7,19.6,43.7,43.7c0,0,0,0,0,0
	C218.6,199.1,199.1,218.6,174.9,218.6z"/>
<path class="st1" d="M180.4,145.8h-1.8v-7.3h-7.3v7.3h-1.8c-9.1,0-16.4,7.3-16.4,16.4c0,9.1,7.3,16.4,16.4,16.4h10.9
	c5,0,9.1,4.1,9.1,9.1c0,5-4.1,9.1-9.1,9.1h-10.9c-5,0-9.1-4.1-9.1-9.1v-1.8h-7.3v1.8c0,9.1,7.3,16.4,16.4,16.4h1.8v7.2h7.3V204h1.8
	c9.1,0,16.4-7.3,16.4-16.4c0-9.1-7.3-16.4-16.4-16.4l0,0h-10.9c-5,0-9.1-4.1-9.1-9.1s4.1-9.1,9.1-9.1h10.9c5,0,9.1,4.1,9.1,9.1v1.8
	h7.3v-1.8C196.7,153.1,189.4,145.8,180.4,145.8z"/>
<polygon class="st1" points="171.3,18.2 171.3,94.7 178.6,94.7 178.6,18.2 182.9,24 188.8,19.7 174.9,1.2 161.1,19.7 166.9,24 "/>
<rect x="171.3" y="102" class="st1" width="7.3" height="10.9"/>
<polygon class="st1" points="207.7,40.1 207.7,105.7 215,105.7 215,40.1 219.4,45.9 225.2,41.5 211.4,23.1 197.5,41.5 203.3,45.9 
	"/>
<rect x="207.7" y="113" class="st1" width="7.3" height="10.9"/>
</svg>
