<?xml version="1.0" encoding="utf-8"?>
<!-- Generator: Adobe Illustrator 20.1.0, SVG Export Plug-In . SVG Version: 6.00 Build 0)  -->
<svg version="1.1" id="Layer_1" xmlns="http://www.w3.org/2000/svg" xmlns:xlink="http://www.w3.org/1999/xlink" x="0px" y="0px"
	 viewBox="0 0 295.2 295.2" style="enable-background:new 0 0 295.2 295.2;" xml:space="preserve">
<style type="text/css">
	.st0{fill:#FF8A18;}
	.st1{fill:#333333;}
</style>
<path class="st0" d="M171.4,95.2h-47.6V67.8c-9-7.2-14.3-18.1-14.3-29.7c0-21,17.1-38.1,38.1-38.1s38.1,17.1,38.1,38.1
	c0,11.6-5.3,22.5-14.3,29.7L171.4,95.2L171.4,95.2z"/>
<path class="st1" d="M176.6,70.8l-23.8,0.5l-0.4-19.9c5.5-2.1,9.4-7.4,9.2-13.6c-0.2-7.9-6.7-14.1-14.6-14
	c-7.9,0.2-14.1,6.7-14,14.6c0.1,6.2,4.2,11.4,9.8,13.2l0.4,19.9L119.5,72l0.2,9.5l57.1-1.2L176.6,70.8L176.6,70.8z M147.2,33.3
	c2.6-0.1,4.8,2,4.9,4.7s-2,4.8-4.7,4.9c-2.6,0.1-4.8-2-4.9-4.7C142.5,35.6,144.6,33.4,147.2,33.3z"/>
<path class="st1" d="M189.5,205.5l-5.2,8c15.8,10.2,25.2,27.4,25.2,46.1v26.1h-59.2l34.7-59.5l-8.2-4.8l-29.2,50.1l-29.2-50.1
	l-8.2,4.8l34.7,59.5H85.7v-26.1c0-18.7,9.4-35.9,25.2-46.1l-5.2-8c-18.5,11.9-29.6,32.2-29.6,54.1v35.6H219v-35.6
	C219,237.7,208,217.5,189.5,205.5z"/>
<path class="st1" d="M94.8,162.1c0,29,23.6,52.6,52.6,52.6s52.6-23.6,52.6-52.6s-23.6-52.6-52.6-52.6S94.8,133.1,94.8,162.1z
	 M190.4,162.1c0,23.7-19.3,43-43,43s-43-19.3-43-43s19.3-43,43-43S190.4,138.4,190.4,162.1z"/>
<path class="st1" d="M83,179.6c-3.9,1.1-7.9,1.7-11.9,1.7c-23.7,0-43-19.3-43-43s19.3-43,43-43c13,0,25.1,5.8,33.3,15.8l7.4-6
	c-10-12.3-24.9-19.3-40.7-19.3c-29,0-52.6,23.6-52.6,52.6S42.1,191,71.1,191c4.8,0,9.7-0.7,14.5-2.1L83,179.6z"/>
<path class="st1" d="M9.5,235.8c0-18.7,9.4-35.9,25.2-46.1l-5.2-8C11,193.6,0,213.9,0,235.8v35.6h61.9v-9.5H9.5V235.8z"/>
<path class="st1" d="M276.1,138.3c0-29-23.6-52.6-52.6-52.6c-15.8,0-30.7,7-40.7,19.3l7.4,6c8.2-10.1,20.4-15.8,33.3-15.8
	c23.7,0,43,19.3,43,43s-19.3,43-43,43c-3.9,0-7.9-0.6-11.9-1.7l-2.6,9.2c4.8,1.4,9.7,2.1,14.5,2.1
	C252.5,190.9,276.1,167.3,276.1,138.3z"/>
<path class="st1" d="M265.7,181.7l-5.2,8c15.8,10.2,25.2,27.4,25.2,46.1v26.1h-47.6l0,0h-9.5v9.5h66.7v-35.6
	C295.2,213.9,284.2,193.6,265.7,181.7z"/>
</svg>
