<?xml version="1.0" encoding="UTF-8" standalone="no"?>
<!-- Generator: Adobe Illustrator 20.1.0, SVG Export Plug-In . SVG Version: 6.00 Build 0)  -->

<svg
   xmlns:dc="http://purl.org/dc/elements/1.1/"
   xmlns:cc="http://creativecommons.org/ns#"
   xmlns:rdf="http://www.w3.org/1999/02/22-rdf-syntax-ns#"
   xmlns:svg="http://www.w3.org/2000/svg"
   xmlns="http://www.w3.org/2000/svg"
   xmlns:sodipodi="http://sodipodi.sourceforge.net/DTD/sodipodi-0.dtd"
   xmlns:inkscape="http://www.inkscape.org/namespaces/inkscape"
   version="1.1"
   x="0px"
   y="0px"
   viewBox="0 0 800 800"
   style="enable-background:new 0 0 800 800;"
   xml:space="preserve"
   id="svg2"
   inkscape:version="0.91 r13725"
   sodipodi:docname="pig.svg"><metadata
     id="metadata340"><rdf:RDF><cc:Work
         rdf:about=""><dc:format>image/svg+xml</dc:format><dc:type
           rdf:resource="http://purl.org/dc/dcmitype/StillImage" /><dc:title></dc:title></cc:Work></rdf:RDF></metadata><defs
     id="defs338" /><sodipodi:namedview
     pagecolor="#ffffff"
     bordercolor="#666666"
     borderopacity="1"
     objecttolerance="10"
     gridtolerance="10"
     guidetolerance="10"
     inkscape:pageopacity="0"
     inkscape:pageshadow="2"
     inkscape:window-width="1366"
     inkscape:window-height="705"
     id="namedview336"
     showgrid="false"
     inkscape:zoom="0.834386"
     inkscape:cx="359.23275"
     inkscape:cy="364.34586"
     inkscape:window-x="0"
     inkscape:window-y="30"
     inkscape:window-maximized="1"
     inkscape:current-layer="g184" /><style
     type="text/css"
     id="style4">
	@font-face{
		font-family:'Gubia-Black'; 
		src: url('/fonts/GubiaBlack.eot');
		src: local('☺'), url('/fonts/GubiaBlack.woff') format('woff'), url('/fonts/GubiaBlack.ttf') format('truetype'), url('/fonts/GubiaBlack.svg') format('svg');
	}
	
	.st0{fill:#84D1C8;}
	.st1{opacity:0.3;fill:#DBAB65;}
	.st2{opacity:0.6;fill:#EAD5CA;}
	.st3{fill:#D6A792;}
	.st4{fill:#DDB19B;}
	.st5{fill:#E8BEA7;}
	.st6{fill:#E87A77;}
	.st7{fill:#F38D86;}
	.st8{fill:#D1625A;}
	.st9{fill:#333333;}
	.st10{opacity:0.15;}
	.st11{fill:#93471C;}
	.st12{fill:#E08947;}
	.st13{fill:#FCD682;}
	.st14{fill:#D98736;}
	.st15{font-family:'Gubia-Black';}
	.st16{font-size:45.9226px;}
	.st17{fill:#F4D4C6;}
	.st18{opacity:8.000000e-02;}
	.st19{fill:#FFFFFF;}
	.st20{fill:#4D5C6A;}
	.st21{fill:#5B6A75;}
	.st22{fill:#F19238;}
	.st23{fill:#FDC65C;}
</style><g
     id="Background"><path
       class="st0"
       d="M377.4,454.5"
       id="path7" /></g><g
     id="Objects"><ellipse
       class="st1"
       cx="398.6"
       cy="666.6"
       rx="107.1"
       ry="18.4"
       id="ellipse10" /><path
       class="st2"
       d="M364.4,238.9c0,0-2.8-1.9-5.4-4c0.4,0.4,0.8,0.8,1.3,1.1c0.8,0.7,2.3,1.9,3.8,3.1c0.2,0,0.5-0.1,0.7-0.1   L364.4,238.9z"
       id="path12" /><path
       class="st3"
       d="M364.7,239c2.4-0.4,5-0.4,7.6-0.3c0-0.2,0-0.4-0.1-0.6c-0.7-3-6-9-9.3-9.3c-3.3-0.3-7.1,2.9-7.1,2.9   s1.3,1.5,3.2,3.2c2.6,2.1,5.4,4,5.4,4L364.7,239z"
       id="path14" /><path
       class="st4"
       d="M354.2,251.6c0.7,1.4,2,2.7,3.7,4C356.5,254.4,355.3,253.1,354.2,251.6z"
       id="path16" /><path
       class="st2"
       d="M370.8,262.1c0,0,0-0.1,0-0.1c-5-1.8-9.7-4-12.9-6.4C363.6,260.5,370.8,262.1,370.8,262.1z"
       id="path18" /><path
       class="st2"
       d="M354.1,251.5C354.1,251.5,354.2,251.5,354.1,251.5C354.2,251.5,354.2,251.5,354.1,251.5   C354.1,251.5,354.1,251.5,354.1,251.5z"
       id="path20" /><path
       class="st4"
       d="M361.3,249.8c-1.6-0.3-7,1.6-7.1,1.7c0,0,0,0,0,0.1c1.1,1.5,2.3,2.8,3.7,4c3.3,2.5,8,4.6,12.9,6.4   C371.9,257,361.3,249.8,361.3,249.8z"
       id="path22" /><path
       class="st2"
       d="M403.9,310c-2.5,0.5-4.6,0.4-6.5-0.1c1.2,0.5,2.5,0.8,3.9,0.8c3.4,0,6.4-1.8,8.1-4.5   C406.4,309.5,403.9,310,403.9,310z"
       id="path24" /><path
       class="st5"
       d="M410.8,289h-19v12.3c0,3.8,2.3,7.1,5.6,8.6c1.9,0.5,4,0.5,6.5,0.1c0,0,2.6-0.6,5.5-3.8   c0.9-1.4,1.4-3.1,1.4-4.9V289z"
       id="path26" /><g
       id="g28"><g
         id="g30"><g
           id="g32"><polyline
             class="st6"
             points="423.6,662.3 423.6,662.3 420.2,630.9 420.2,630.9 439.5,630.3 439.5,630.3 437,661.9     "
             id="polyline34" /><polyline
             class="st6"
             points="322.1,661.6 322.1,661.6 318.5,620.9 318.5,620.9 337.8,620.3 337.8,620.3 335.6,661.1     "
             id="polyline36" /></g><g
           id="g38"><polyline
             class="st7"
             points="444.5,670.5 444.5,670.5 439.3,621.5 439.3,621.5 469.4,620.6 469.4,620.6 465.4,669.8     "
             id="polyline40" /><polyline
             class="st7"
             points="342.2,670.5 342.2,670.5 337,621.5 337,621.5 367.1,620.6 367.1,620.6 363.2,669.8     "
             id="polyline42" /></g></g><g
         id="g44"><path
           class="st7"
           d="M507.7,547.3c5.1,54.8-40.3,103.8-101.5,109.5c-61.2,5.7-114.9-34-120-88.8     c-5.1-54.8,40.3-103.7,101.5-109.5C448.8,452.8,502.6,492.6,507.7,547.3z"
           id="path46" /><path
           class="st7"
           d="M489.5,568.5c-0.2-1.7,0.5-3.5,1.5-4.9c1-1.4,2.3-2.6,3.7-3.7c1.4-1,2.8-1.9,4.3-2.7c1.5-0.8,3-1.5,4.6-2.1     c1.6-0.6,3.2-1.2,4.8-1.6c1.6-0.5,3.3-0.8,5-1.1c1.7-0.3,3.5-0.5,5.4-0.4c1,0,2,0.1,3.1,0.3c0.6,0.2,0.8,0.1,1.4,0.3     c0.5,0.2,1,0.3,1.4,0.5c1.8,0.7,3.6,1.6,5.2,2.8c1.7,1.2,3.4,2.8,4.5,5.5c0.5,1.4,0.8,3.2,0.3,5c-0.4,1.7-1.4,3.1-2.4,4.1     c-0.9,1-2,1.7-2.7,2.1c-1.2,0.7-2.3,1.1-3.6,1.5c-1.3,0.3-2.8,0.4-4.4,0c-1.5-0.3-2.9-1.1-4-2c-2.2-1.9-3.2-4.2-3.7-6.4     c-0.5-2.2-0.4-4.5,0.1-6.6c0.5-2.2,1.7-4.3,3.4-5.9l-0.2,0.2c1.8-2,4-3.4,6.3-4.3c1.1-0.5,2.3-0.8,3.4-1.1     c1.1-0.3,2.3-0.4,3.4-0.5c1.1-0.1,2.3-0.1,3.4,0c1.1,0.1,2.2,0.2,3.3,0.5c2.2,0.5,4.3,1.3,6.1,2.5l0,0c0.1,0.1,0.1,0.2,0.1,0.3     c-0.1,0.1-0.2,0.1-0.3,0.1c-1.9-0.7-4-1.1-6-1.2c-2.1-0.1-4.1,0-6.1,0.4c-2,0.4-4,1-5.8,2c-1.8,0.9-3.5,2.2-4.7,3.8l0,0l0,0     c-1,1.1-1.7,2.5-2,4.1c-0.3,1.5-0.2,3.1,0.1,4.6c0.4,1.5,1.1,2.9,2.3,3.8c1.1,1,2.7,1.3,4.1,0.9c0.7-0.2,1.4-0.5,2.1-0.9     c0.7-0.4,1.3-0.8,1.8-1.3c0.5-0.5,0.9-1.1,1.1-1.8c0.2-0.7,0.1-1.4-0.1-2.1c-0.5-1.4-1.6-2.6-2.8-3.5c-1.2-1-2.6-1.8-4-2.4     c-0.7-0.3-1.5-0.6-2.2-0.8c-0.7-0.2-1.5-0.3-2.3-0.4c-1.6-0.1-3.2,0-4.7,0.1c-3.2,0.3-6.3,1-9.4,1.9c-3,0.9-6,2.1-8.8,3.7     c-1.4,0.8-2.7,1.7-3.7,2.9c-1.1,1.1-1.9,2.5-2,4.1c0,0.1-0.1,0.2-0.3,0.2C489.6,568.7,489.5,568.7,489.5,568.5L489.5,568.5z"
           id="path48" /><path
           class="st8"
           d="M366.4,473c0,0,29.8-10.5,65.8-0.5l-0.6,8.6c0,0-29.2-9.8-64.9,0.6L366.4,473z"
           id="path50" /></g><g
         id="g52"><g
           id="g54"><path
             class="st7"
             d="M301.9,512.9c0,0-13.1-32.9-4.2-35.8c8.9-3,27,8.5,27,8.5"
             id="path56" /><path
             class="st8"
             d="M354.8,520.9c0,0-12.6-28.8-6.8-31.7c5.8-2.9,25.3,4.7,34,9.1C382,498.2,359.8,506.3,354.8,520.9z"
             id="path58" /></g><g
           id="g60"><path
             class="st9"
             d="M312.4,537.8c0.1,2.3-1.8,4.3-4.1,4.4l0,0c-2.3,0.1-4.3-1.8-4.4-4.1l-0.3-8.4c-0.1-2.3,1.8-4.3,4.1-4.4l0,0      c2.3-0.1,4.3,1.8,4.4,4.1L312.4,537.8z"
             id="path62" /><path
             class="st9"
             d="M340.9,547c0.1,2.3-1.8,4.3-4.1,4.4l0,0c-2.3,0.1-4.3-1.8-4.4-4.1l-0.3-8.4c-0.1-2.3,1.8-4.3,4.1-4.4l0,0      c2.3-0.1,4.3,1.8,4.4,4.1L340.9,547z"
             id="path64" /></g><g
           id="g66"><path
             class="st8"
             d="M336,576.9c0.5,14.5-4.5,26.4-28.5,29c-12.7,1.4-16.9-7.5-17.3-22c-0.5-14.5-22.6-32.3,10.3-33.3      C324,549.9,335.6,562.3,336,576.9z"
             id="path68" /><path
             class="st7"
             d="M323.5,578.7c0.5,15.9-11,29.1-25.8,29.6c-14.7,0.5-27.1-12-27.6-27.9c-0.5-15.9,11-29.1,25.8-29.6      C310.7,550.3,323,562.8,323.5,578.7z"
             id="path70" /><g
             id="g72"><ellipse
               transform="matrix(0.2375 -0.9714 0.9714 0.2375 -341.8637 719.6063)"
               class="st8"
               cx="287.4"
               cy="577.6"
               rx="4.2"
               ry="4.2"
               id="ellipse74" /><ellipse
               transform="matrix(0.2376 -0.9714 0.9714 0.2376 -333.3877 738.2649)"
               class="st8"
               cx="303.6"
               cy="581.5"
               rx="4.2"
               ry="4.2"
               id="ellipse76" /></g></g></g></g><g
       id="g78"><g
         class="st10"
         id="g80"><circle
           class="st11"
           cx="399.4"
           cy="311.2"
           r="25.9"
           id="circle82" /><circle
           class="st11"
           cx="403"
           cy="309.3"
           r="25.9"
           id="circle84" /></g><g
         id="g86"><g
           id="g88"><circle
             class="st12"
             cx="399.4"
             cy="309.2"
             r="25.9"
             id="circle90" /><circle
             class="st13"
             cx="403"
             cy="307.3"
             r="25.9"
             id="circle92" /></g></g></g><g
       id="g94"><g
         class="st10"
         id="g96"><circle
           class="st11"
           cx="400"
           cy="461.7"
           r="25.9"
           id="circle98" /><circle
           class="st11"
           cx="403.6"
           cy="459.8"
           r="25.9"
           id="circle100" /></g><g
         id="g102"><g
           id="g104"><circle
             class="st12"
             cx="400"
             cy="457.7"
             r="25.9"
             id="circle106" /><circle
             class="st13"
             cx="403.6"
             cy="455.8"
             r="25.9"
             id="circle108" /></g></g></g><g
       id="g110"><g
         class="st10"
         id="g112"><circle
           class="st11"
           cx="400"
           cy="388.5"
           r="25.9"
           id="circle114" /><circle
           class="st11"
           cx="403.6"
           cy="386.6"
           r="25.9"
           id="circle116" /></g><g
         id="g118"><g
           id="g120"><circle
             class="st12"
             cx="400"
             cy="386.5"
             r="25.9"
             id="circle122" /><circle
             class="st13"
             cx="403.6"
             cy="384.6"
             r="25.9"
             id="circle124" /></g></g></g><path
       class="st7"
       d="M366.6,482.7c0,0,28.8-12,64.9-0.7L432,497"
       id="path126" /><g
       id="g128"><text
         transform="matrix(1 0 0 1 391.7798 325.218)"
         class="st14 st15 st16"
         id="text130">R</text>
<rect
         x="394.09772"
         y="317.75018"
         class="st14"
         width="9"
         height="2.3"
         id="rect132"
         style="fill:#d98736" /><rect
         x="394.09772"
         y="320.75018"
         class="st14"
         width="9"
         height="2.3"
         id="rect134"
         style="fill:#d98736" /></g><g
       id="g136"><g
         id="g138"><path
           class="st2"
           d="M364.7,239c2.4-0.4,5-0.4,7.6-0.3c0-0.2,0-0.4-0.1-0.6c-0.7-3-6-9-9.3-9.3c-3.3-0.3-7.1,2.9-7.1,2.9     s1.3,1.5,3.2,3.2c2.6,2.1,5.4,4,5.4,4L364.7,239z"
           id="path140" /><path
           class="st2"
           d="M361.3,249.8c-1.6-0.3-7,1.6-7.1,1.7c0,0,0,0,0,0.1c1.1,1.5,2.3,2.8,3.7,4c3.3,2.5,8,4.6,12.9,6.4     C371.9,257,361.3,249.8,361.3,249.8z"
           id="path142" /><g
           id="g144"><path
             class="st17"
             d="M410.8,289h-19v12.3c0,3.8,2.3,7.1,5.6,8.6c1.9,0.5,4,0.5,6.5,0.1c0,0,2.6-0.6,5.5-3.8      c0.9-1.4,1.4-3.1,1.4-4.9V289z"
             id="path146" /><g
             id="g148"><g
               id="g150"><path
                 class="st3"
                 d="M355.8,231.6c0,0,3.8-3.3,7.1-2.9c3.3,0.3,8.7,6.3,9.3,9.3c0,0.2,0.1,0.4,0.1,0.6        c6.7,0.3,13.6,1.8,17.7,2.9c0.1-3.6,0-7.1-0.3-10.4c-6.3-3.8-18-10.3-23.6-11.4c-8-1.5-12.1,6.9-11,10.5        c0.4,1.2,2.1,3,3.9,4.5C357,233.1,355.8,231.6,355.8,231.6z"
                 id="path152" /><path
                 class="st4"
                 d="M390,241.6c-4.1-1.1-11-2.6-17.7-2.9c-2.6-0.1-5.2,0-7.6,0.3c-0.2,0-0.5,0.1-0.7,0.1        c-5.3,1-9.5,3.5-10.5,8.8c-0.2,1.3,0,2.5,0.6,3.7c0.2-0.1,5.5-2,7.1-1.7c0,0,10.7,7.1,9.5,12.1c6,2.2,12.3,3.8,16.9,4.7        C388.7,259.8,389.8,250.4,390,241.6z"
                 id="path154" /></g><g
               id="g156"><path
                 class="st4"
                 d="M417.2,285.8l26.6-27.1l16.7-50.7c-0.1,0-0.1-0.1-0.2-0.1c-0.2,0-0.4,0-0.6,0c-0.9,0-1.9,0-2.9,0        c-1,0.1-2.1,0.2-3.2,0.3c-1.1,0.2-2.3,0.3-3.5,0.5c-1.2,0.2-2.4,0.4-3.5,0.7c-1.2,0.3-2.4,0.5-3.5,0.9        c-0.2,0.1-0.4,0.1-0.7,0.2c-0.1,0.6-0.2,1.3-0.3,1.8l-0.5,2.3c-0.1,0.7-0.2,1.5-0.4,2.2l-0.4,2.2c-0.3,1.4-0.6,2.9-1,4.3        l-1.1,4.3c-0.4,1.4-0.8,2.8-1.2,4.2c-0.2,0.7-0.4,1.4-0.6,2.1l-0.7,2.1l-0.7,2.1c-0.2,0.7-0.5,1.4-0.7,2.1        c-0.5,1.4-0.9,2.8-1.5,4.2l-0.1,0.4l-0.1,0.1l-3.2,3.5l-3.2,3.4l-3.3,3.4l-1.7,1.7l-1.7,1.6l-0.2-0.1l12-14.5l2.5-8.4        c0.8-2.8,1.7-5.6,2.5-8.4l4.9-16.4c-0.7,0.2-1.5,0.4-2.2,0.6c-2.2,0.7-4.2,1.3-5.9,1.9c-1.7,0.6-3.2,1.1-4.1,1.5        c-1,0.4-1.6,0.6-1.6,0.6s0.5-0.3,1.5-0.8c1-0.5,2.3-1.1,4-1.9c0.8-0.3,1.8-0.7,2.7-1.1c1-0.4,2-0.8,3.1-1.1        c1.1-0.4,2.2-0.7,3.4-1.1c1.2-0.3,2.3-0.6,3.5-0.9c1.2-0.3,2.4-0.5,3.6-0.7c1.2-0.2,2.4-0.3,3.5-0.5c1.1-0.1,2.2-0.1,3.2-0.2        c-9.3-0.6-24.7,5.3-28.8,8.1c-4.7,3.3-8.7,34.7-10,63.3"
                 id="path158" /><path
                 class="st5"
                 d="M445.2,123.3l-78.7-4c0,0-5.1,37.1-3.3,49.3c1.9,13.4,13.3,36,22.7,49.3c2.1,3,3.3,7.7,3.8,13.2        c0.3,3.2,0.4,6.8,0.3,10.4c-0.2,8.9-1.3,18.2-2.3,25.1c-0.9,6.4-1.8,10.7-1.8,10.7s-3.1,28.8,11.5,32.6        c-3.3-1.5-5.6-4.8-5.6-8.6V289h13.3h5.7v8.6v3.8c0,1.8-0.5,3.5-1.4,4.9c2.2-2.4,4.7-6.4,6.4-12.8c1-3.9,1.8-8.8,2.1-14.7        c1.3-28.7,5.3-60,10-63.3c4-2.9,19.5-8.7,28.8-8.1c0,0,0.1,0,0.1,0c1.1,0,2.1,0.1,3,0.1c0.9,0.1,1.8,0.3,2.5,0.4        c0.7,0.1,1.4,0.3,1.9,0.5c1,0.3,1.6,0.5,1.6,0.5s-0.6-0.1-1.6-0.3c-0.5-0.1-1.1-0.3-1.9-0.3c-0.6,0-1.2-0.1-1.8-0.1        c0.1,0,0.2,0,0.2,0.1l-16.7,50.7l-26.6,27.1c0,0,1.7,0.9,3.8,3.1c2.8,2.9,6.3,7.9,7.9,16.1c0,0,31.5-22.8,40.2-32.3        c1.6-1.8,28-78,29.3-82.7C499.9,185.3,445.2,123.3,445.2,123.3z"
                 id="path160" /><path
                 class="st3"
                 d="M449.9,207.8c-1.2,0.2-2.4,0.4-3.6,0.7c-1.2,0.3-2.4,0.6-3.5,0.9c-1.2,0.3-2.3,0.7-3.4,1.1        c-1.1,0.3-2.1,0.8-3.1,1.1c-1,0.4-1.9,0.8-2.7,1.1c-1.7,0.7-3.1,1.4-4,1.9c-1,0.5-1.5,0.8-1.5,0.8s0.6-0.2,1.6-0.6        c1-0.4,2.4-0.9,4.1-1.5c1.7-0.6,3.7-1.3,5.9-1.9c0.7-0.2,1.4-0.4,2.2-0.6l-4.9,16.4c-0.8,2.8-1.7,5.6-2.5,8.4l-2.5,8.4        l-12,14.5l0.2,0.1l1.7-1.6l1.7-1.7l3.3-3.4l3.2-3.4l3.2-3.5l0.1-0.1l0.1-0.4c0.5-1.4,1-2.8,1.5-4.2c0.2-0.7,0.5-1.4,0.7-2.1        l0.7-2.1l0.7-2.1c0.2-0.7,0.4-1.4,0.6-2.1c0.4-1.4,0.8-2.8,1.2-4.2l1.1-4.3c0.3-1.4,0.7-2.9,1-4.3l0.4-2.2        c0.2-0.7,0.2-1.5,0.4-2.2l0.5-2.3c0.1-0.5,0.2-1.2,0.3-1.8c0.2-0.1,0.4-0.1,0.7-0.2c1.1-0.3,2.3-0.6,3.5-0.9        c1.2-0.3,2.4-0.5,3.5-0.7c1.2-0.2,2.3-0.4,3.5-0.5c1.1-0.1,2.2-0.2,3.2-0.3c1-0.1,2,0,2.9,0c0.2,0,0.4,0,0.6,0        c0.7,0,1.3,0.1,1.8,0.1c0.7,0,1.4,0.2,1.9,0.3c1,0.2,1.6,0.3,1.6,0.3s-0.6-0.2-1.6-0.5c-0.5-0.2-1.1-0.4-1.9-0.5        c-0.7-0.1-1.6-0.3-2.5-0.4c-0.9,0-1.9-0.1-3-0.1c0,0-0.1,0-0.1,0c-1,0-2.1,0-3.2,0.2C452.3,207.5,451.1,207.6,449.9,207.8z"
                 id="path162" /></g></g></g></g><g
         id="g164"><g
           id="g166"><g
             class="st18"
             id="g168"><rect
               x="350.5"
               y="87.1"
               width="116.8"
               height="42.3"
               id="rect170" /></g><g
             id="g172"><rect
               x="350.5"
               y="82.7"
               class="st19"
               width="116.8"
               height="42.3"
               id="rect174" /></g></g><g
           id="g176"><rect
             x="342.5"
             y="0"
             class="st20"
             width="131.8"
             height="82.7"
             id="rect178" /><circle
             class="st21"
             cx="362.6"
             cy="59.6"
             r="6"
             id="circle180" /><circle
             class="st21"
             cx="362.6"
             cy="34.1"
             r="6"
             id="circle182" /></g></g></g><g
       id="g184"><text
         transform="matrix(1 0 0 1 394.1283 469.8429)"
         class="st14 st15 st16"
         id="text186">R</text>
<rect
         x="396.49774"
         y="462.60001"
         class="st14"
         width="9"
         height="2.3"
         id="rect188"
         style="fill:#d98736" /><rect
         x="396.49774"
         y="465.60001"
         class="st14"
         width="9"
         height="2.3"
         id="rect190"
         style="fill:#d98736" /></g><g
       id="g192"><text
         transform="matrix(1 0 0 1 393.5849 400.6305)"
         class="st14 st15 st16"
         id="text194">R</text>
<rect
         x="395.89774"
         y="393.39999"
         class="st14"
         width="9"
         height="2.3"
         id="rect196"
         style="fill:#d98736" /><rect
         x="395.89774"
         y="396.29999"
         class="st14"
         width="9"
         height="2.3"
         id="rect198"
         style="fill:#d98736" /></g><ellipse
       class="st1"
       cx="172.4"
       cy="686.2"
       rx="49.5"
       ry="8.5"
       id="ellipse200" /><g
       id="g202"><g
         id="g204"><path
           class="st22"
           d="M142.1,684c0-1.9,0.2-3.8,0.2-5.7c0-0.7,0.6-1.2,1.2-1.2c21.4-0.9,42.8-0.4,64.2-0.3c0.7,0,1.7,0.6,1.8,1.4     c0.3,2.4,0.9,4.9-0.5,7c-0.2,0.3-0.5,0.5-0.9,0.5c-3,1.7-16.4,3-32.5,3c-18.3,0-33.1-1.6-33.1-3.7c0-0.1,0-0.1,0-0.2     C142.3,684.7,142.1,684.4,142.1,684z"
           id="path206" /><ellipse
           class="st23"
           cx="175.9"
           cy="677.4"
           rx="33.1"
           ry="3.7"
           id="ellipse208" /></g><g
         id="g210"><path
           class="st22"
           d="M135.7,673.1c0-1.9,0.2-3.8,0.2-5.7c0-0.7,0.6-1.2,1.2-1.2c21.4-0.9,42.8-0.4,64.2-0.3     c0.7,0,1.7,0.6,1.8,1.4c0.3,2.4,0.9,4.9-0.5,7c-0.2,0.3-0.5,0.5-0.9,0.5c-3,1.7-16.4,3-32.5,3c-18.3,0-33.1-1.6-33.1-3.7     c0-0.1,0-0.1,0-0.2C135.9,673.8,135.7,673.5,135.7,673.1z"
           id="path212" /><ellipse
           class="st23"
           cx="169.5"
           cy="666.4"
           rx="33.1"
           ry="3.7"
           id="ellipse214" /></g><g
         id="g216"><path
           class="st22"
           d="M143.9,661.2c0-1.9,0.2-3.8,0.2-5.7c0-0.7,0.6-1.2,1.2-1.2c21.4-0.9,42.8-0.4,64.2-0.3     c0.7,0,1.7,0.6,1.8,1.4c0.3,2.4,0.9,4.9-0.5,7c-0.2,0.3-0.5,0.5-0.9,0.5c-3,1.7-16.4,3-32.5,3c-18.3,0-33.1-1.6-33.1-3.7     c0-0.1,0-0.1,0-0.2C144.1,661.9,143.9,661.6,143.9,661.2z"
           id="path218" /><ellipse
           class="st23"
           cx="177.7"
           cy="654.5"
           rx="33.1"
           ry="3.7"
           id="ellipse220" /></g><g
         id="g222"><path
           class="st22"
           d="M143,650.3c0-1.9,0.2-3.8,0.2-5.7c0-0.7,0.6-1.2,1.2-1.2c21.4-0.9,42.8-0.4,64.2-0.3c0.7,0,1.7,0.6,1.8,1.4     c0.3,2.4,0.9,4.9-0.5,7c-0.2,0.3-0.5,0.5-0.9,0.5c-3,1.7-16.4,3-32.5,3c-18.3,0-33.1-1.6-33.1-3.7c0-0.1,0-0.1,0-0.2     C143.2,650.9,143,650.7,143,650.3z"
           id="path224" /><ellipse
           class="st23"
           cx="176.8"
           cy="643.6"
           rx="33.1"
           ry="3.7"
           id="ellipse226" /></g><g
         id="g228"><path
           class="st22"
           d="M142.1,639.3c0-1.9,0.2-3.8,0.2-5.7c0-0.7,0.6-1.2,1.2-1.2c21.4-0.9,42.8-0.4,64.2-0.3     c0.7,0,1.7,0.6,1.8,1.4c0.3,2.4,0.9,4.9-0.5,7c-0.2,0.3-0.5,0.5-0.9,0.5c-3,1.7-16.4,3-32.5,3c-18.3,0-33.1-1.6-33.1-3.7     c0-0.1,0-0.1,0-0.2C142.3,640,142.1,639.7,142.1,639.3z"
           id="path230" /><ellipse
           class="st23"
           cx="175.9"
           cy="632.6"
           rx="33.1"
           ry="3.7"
           id="ellipse232" /></g><g
         id="g234"><path
           class="st22"
           d="M149.4,629.3c0-1.9,0.2-3.8,0.2-5.7c0-0.7,0.6-1.2,1.2-1.2c21.4-0.9,42.8-0.4,64.2-0.3     c0.7,0,1.7,0.6,1.8,1.4c0.3,2.4,0.9,4.9-0.5,7c-0.2,0.3-0.5,0.5-0.9,0.5c-3,1.7-16.4,3-32.5,3c-18.3,0-33.1-1.6-33.1-3.7     c0-0.1,0-0.1,0-0.2C149.6,630,149.4,629.7,149.4,629.3z"
           id="path236" /><ellipse
           class="st23"
           cx="183.2"
           cy="622.6"
           rx="33.1"
           ry="3.7"
           id="ellipse238" /></g><g
         id="g240"><path
           class="st22"
           d="M143,618.4c0-1.9,0.2-3.8,0.2-5.7c0-0.7,0.6-1.2,1.2-1.2c21.4-0.9,42.8-0.4,64.2-0.3c0.7,0,1.7,0.6,1.8,1.4     c0.3,2.4,0.9,4.9-0.5,7c-0.2,0.3-0.5,0.5-0.9,0.5c-3,1.7-16.4,3-32.5,3c-18.3,0-33.1-1.6-33.1-3.7c0-0.1,0-0.1,0-0.2     C143.2,619,143,618.7,143,618.4z"
           id="path242" /><ellipse
           class="st23"
           cx="176.8"
           cy="611.7"
           rx="33.1"
           ry="3.7"
           id="ellipse244" /></g><g
         id="g246"><path
           class="st22"
           d="M151.2,606.5c0-1.9,0.2-3.8,0.2-5.7c0-0.7,0.6-1.2,1.2-1.2c21.4-0.9,42.8-0.4,64.2-0.3     c0.7,0,1.7,0.6,1.8,1.4c0.3,2.4,0.9,4.9-0.5,7c-0.2,0.3-0.5,0.5-0.9,0.5c-3,1.7-16.4,3-32.5,3c-18.3,0-33.1-1.6-33.1-3.7     c0-0.1,0-0.1,0-0.2C151.4,607.2,151.2,606.9,151.2,606.5z"
           id="path248" /><ellipse
           class="st23"
           cx="185"
           cy="599.8"
           rx="33.1"
           ry="3.7"
           id="ellipse250" /></g></g><ellipse
       class="st1"
       cx="609.9"
       cy="691.6"
       rx="49.5"
       ry="8.5"
       id="ellipse252" /><g
       id="g254"><g
         id="g256"><path
           class="st22"
           d="M643.1,689.2c0-1.9-0.2-3.8-0.2-5.7c0-0.7-0.6-1.2-1.2-1.2c-21.4-0.9-42.8-0.4-64.2-0.3     c-0.7,0-1.7,0.6-1.8,1.4c-0.3,2.4-0.9,4.9,0.5,7c0.2,0.3,0.5,0.5,0.9,0.5c3,1.7,16.4,3,32.5,3c18.3,0,33.1-1.6,33.1-3.7     c0-0.1,0-0.1,0-0.2C642.9,689.8,643.1,689.6,643.1,689.2z"
           id="path258" /><ellipse
           class="st23"
           cx="609.3"
           cy="682.5"
           rx="33.1"
           ry="3.7"
           id="ellipse260" /></g><g
         id="g262"><path
           class="st22"
           d="M649.5,678.2c0-1.9-0.2-3.8-0.2-5.7c0-0.7-0.6-1.2-1.2-1.2c-21.4-0.9-42.8-0.4-64.2-0.3     c-0.7,0-1.7,0.6-1.8,1.4c-0.3,2.4-0.9,4.9,0.5,7c0.2,0.3,0.5,0.5,0.9,0.5c3,1.7,16.4,3,32.5,3c18.3,0,33.1-1.6,33.1-3.7     c0-0.1,0-0.1,0-0.2C649.3,678.9,649.5,678.6,649.5,678.2z"
           id="path264" /><ellipse
           class="st23"
           cx="615.7"
           cy="671.5"
           rx="33.1"
           ry="3.7"
           id="ellipse266" /></g><g
         id="g268"><path
           class="st22"
           d="M641.3,666.4c0-1.9-0.2-3.8-0.2-5.7c0-0.7-0.6-1.2-1.2-1.2c-21.4-0.9-42.8-0.4-64.2-0.3     c-0.7,0-1.7,0.6-1.8,1.4c-0.3,2.4-0.9,4.9,0.5,7c0.2,0.3,0.5,0.5,0.9,0.5c3,1.7,16.4,3,32.5,3c18.3,0,33.1-1.6,33.1-3.7     c0-0.1,0-0.1,0-0.2C641.1,667,641.3,666.8,641.3,666.4z"
           id="path270" /><ellipse
           class="st23"
           cx="607.4"
           cy="659.7"
           rx="33.1"
           ry="3.7"
           id="ellipse272" /></g><g
         id="g274"><path
           class="st22"
           d="M642.2,655.4c0-1.9-0.2-3.8-0.2-5.7c0-0.7-0.6-1.2-1.2-1.2c-21.4-0.9-42.8-0.4-64.2-0.3     c-0.7,0-1.7,0.6-1.8,1.4c-0.3,2.4-0.9,4.9,0.5,7c0.2,0.3,0.5,0.5,0.9,0.5c3,1.7,16.4,3,32.5,3c18.3,0,33.1-1.6,33.1-3.7     c0-0.1,0-0.1,0-0.2C642,656.1,642.2,655.8,642.2,655.4z"
           id="path276" /><ellipse
           class="st23"
           cx="608.4"
           cy="648.7"
           rx="33.1"
           ry="3.7"
           id="ellipse278" /></g><g
         id="g280"><path
           class="st22"
           d="M643.1,644.5c0-1.9-0.2-3.8-0.2-5.7c0-0.7-0.6-1.2-1.2-1.2c-21.4-0.9-42.8-0.4-64.2-0.3     c-0.7,0-1.7,0.6-1.8,1.4c-0.3,2.4-0.9,4.9,0.5,7c0.2,0.3,0.5,0.5,0.9,0.5c3,1.7,16.4,3,32.5,3c18.3,0,33.1-1.6,33.1-3.7     c0-0.1,0-0.1,0-0.2C642.9,645.1,643.1,644.9,643.1,644.5z"
           id="path282" /><ellipse
           class="st23"
           cx="609.3"
           cy="637.8"
           rx="33.1"
           ry="3.7"
           id="ellipse284" /></g><g
         id="g286"><path
           class="st22"
           d="M635.8,634.4c0-1.9-0.2-3.8-0.2-5.7c0-0.7-0.6-1.2-1.2-1.2c-21.4-0.9-42.8-0.4-64.2-0.3     c-0.7,0-1.7,0.6-1.8,1.4c-0.3,2.4-0.9,4.9,0.5,7c0.2,0.3,0.5,0.5,0.9,0.5c3,1.7,16.4,3,32.5,3c18.3,0,33.1-1.6,33.1-3.7     c0-0.1,0-0.1,0-0.2C635.6,635.1,635.8,634.8,635.8,634.4z"
           id="path288" /><ellipse
           class="st23"
           cx="602"
           cy="627.8"
           rx="33.1"
           ry="3.7"
           id="ellipse290" /></g><g
         id="g292"><path
           class="st22"
           d="M642.2,623.5c0-1.9-0.2-3.8-0.2-5.7c0-0.7-0.6-1.2-1.2-1.2c-21.4-0.9-42.8-0.4-64.2-0.3     c-0.7,0-1.7,0.6-1.8,1.4c-0.3,2.4-0.9,4.9,0.5,7c0.2,0.3,0.5,0.5,0.9,0.5c3,1.7,16.4,3,32.5,3c18.3,0,33.1-1.6,33.1-3.7     c0-0.1,0-0.1,0-0.2C642,624.2,642.2,623.9,642.2,623.5z"
           id="path294" /><ellipse
           class="st23"
           cx="608.4"
           cy="616.8"
           rx="33.1"
           ry="3.7"
           id="ellipse296" /></g><g
         id="g298"><path
           class="st22"
           d="M634,611.6c0-1.9-0.2-3.8-0.2-5.7c0-0.7-0.6-1.2-1.2-1.2c-21.4-0.9-42.8-0.4-64.2-0.3     c-0.7,0-1.7,0.6-1.8,1.4c-0.3,2.4-0.9,4.9,0.5,7c0.2,0.3,0.5,0.5,0.9,0.5c3,1.7,16.4,3,32.5,3c18.3,0,33.1-1.6,33.1-3.7     c0-0.1,0-0.1,0-0.2C633.8,612.3,634,612,634,611.6z"
           id="path300" /><ellipse
           class="st23"
           cx="600.2"
           cy="604.9"
           rx="33.1"
           ry="3.7"
           id="ellipse302" /></g><g
         id="g304"><path
           class="st22"
           d="M634.9,600.7c0-1.9-0.2-3.8-0.2-5.7c0-0.7-0.6-1.2-1.2-1.2c-21.4-0.9-42.8-0.4-64.2-0.3     c-0.7,0-1.7,0.6-1.8,1.4c-0.3,2.4-0.9,4.9,0.5,7c0.2,0.3,0.5,0.5,0.9,0.5c3,1.7,16.4,3,32.5,3c18.3,0,33.1-1.6,33.1-3.7     c0-0.1,0-0.1,0-0.2C634.7,601.3,634.9,601.1,634.9,600.7z"
           id="path306" /><ellipse
           class="st23"
           cx="601.1"
           cy="594"
           rx="33.1"
           ry="3.7"
           id="ellipse308" /></g><g
         id="g310"><path
           class="st22"
           d="M635.8,589.7c0-1.9-0.2-3.8-0.2-5.7c0-0.7-0.6-1.2-1.2-1.2c-21.4-0.9-42.8-0.4-64.2-0.3     c-0.7,0-1.7,0.6-1.8,1.4c-0.3,2.4-0.9,4.9,0.5,7c0.2,0.3,0.5,0.5,0.9,0.5c3,1.7,16.4,3,32.5,3c18.3,0,33.1-1.6,33.1-3.7     c0-0.1,0-0.1,0-0.2C635.6,590.4,635.8,590.1,635.8,589.7z"
           id="path312" /><ellipse
           class="st23"
           cx="602"
           cy="583"
           rx="33.1"
           ry="3.7"
           id="ellipse314" /></g></g><ellipse
       class="st1"
       cx="660.7"
       cy="702.7"
       rx="49.5"
       ry="8.5"
       id="ellipse316" /><g
       id="g318"><path
         class="st22"
         d="M630.3,700.6c0-1.9,0.2-3.8,0.2-5.7c0-0.7,0.6-1.2,1.2-1.2c21.4-0.9,42.8-0.4,64.2-0.3    c0.7,0,1.7,0.6,1.8,1.4c0.3,2.4,0.9,4.9-0.5,7c-0.2,0.3-0.5,0.5-0.9,0.5c-3,1.7-16.4,3-32.5,3c-18.3,0-33.1-1.6-33.1-3.7    c0-0.1,0-0.1,0-0.2C630.5,701.2,630.3,701,630.3,700.6z"
         id="path320" /><ellipse
         class="st23"
         cx="664.2"
         cy="693.9"
         rx="33.1"
         ry="3.7"
         id="ellipse322" /></g><g
       id="g324"><path
         class="st22"
         d="M623.9,689.6c0-1.9,0.2-3.8,0.2-5.7c0-0.7,0.6-1.2,1.2-1.2c21.4-0.9,42.8-0.4,64.2-0.3    c0.7,0,1.7,0.6,1.8,1.4c0.3,2.4,0.9,4.9-0.5,7c-0.2,0.3-0.5,0.5-0.9,0.5c-3,1.7-16.4,3-32.5,3c-18.3,0-33.1-1.6-33.1-3.7    c0-0.1,0-0.1,0-0.2C624.1,690.3,623.9,690,623.9,689.6z"
         id="path326" /><ellipse
         class="st23"
         cx="657.8"
         cy="682.9"
         rx="33.1"
         ry="3.7"
         id="ellipse328" /></g><g
       id="g330"><path
         class="st22"
         d="M632.2,677.8c0-1.9,0.2-3.8,0.2-5.7c0-0.7,0.6-1.2,1.2-1.2c21.4-0.9,42.8-0.4,64.2-0.3    c0.7,0,1.7,0.6,1.8,1.4c0.3,2.4,0.9,4.9-0.5,7c-0.2,0.3-0.5,0.5-0.9,0.5c-3,1.7-16.4,3-32.5,3c-18.3,0-33.1-1.6-33.1-3.7    c0-0.1,0-0.1,0-0.2C632.3,678.4,632.2,678.2,632.2,677.8z"
         id="path332" /><ellipse
         class="st23"
         cx="666"
         cy="671.1"
         rx="33.1"
         ry="3.7"
         id="ellipse334" /></g></g></svg>