<?xml version="1.0" encoding="utf-8"?>
<!-- Generator: Adobe Illustrator 20.1.0, SVG Export Plug-In . SVG Version: 6.00 Build 0)  -->
<svg version="1.1" id="Слой_1" xmlns="http://www.w3.org/2000/svg" xmlns:xlink="http://www.w3.org/1999/xlink" x="0px" y="0px"
	 viewBox="0 0 512 512" style="enable-background:new 0 0 512 512;" xml:space="preserve">
<style type="text/css">
	.st0{fill:#FFFFFF;}
</style>
<path class="st0" d="M256,11C120.9,11,11,120.9,11,256s109.9,245,245,245s245-109.9,245-245S391.1,11,256,11z M256,480.1
	C132.4,480.1,31.9,379.6,31.9,256S132.4,31.9,256,31.9S480.1,132.4,480.1,256S379.6,480.1,256,480.1z"/>
<path class="st0" d="M353.6,247.6l-135.1-92.4c-4.2-3.1-15.4-3.1-16.3,8.6v184.8c1,11.7,12.4,11.9,16.3,8.6l135.1-92.4
	C357.1,262.7,361.9,254.1,353.6,247.6L353.6,247.6z M223.1,328.9V183.5l106.1,72.7L223.1,328.9z"/>
<polygon class="st0" points="212.8,156.9 347.6,249.3 212.8,341.7 "/>
</svg>
