<?xml version="1.0" encoding="utf-8"?>
<!-- Generator: Adobe Illustrator 20.1.0, SVG Export Plug-In . SVG Version: 6.00 Build 0)  -->
<svg version="1.1" id="Layer_1" xmlns="http://www.w3.org/2000/svg" xmlns:xlink="http://www.w3.org/1999/xlink" x="0px" y="0px"
	 viewBox="0 0 290.5 290.5" style="enable-background:new 0 0 290.5 290.5;" xml:space="preserve">
<style type="text/css">
	.st0{fill:#333333;}
	.st1{fill:#FF8A18;}
</style>
<path class="st0" d="M169.3,184.7l-7-51.1c-0.4-3.3-1.7-6.2-3.4-8.8l4.2-8.4l-8.5-4.3l-3.1,6.1c-3-1.5-6.3-2.3-9.8-2
	c-5.3,0.4-10,3-13.3,7.1s-4.7,9.4-4,14.5l4.9,36.2l-36.9,90.2l6.6,2.7c3.7,1.5,5.4,5.7,3.9,9.4c-1.5,3.7-5.7,5.5-9.4,3.9l-39.8-16.3
	c-3.7-1.5-5.4-5.7-3.9-9.4c1.5-3.7,5.7-5.4,9.4-3.9l6.6,2.7l5.4-13.3l11.1,4.5c2.1,0.8,4.2,1.2,6.3,1.2c6.6,0,12.8-3.9,15.5-10.4
	c1.7-4.1,1.7-8.7-0.1-12.8c-0.5-1.2-1.2-2.3-1.9-3.4c3-1.8,5.3-4.5,6.6-7.8c2.3-5.5,1.3-11.6-2-16.1c2.9-1.8,5.2-4.4,6.6-7.8
	c2.3-5.6,1.3-11.6-2-16.1c3-1.8,5.3-4.5,6.6-7.8c3.2-7.8,0-16.5-7-20.7l5.5-13.5l-6.6-2.7c-1.8-0.7-3.2-2.1-3.9-3.9
	c-0.7-1.8-0.8-3.7,0-5.5c1.5-3.7,5.7-5.4,9.4-3.9l6.6,2.7l5.4-13.3l-8.8-3.6l-1.9,4.6c-7.9-2-16.4,2.1-19.5,9.9
	c-1.7,4.1-1.7,8.7,0.1,12.8c1.4,3.4,3.8,6.1,7,8l-1.9,4.6l-15.5-6.3c-8.5-3.5-18.3,0.6-21.8,9.1c-2.3,5.6-1.3,11.6,2,16.1
	c-2.9,1.8-5.3,4.4-6.6,7.8c-2.3,5.6-1.3,11.6,2,16.1c-2.9,1.8-5.3,4.4-6.6,7.8c-2.3,5.6-1.3,11.6,2,16.1c-3,1.8-5.3,4.5-6.6,7.8
	c-3.5,8.5,0.6,18.3,9.1,21.8l2.2,0.9l-1.9,4.6c-7.9-2-16.4,2.1-19.5,9.9c-3.5,8.5,0.6,18.3,9.1,21.8L90,288.8
	c2.1,0.8,4.2,1.2,6.3,1.2c6.6,0,12.9-3.9,15.5-10.4c3.2-7.8,0-16.6-7-20.8l2.8-6.9l0.8,0.3c10.1,4.1,21.5,2.9,30.5-3l84.9,34.7
	l27.2-66.4L169.3,184.7z M68.4,202.9c-3.7-1.5-5.4-5.7-3.9-9.4s6-5.4,9.7-3.9l18.1,6.4v-0.8h-0.7l4.4,2.6c3.7,1.5,5.4,6.1,3.9,9.8
	c-0.7,1.8-2.1,3.4-3.9,4.1c-1.8,0.7-3.7,0.9-5.5,0.1l-7.7-3.1L68.4,202.9z M73,179.1c-3.7-1.5-5.4-5.8-3.9-9.4
	c1.5-3.7,5.7-5.4,9.4-4l7.7,3.2l14.4,5.9c3.7,1.5,5.4,5.7,3.9,9.4s-5.7,5.5-9.4,4L77.4,181l0,0L73,179.1z M73.7,145.7
	c1.1-2.8,3.8-4.5,6.7-4.5c0.9,0,1.8,0.2,2.7,0.5l22.1,9.1c3.7,1.5,5.4,5.7,3.9,9.4c-0.7,1.8-2.1,3.2-3.9,3.9s-3.7,0.8-5.5,0
	l-11.1-4.4l-6.6-2.5l0,0l-4.4-2C74,153.7,72.2,149.3,73.7,145.7z M59.8,223c-0.7-1.8-0.8-3.7,0-5.5c0.7-1.8,2.1-3.2,3.9-3.9
	c0.9-0.4,1.8-0.6,2.8-0.6c0.9,0,1.8,0.2,2.7,0.5l4.3,1.8l13.4,5.5l0,0l4.4,1.8c1.8,0.7,3.2,2.1,3.9,3.9c0.7,1.8,0.8,3.7,0,5.5
	c-0.7,1.8-2.1,3.2-3.9,3.9s-3.7,0.8-5.5,0l-22.1-9.1C62,226.1,60.6,224.8,59.8,223z M218.4,272l-81.1-33.2l-2.2,1.7
	c-6.6,5.2-15.5,6.5-23.2,3.4l-0.8-0.3l27.9-68.2l-5.3-38.8c-0.4-2.6,0.4-5.2,2-7.3c1.7-2.1,4-3.3,6.7-3.6c5-0.4,9.6,3.7,10.4,9.1
	l7.7,56.6l77.8,31.8L218.4,272z"/>
<path class="st1" d="M228,70l-34.5-20.3c-2.3-1.3-4.3-4.6-4.5-7.2l-2.8-39.9C186,0,184.3-0.7,182.3,1l-30,26.5c-2,1.7-5.7,2.6-8.2,2
	l-38.9-9.7c-2.6-0.6-3.8,0.8-2.7,3.2l16,36.7c1,2.4,0.8,6.2-0.6,8.4l-21.2,34c-1.4,2.2-0.4,3.9,2.2,3.6l39.9-3.8
	c2.6-0.3,6.1,1.2,7.8,3.2l25.7,30.7c1.7,2,3.5,1.6,4.1-1l8.7-39.1c0.6-2.6,3-5.5,5.5-6.5l37.1-15C230.1,73.3,230.3,71.4,228,70z"/>
<polygon class="st0" points="164.6,87.3 155.9,83.7 172.2,43.9 154.5,36.6 150.9,45.4 159.8,49.1 147.1,80.1 138.2,76.5 134.6,85.3 
	161,96.1 "/>
</svg>
