<?xml version="1.0" encoding="utf-8"?>
<!-- Generator: Adobe Illustrator 20.1.0, SVG Export Plug-In . SVG Version: 6.00 Build 0)  -->
<svg version="1.1" id="Слой_1" xmlns="http://www.w3.org/2000/svg" xmlns:xlink="http://www.w3.org/1999/xlink" x="0px" y="0px"
	 viewBox="0 0 512 512" style="enable-background:new 0 0 512 512;" xml:space="preserve">
<style type="text/css">
	.st0{fill:#FF8A18;}
</style>
<g>
	<path class="st0" d="M180.7,260.7c-6.2,6.2-6.2,16.4,0,22.6l48,48c3.1,3.1,7.2,4.7,11.3,4.7s8.2-1.6,11.3-4.7l80-80
		c6.2-6.2,6.2-16.4,0-22.6s-16.4-6.2-22.6,0L240,297.4l-36.7-36.7C197.1,254.4,186.9,254.4,180.7,260.7L180.7,260.7z"/>
	<circle class="st0" cx="256" cy="64" r="16"/>
	<path class="st0" d="M312.1,31C301,12,279.6,0,256,0s-45,12-56.1,31c0,0-7.7,12.1-7.9,33v32h-64c-8.8,0-16,7.2-16,16v320
		c0,8.8,7.2,16,16,16h256c8.8,0,16-7.2,16-16V112c0-8.8-7.2-16-16-16h-64V64C320,42.4,312.1,31,312.1,31z M224,64
		c0-17.6,14.4-32,32-32s32,14.4,32,32v64h-64V64z M288,160c17.6,0,32-14.4,32-32h48v288H144V128h48c0,17.6,14.4,32,32,32H288z"/>
</g>
</svg>
