<?xml version="1.0" encoding="utf-8"?>
<!-- Generator: Adobe Illustrator 20.1.0, SVG Export Plug-In . SVG Version: 6.00 Build 0)  -->
<svg version="1.1" id="Layer_1" xmlns="http://www.w3.org/2000/svg" xmlns:xlink="http://www.w3.org/1999/xlink" x="0px" y="0px"
	 viewBox="0 0 200.6 200.6" style="enable-background:new 0 0 200.6 200.6;" xml:space="preserve">
<style type="text/css">
	.st0{fill:#F98749;}
	.st1{fill:#333333;}
</style>
<title>leadership</title>
<path class="st0" d="M200.6,200.6H0v-51.3h55v-36h90.6v36.1h55L200.6,200.6L200.6,200.6z"/>
<polygon class="st1" points="103.5,126.2 90.6,126.2 90.6,132.7 97.1,132.7 97.1,145.6 90.6,145.6 90.6,152.1 110,152.1 110,145.6 
	103.5,145.6 "/>
<polygon class="st1" points="16.2,168.3 29.1,168.3 29.1,172.2 16.2,175.4 16.2,187.7 35.6,187.7 35.6,181.2 22.6,181.2 22.6,180.5 
	35.6,177.3 35.6,161.8 16.2,161.8 "/>
<polygon class="st1" points="165,161.8 165,168.3 178,168.3 178,171.5 165,171.5 165,178 178,178 178,181.2 165,181.2 165,187.7 
	184.4,187.7 184.4,161.8 "/>
<path class="st1" d="M131.1,3.4c-4.7,0.9-8.1,5.1-8.1,9.9v7.5l-11.1,6.6c6.3-6.4,6.2-16.6-0.1-22.9S95.1-1.7,88.8,4.7
	c-6.3,6.4-6.2,16.6,0.1,22.9c0.5,0.5,1.1,1,1.8,1.5h-13V23c0-4.8-3.4-9-8.1-9.9c-5.3-0.9-10.3,2.7-11.2,8c-0.1,0.5-0.1,1.1-0.1,1.6
	v16.3c0,5.3,4.3,9.6,9.6,9.6h16.3v51.8c0,5.4,4.4,9.7,9.7,9.7c2.4,0,4.7-0.9,6.4-2.5c4,3.6,10.1,3.2,13.7-0.7
	c1.6-1.8,2.5-4.1,2.5-6.5V45.4l21.7-12c2.6-1.4,4.2-4.2,4.2-7.1V12.9c0-5.4-4.4-9.7-9.7-9.7C132.1,3.2,131.6,3.3,131.1,3.4
	L131.1,3.4z M100.3,6.4c5.4,0,9.7,4.3,9.7,9.7s-4.3,9.7-9.7,9.7c-5.4,0-9.7-4.3-9.7-9.7C90.6,10.8,94.9,6.5,100.3,6.4z M135.9,26.2
	c0,0.6-0.3,1.2-0.9,1.5l-25,13.9v58.7c0.1,1.8-1.3,3.3-3.1,3.4s-3.3-1.3-3.4-3.1c0-0.1,0-0.2,0-0.4V67.9h-6.5v32.4
	c-0.1,1.8-1.6,3.2-3.4,3.1c-1.6-0.1-3-1.4-3.1-3.1V42.1H67.8c-1.7,0-3.1-1.4-3.1-3.1V22.6c0-1,0.4-1.9,1.1-2.5
	c0.7-0.6,1.7-0.9,2.7-0.7c1.6,0.4,2.7,1.9,2.7,3.5v12.6h39.7l18.5-11.1V13.3c-0.1-1.7,1.1-3.1,2.7-3.5c1.8-0.3,3.4,0.9,3.8,2.6
	c0,0.2,0,0.4,0,0.6L135.9,26.2L135.9,26.2z"/>
</svg>
