<?xml version="1.0" encoding="UTF-8" standalone="no"?>
<!-- Generator: Adobe Illustrator 20.1.0, SVG Export Plug-In . SVG Version: 6.00 Build 0)  -->

<svg
   xmlns:dc="http://purl.org/dc/elements/1.1/"
   xmlns:cc="http://creativecommons.org/ns#"
   xmlns:rdf="http://www.w3.org/1999/02/22-rdf-syntax-ns#"
   xmlns:svg="http://www.w3.org/2000/svg"
   xmlns="http://www.w3.org/2000/svg"
   xmlns:sodipodi="http://sodipodi.sourceforge.net/DTD/sodipodi-0.dtd"
   xmlns:inkscape="http://www.inkscape.org/namespaces/inkscape"
   version="1.1"
   id="Слой_1"
   x="0px"
   y="0px"
   viewBox="0 0 801.59998 127.5"
   xml:space="preserve"
   inkscape:version="0.91 r13725"
   sodipodi:docname="REFORMATOR.svg"
   width="801.59998"
   height="127.5"><metadata
     id="metadata3466"><rdf:RDF><cc:Work
         rdf:about=""><dc:format>image/svg+xml</dc:format><dc:type
           rdf:resource="http://purl.org/dc/dcmitype/StillImage" /><dc:title /></cc:Work></rdf:RDF></metadata><defs
     id="defs3464" /><sodipodi:namedview
     pagecolor="#ffffff"
     bordercolor="#666666"
     borderopacity="1"
     objecttolerance="10"
     gridtolerance="10"
     guidetolerance="10"
     inkscape:pageopacity="0"
     inkscape:pageshadow="2"
     inkscape:window-width="1301"
     inkscape:window-height="744"
     id="namedview3462"
     showgrid="false"
     fit-margin-top="0"
     fit-margin-left="0"
     fit-margin-right="0"
     fit-margin-bottom="0"
     inkscape:zoom="0.607"
     inkscape:cx="227.19769"
     inkscape:cy="-382.57152"
     inkscape:window-x="65"
     inkscape:window-y="24"
     inkscape:window-maximized="1"
     inkscape:current-layer="g3432" /><style
     type="text/css"
     id="style3430">
	.st0{fill:#FF8A18;}
</style><g
     id="g3432"
     transform="translate(-113,-401.9)"><path
       d="m 156.2,487.3 c 0,6.9 -3,11.7 -8.9,14.4 l 8.9,23.4 0,3 -14.3,0 -9.1,-24 -5.4,0 0,24 -14.4,0 0,-76.9 21.6,0 c 13,0 21.6,5.4 21.6,16.8 l 0,19.3 z m -28.9,-22.8 0,26.4 7.2,0 c 4.8,0 7.2,-1.6 7.2,-4.8 l 0,-16.8 c 0,-3.2 -2.4,-4.8 -7.2,-4.8 l -7.2,0 z"
       id="path3434"
       inkscape:connector-curvature="0"
       style="opacity:0.03" /><path
       d="m 213.3,464.5 -26.5,0 0,18.6 24,0 0,13.2 -24,0 0,18.7 26.5,0 0,13.2 -40.9,0 0,-76.9 40.9,0 0,13.2 z"
       id="path3436"
       inkscape:connector-curvature="0"
       style="opacity:0.03" /><path
       d="m 245.3,528.2 -14.4,0 0,-76.9 40.9,0 0,13.2 -26.5,0 0,18.6 24,0 0,13.2 -24,0 0,31.9 z"
       id="path3438"
       inkscape:connector-curvature="0"
       style="opacity:0.03" /><path
       d="m 331.9,511.4 c 0,12 -7.6,18 -22.8,18 -15.3,0 -22.8,-6 -22.8,-18 l 0,-43.3 c 0,-12 7.6,-18 22.8,-18 15.3,0 22.8,6 22.8,18 l 0,43.3 z m -14.4,-43.3 c 0,-3.2 -2.8,-4.8 -8.4,-4.8 -5.7,0 -8.4,1.6 -8.4,4.8 l 0,43.3 c 0,3.2 2.8,4.8 8.4,4.8 5.6,0 8.4,-1.6 8.4,-4.8 l 0,-43.3 z"
       id="path3440"
       inkscape:connector-curvature="0"
       style="image-rendering:auto;opacity:0.03" /><path
       d="m 392.1,487.3 c 0,6.9 -3,11.7 -8.9,14.4 l 8.9,23.4 0,3 -14.3,0 -9.1,-24 -5.4,0 0,24 -14.4,0 0,-76.9 21.6,0 c 13,0 21.6,5.4 21.6,16.8 l 0,19.3 z m -28.8,-22.8 0,26.4 7.2,0 c 4.8,0 7.2,-1.6 7.2,-4.8 l 0,-16.8 c 0,-3.2 -2.4,-4.8 -7.2,-4.8 l -7.2,0 z"
       id="path3442"
       inkscape:connector-curvature="0"
       style="opacity:0.03" /><path
       d="m 458.3,450 3,0 0,78.1 -14.4,0 0,-33.1 -10.6,21 -3,0 -10.5,-21 0,33.1 -14.4,0 0,-78.1 3,0 23.4,46.9 23.5,-46.9 z"
       id="path3444"
       inkscape:connector-curvature="0"
       style="opacity:0.03" /><path
       d="m 514.8,451.2 11.5,73.9 0,3 -14.2,0 -2.8,-18 -16.6,0 -2.9,18 -14.1,0 0,-3 11.5,-73.9 27.6,0 z m -20,45.7 12.5,0 -5,-32.5 -2.4,0 -5.1,32.5 z"
       id="path3446"
       inkscape:connector-curvature="0"
       style="opacity:0.03" /><path
       d="m 581.7,451.2 0,13.2 -15.6,0 0,63.7 -14.4,0 0,-63.7 -15.7,0 0,-13.2 45.7,0 z"
       id="path3448"
       inkscape:connector-curvature="0"
       style="opacity:0.03" /><path
       d="m 639.5,511.4 c 0,12 -7.6,18 -22.8,18 -15.3,0 -22.8,-6 -22.8,-18 l 0,-43.3 c 0,-12 7.6,-18 22.8,-18 15.3,0 22.8,6 22.8,18 l 0,43.3 z M 625,468.1 c 0,-3.2 -2.8,-4.8 -8.4,-4.8 -5.7,0 -8.4,1.6 -8.4,4.8 l 0,43.3 c 0,3.2 2.8,4.8 8.4,4.8 5.6,0 8.4,-1.6 8.4,-4.8 l 0,-43.3 z"
       id="path3450"
       inkscape:connector-curvature="0"
       style="opacity:0.03" /><path
       d="m 699.7,487.3 c 0,6.9 -3,11.7 -8.9,14.4 l 8.9,23.4 0,3 -14.3,0 -9.1,-24 -5.4,0 0,24 -14.4,0 0,-76.9 21.5,0 c 13,0 21.6,5.4 21.6,16.8 l 0,19.3 z m -28.9,-22.8 0,26.4 7.2,0 c 4.8,0 7.2,-1.6 7.2,-4.8 l 0,-16.8 c 0,-3.2 -2.4,-4.8 -7.2,-4.8 l -7.2,0 z"
       id="path3452"
       inkscape:connector-curvature="0"
       style="opacity:0.03" /><path
       d="m 716,508.9 14.4,0 0,19.2 -14.4,0 0,-19.2 z"
       id="path3454"
       inkscape:connector-curvature="0"
       style="opacity:0.03" /><path
       d="m 793,511.4 c 0,12 -7.6,18 -22.8,18 -15.3,0 -22.8,-6 -22.8,-18 l 0,-43.3 c 0,-12 7.6,-18 22.8,-18 15.3,0 22.8,6 22.8,18 l 0,43.3 z m -14.4,-43.3 c 0,-3.2 -2.8,-4.8 -8.4,-4.8 -5.6,0 -8.4,1.6 -8.4,4.8 l 0,43.3 c 0,3.2 2.8,4.8 8.4,4.8 5.7,0 8.4,-1.6 8.4,-4.8 l 0,-43.3 z"
       id="path3456"
       inkscape:connector-curvature="0"
       style="opacity:0.03" /><path
       d="m 914.6,464.5 -26.4,0 0,18.6 24,0 0,13.2 -24,0 0,18.7 26.4,0 0,13.2 -40.9,0 0,-76.9 40.9,0 0,13.2 z"
       id="path3458"
       inkscape:connector-curvature="0"
       style="opacity:0.03" /><polygon
       class="st0"
       points="809.9,450 809.9,528.2 824.3,528.2 824.3,487.3 852.6,529.4 855.6,529.4 855.6,433.2 867.6,433.2 848.6,401.9 829.1,433.2 841.2,433.2 841.2,492.1 812.9,450 "
       id="polygon3460"
       style="fill:#ff8a18;opacity:0.03" /></g></svg>