<?xml version="1.0" encoding="utf-8"?>
<!-- Generator: Adobe Illustrator 20.1.0, SVG Export Plug-In . SVG Version: 6.00 Build 0)  -->
<svg version="1.1" id="Layer_1" xmlns="http://www.w3.org/2000/svg" xmlns:xlink="http://www.w3.org/1999/xlink" x="0px" y="0px"
	 viewBox="0 0 285.9 285.9" style="enable-background:new 0 0 285.9 285.9;" xml:space="preserve">
<style type="text/css">
	.st0{fill:#333333;}
	.st1{fill:#FF8A18;}
</style>
<path class="st0" d="M271.9,145.3h-28.8L235,93c5.2,3.4,11.4,5.5,18.1,5.5c18.1,0,32.8-14.7,32.8-32.8s-14.7-32.8-32.8-32.8
	s-32.8,14.7-32.8,32.8c0,3.8,0.7,7.4,1.9,10.8l-17.9-15.4c-3.6-3.1-8.3-4.8-13.1-4.8h-64.6c-7.8,0-14.1,6.3-14.1,14.1
	s6.3,14.1,14.1,14.1h58l-48.8,38.3c-8.9,7-13.9,17.4-13.9,28.7c0,12.5,6.3,23.9,16.8,30.7l43.5,28l-36.7,15.3
	c-3.7,1.5-6.6,4.6-7.9,8.3c-1.4,3.8-1.1,7.9,0.7,11.5c2.5,4.9,7.5,7.8,12.8,7.8c1.9,0,3.9-0.4,5.8-1.2l50.6-22.3
	c7.9-3.7,13-11.7,13-20.4c0-5.9-2.4-11.7-6.6-15.9l-28.9-29l27.1-23.7l2.1,16.7c1.1,9.2,9,16.2,18.3,16.2h39.4
	c7.8,0,14.1-6.3,14.1-14.1C285.9,151.6,279.6,145.3,271.9,145.3z M253.1,42.2c12.9,0,23.4,10.5,23.4,23.4S266,89,253.1,89
	s-23.4-10.5-23.4-23.4S240.2,42.2,253.1,42.2z M271.9,164.1h-39.4c-4.6,0-8.4-3.4-9-7.9l-4.3-34.2l-47.9,41.9l35.8,35.8
	c2.5,2.4,3.9,5.8,3.9,9.3c0,5.1-3,9.8-7.5,11.9L153,243.1c-2.4,1.1-5.2,0.1-6.4-2.3c-0.6-1.3-0.7-2.7-0.2-4s1.5-2.3,2.8-2.9
	l39.8-16.6c2.6-1.1,4.4-3.5,4.6-6.3s-1.1-5.5-3.4-7l-46.4-29.8c-7.8-5-12.4-13.5-12.4-22.8c0-8.4,3.8-16.1,10.4-21.3l57.6-45.3
	l-9.8-9.8h-62.9c-2.6,0-4.7-2.1-4.7-4.7s2.1-4.7,4.7-4.7h64.6c2.6,0,5,0.9,7,2.6l27.2,23.3l9.7,63.2H272c2.6,0,4.7,2.1,4.7,4.7
	S274.5,164.1,271.9,164.1z"/>
<path class="st0" d="M69,241.4c-2.4,2.7-6.3,3.1-9.2,1.1c-1.6-1.1-2.6-2.8-2.8-4.7s0.3-3.8,1.5-5.3l62.3-74.8l-7.2-6l-62.3,74.8
	c-2.9,3.5-4.2,8-3.6,12.5s3,8.6,6.7,11.2c2.9,2,6.2,3,9.5,3c4.5,0,9-1.9,12.2-5.6l54-61.7l-7.1-6.2L69,241.4z"/>
<rect x="37.5" y="93.8" class="st0" width="103.1" height="9.4"/>
<rect x="9.4" y="93.8" class="st0" width="18.8" height="9.4"/>
<rect x="46.9" y="112.5" class="st0" width="70.3" height="9.4"/>
<rect x="18.8" y="112.5" class="st0" width="18.8" height="9.4"/>
<rect x="51.6" y="131.3" class="st0" width="60.9" height="9.4"/>
<rect x="28.1" y="131.3" class="st0" width="14.1" height="9.4"/>
<rect x="28.1" y="75" class="st0" width="79.7" height="9.4"/>
<rect y="75" class="st0" width="18.8" height="9.4"/>
<rect x="9.4" y="84.4" class="st1" width="98.4" height="9.4"/>
<rect x="18.8" y="103.1" class="st1" width="121.9" height="9.4"/>
<rect x="28.1" y="121.9" class="st1" width="89.1" height="9.4"/>
<rect x="37.5" y="140.6" class="st1" width="75" height="9.4"/>
</svg>
