<?xml version="1.0" encoding="utf-8"?>
<!-- Generator: Adobe Illustrator 20.1.0, SVG Export Plug-In . SVG Version: 6.00 Build 0)  -->
<svg version="1.1" id="Capa_1" xmlns="http://www.w3.org/2000/svg" xmlns:xlink="http://www.w3.org/1999/xlink" x="0px" y="0px"
	 viewBox="0 0 300 400" style="enable-background:new 0 0 300 400;" xml:space="preserve">
<style type="text/css">
	.st0{fill:#FF8A18;}
	.st1{fill:#333333;}
</style>
<title>сертификат</title>
<circle class="st0" cx="225.1" cy="300.1" r="37.6"/>
<path class="st1" d="M225,275c-3.5,0-6.2,2.8-6.2,6.2s2.8,6.2,6.2,6.2c6.9,0,12.5,5.6,12.5,12.5c0,3.5,2.8,6.2,6.2,6.2
	s6.2-2.8,6.2-6.2C250,286.2,238.8,275,225,275L225,275z"/>
<path class="st1" d="M281.2,0H18.8C8.4,0,0,8.4,0,18.7v337.5C0,366.6,8.4,375,18.8,375h137.6c0.3,2.7,2.4,4.8,5.1,5.3l16.2,2.9
	l14.3,14.8c2.4,2.5,6.4,2.6,8.8,0.2c0.4-0.4,0.8-0.9,1.1-1.4l12.5-21.8h21.2l12.4,21.8c1,1.7,2.7,2.9,4.6,3.1c0.3,0,0.5,0,0.8,0
	c1.7,0,3.3-0.7,4.5-1.9l14.3-14.8l16.2-2.9c3.4-0.6,5.7-3.9,5-7.3c-0.1-0.7-0.4-1.3-0.7-2c4.6-3.5,7.3-9,7.3-14.8V18.7
	C300,8.4,291.6,0,281.2,0z M12.5,356.2V18.7c0-3.4,2.8-6.2,6.2-6.2h262.5c3.4,0,6.2,2.8,6.2,6.2v337.5c0,1.3-0.4,2.6-1.2,3.7
	l-19.1-33.1c14.8-23.3,7.9-54.2-15.4-69c-23.3-14.8-54.2-7.9-69,15.4c-10.4,16.4-10.4,37.3,0,53.7L162,362.5H18.8
	C15.3,362.5,12.5,359.7,12.5,356.2z M225,337.5c-20.7,0-37.5-16.8-37.5-37.5s16.8-37.5,37.5-37.5s37.5,16.8,37.5,37.5l0,0
	C262.5,320.7,245.7,337.5,225,337.5z M195.1,383.4l-9.9-10.3c-0.9-0.9-2.1-1.6-3.4-1.8l-9.4-1.7l19-32.6c6.6,6,14.7,10.2,23.5,12
	L195.1,383.4z M221.5,362.5l3.5-6.1l3.5,6.1H221.5z M267.9,371.3c-1.3,0.2-2.5,0.9-3.4,1.8l-9.9,10.3L235.1,349
	c8.8-1.8,16.9-6,23.5-12l18.8,32.6L267.9,371.3z"/>
<path class="st1" d="M200,93.7c3.5,0,6.2-2.8,6.2-6.2s-2.8-6.2-6.2-6.2H100c-3.5,0-6.2,2.8-6.2,6.2s2.8,6.2,6.2,6.2H200z"/>
<path class="st1" d="M231.2,112.5H68.8c-3.5,0-6.2,2.8-6.2,6.2s2.8,6.2,6.2,6.2h162.5c3.5,0,6.2-2.8,6.2-6.2
	S234.7,112.5,231.2,112.5z"/>
<path class="st1" d="M87.5,175h6.2c3.5,0,6.2-2.8,6.2-6.2s-2.8-6.2-6.2-6.2h-6.2c-3.5,0-6.2,2.8-6.2,6.2S84,175,87.5,175z"/>
<path class="st1" d="M87.5,206.2h6.2c3.5,0,6.2-2.8,6.2-6.2s-2.8-6.2-6.2-6.2h-6.2c-3.5,0-6.2,2.8-6.2,6.2S84,206.2,87.5,206.2z"/>
<path class="st1" d="M87.5,237.5h6.2c3.5,0,6.2-2.8,6.2-6.2s-2.8-6.2-6.2-6.2h-6.2c-3.5,0-6.2,2.8-6.2,6.2S84,237.5,87.5,237.5z"/>
<path class="st1" d="M212.5,162.5h-93.8c-3.5,0-6.2,2.8-6.2,6.2s2.8,6.2,6.2,6.2h93.8c3.5,0,6.2-2.8,6.2-6.2S216,162.5,212.5,162.5z
	"/>
<path class="st1" d="M212.5,193.7h-93.8c-3.5,0-6.2,2.8-6.2,6.2s2.8,6.2,6.2,6.2h93.8c3.5,0,6.2-2.8,6.2-6.2S216,193.7,212.5,193.7z
	"/>
<path class="st1" d="M212.5,225h-93.8c-3.5,0-6.2,2.8-6.2,6.2s2.8,6.2,6.2,6.2h93.8c3.5,0,6.2-2.8,6.2-6.2S216,225,212.5,225z"/>
<path class="st1" d="M62.5,293.8c0,3.5,2.8,6.2,6.2,6.2H125c3.5,0,6.2-2.8,6.2-6.2s-2.8-6.2-6.2-6.2H68.8
	C65.3,287.5,62.5,290.3,62.5,293.8z"/>
<path class="st1" d="M150,337.5H61.9c-2.5-12.3-12.1-21.8-24.4-24.4V61.9c12.3-2.5,21.8-12.1,24.4-24.4h176.3
	c2.5,12.3,12.1,21.8,24.4,24.4V250c0,3.5,2.8,6.3,6.2,6.3s6.2-2.8,6.2-6.3V56.2c0-3.5-2.8-6.2-6.2-6.2c-10.4,0-18.7-8.4-18.8-18.8
	c0-3.5-2.8-6.2-6.2-6.2H56.2c-3.5,0-6.2,2.8-6.2,6.2C50,41.6,41.6,50,31.2,50c-3.5,0-6.2,2.8-6.2,6.2v262.5c0,3.5,2.8,6.2,6.2,6.2
	l0,0c10.4,0,18.7,8.4,18.8,18.8c0,3.5,2.8,6.2,6.2,6.2l0,0H150c3.5,0,6.2-2.8,6.2-6.2S153.5,337.5,150,337.5z"/>
<path class="st0" d="M195.1,383.4l19.7-34.4c-8.7-2-16.7-6.1-23.5-12l-19,32.6l12.8,3.5L195.1,383.4z"/>
<path class="st0" d="M254.7,383.4L235,349c8.7-2,16.7-6.1,23.5-12l19,32.6l-12.8,3.5L254.7,383.4z"/>
</svg>
