<?xml version="1.0" encoding="utf-8"?>
<!-- Generator: Adobe Illustrator 20.1.0, SVG Export Plug-In . SVG Version: 6.00 Build 0)  -->
<svg version="1.1" id="Capa_1" xmlns="http://www.w3.org/2000/svg" xmlns:xlink="http://www.w3.org/1999/xlink" x="0px" y="0px"
	 viewBox="0 0 512 512" style="enable-background:new 0 0 512 512;" xml:space="preserve">
<style type="text/css">
	.st0{fill:#FF8A18;stroke:#000000;stroke-miterlimit:10;}
	.st1{fill:#333333;}
</style>
<path class="st0" d="M457.5,192.3c0,0,21-7.7,31.3,4.7c10.3,12.4,8.7,22,8.7,22l-13.5,16.4l-54.9,17.3l-21.1-63.8l14.8-16l19.4-0.5
	L457.5,192.3z"/>
<path class="st0" d="M393,43.6c0,0,15.7-34,42.6-31.5S472,27.8,472,27.8l3.4,35.3L431,148.6L330.5,98.1L329,61.7l22.5-23.6L393,43.6
	z"/>
<g>
	<path class="st1" d="M245.9,423.9c-75.6,0-140.5-51.3-158-124.7c-1.8-7.5,2.9-15.1,10.4-16.9c7.5-1.8,15.1,2.9,16.9,10.4
		c14.5,60.8,68.2,103.2,130.7,103.2c63.6,0,118.9-45.1,131.6-107.3c1.6-7.6,9-12.4,16.5-10.9c7.6,1.5,12.5,9,10.9,16.5
		C389.5,369.4,322.7,423.9,245.9,423.9z M227.6,221.2c0-23.2-18.9-42.1-42.1-42.1s-42.1,18.9-42.1,42.1c0,7.7,6.3,14,14,14
		s14-6.3,14-14c0-7.7,6.3-14.1,14.1-14.1c7.8,0,14.1,6.3,14.1,14.1c0,7.7,6.3,14,14,14C221.3,235.2,227.6,228.9,227.6,221.2z
		 M349.2,221.2c0-23.2-18.9-42.1-42.1-42.1c-23.2,0-42.1,18.9-42.1,42.1c0,7.7,6.3,14,14,14c7.7,0,14-6.3,14-14
		c0-7.7,6.3-14.1,14.1-14.1c7.8,0,14.1,6.3,14.1,14.1c0,7.7,6.3,14,14,14S349.2,228.9,349.2,221.2z M437.5,268.8l52.1-25.2
		c7.9-3.9,13.9-10.6,16.8-18.9c2.9-8.3,2.3-17.3-1.5-25.2c-5.6-11.4-16.9-18.5-29.7-18.5c-4.7,0-9.2,1-13.4,2.9
		c-5.7-10.7-17-17.5-29.2-17.5c-5,0-9.9,1.1-14.5,3.3c-16.4,8-23.2,27.8-15.2,44.2l24,49l4.3,8.6L437.5,268.8z M445.4,192.9
		l7.6,15.7l15.7-7.7c7-3.4,15.8-0.3,19.2,6.6c1.7,3.4,1.9,7.3,0.7,11c-1.3,3.6-3.8,6.6-7.3,8.2l-41.5,20.3l-20.3-41.5
		c-3.5-7.1-0.5-15.7,6.6-19.2c2-1,4.1-1.5,6.3-1.5C438,184.9,443,188,445.4,192.9z M442.6,157l39.8-87.2c5.4-12,5.9-25.4,1.3-37.8
		C479,19.6,469.8,9.8,457.8,4.4C451.3,1.5,444.5,0,437.4,0c-19.3,0-37,11.4-44.9,29l-1.8,4.1l-4-1.8c-6.5-2.9-13.3-4.4-20.4-4.4
		c-19.4,0-37,11.4-45,29c-5.5,12-5.9,25.4-1.3,37.8c4.6,12.3,13.8,22.1,25.8,27.6l85.2,38.7l8.1,2.7L442.6,157z M378.9,48.2l21,9.5
		l9.6-21.1c4.9-11,15.9-18,27.9-18c4.4,0,8.6,0.9,12.7,2.8c7.5,3.4,13.2,9.5,16.1,17.1c2.9,7.7,2.6,16-0.8,23.5l-34.8,77l-77-34.9
		c-7.5-3.4-13.2-9.5-16.1-17.1c-2.9-7.7-2.6-16,0.8-23.5c5-11,15.9-18,28-18C370.6,45.5,374.9,46.4,378.9,48.2z M475.4,190.3
		c-7.5-21.5-17.9-41.7-30.8-59.9l-9.1,20c9,14.2,16.4,29.5,22,45.6l7-3.4C468.2,190.9,471.8,190.2,475.4,190.3z M485.5,235.2
		l-16.9,8.2c1,8.6,1.6,17.3,1.6,26.1c0,123.4-100.4,223.8-223.8,223.8C123,493.3,22.6,393,22.6,269.6
		C22.6,146.2,123,45.8,246.3,45.8c29.2,0,57.1,5.7,82.7,15.9c0.3-0.7,0.4-1.4,0.7-2.1c2.5-5.4,6.1-10,10.3-13.7
		c-28.8-12.1-60.5-18.9-93.7-18.9C112.7,27.1,3.9,135.9,3.9,269.5S112.6,512,246.3,512c133.7,0,242.5-108.8,242.5-242.5
		c0-11.8-0.9-23.5-2.5-34.9C486,234.8,485.7,235,485.5,235.2z"/>
</g>
</svg>
