<?xml version="1.0" encoding="utf-8"?>
<!-- Generator: Adobe Illustrator 20.1.0, SVG Export Plug-In . SVG Version: 6.00 Build 0)  -->
<svg version="1.1" id="Capa_1" xmlns="http://www.w3.org/2000/svg" xmlns:xlink="http://www.w3.org/1999/xlink" x="0px" y="0px"
	 viewBox="0 0 512 512" style="enable-background:new 0 0 512 512;" xml:space="preserve">
<style type="text/css">
	.st0{fill:#F7F7F7;}
	.st1{fill:#FF8A18;stroke:#000000;stroke-miterlimit:10;}
	.st2{fill:#333333;}
</style>
<g>
	<polygon class="st0" points="97.5,150.3 105.5,181.9 266.4,332.2 322.6,358.5 474.9,358.5 459.7,374.9 413,401.3 286.2,396.7 
		175,320.9 144.2,297.7 137.7,255.5 90.1,237.1 65.9,183.5 	"/>
	<path class="st0" d="M205.4,67.9c0,0-6.9,89.8,78,101s70.7,23,70.7,23l27.7,74.9l50.3,19.1l-14.1,20.8L397,324.2
		c0,0-29.6-1.4-31.4-1.4c-1.7,0-39.1,1.4-39.1,1.4L281,279.6l-36.3-10.9l-36.2,11.4L104.7,178.5l-8.4-32.8L205.4,67.9z"/>
	<polygon class="st1" points="213.9,282.7 267.4,268.1 331.8,320.7 406.9,325.5 441.9,286.2 480,303.5 487.2,337.1 480,357.9 
		442.3,357.9 305,355.3 	"/>
	<path class="st1" d="M146.2,115.5c0,0,34.6,50-5.7,95.6c-7.3-9-17.5-14.4-24.8-23.4c-7.8-9.6-12.7-22.9-20.4-32.5
		C112.2,142,129.2,128.7,146.2,115.5z"/>
	<path class="st2" d="M440.6,279.9c-25-5.6-37.6-11.8-46-14.5c-1.3-0.4-2.4-1.4-2.9-2.7l-6.1-12.7c0-0.1,0-0.2,0.2-0.2l13.6,0
		c4.1,0,7.2-3.3,6.5-7.4c-0.7-4.2-4.7-6.4-9.5-6.4h-16.2c-0.1,0-0.1-0.1-0.1-0.1l-5.8-20.6c0-0.1,0-0.2,0.2-0.2l6.7,0
		c4.6,0,8.1-3.8,7.4-8.3c-0.7-4.3-4.7-5.5-9.5-5.5h-12c-0.1,0-0.1,0-0.1-0.1L363,192c-0.9-2.2-1.9-4.4-3.2-6.4
		c-3-4.6-6.6-8.8-11.8-12.9c0,0,0,0,0-0.1c-0.7-6.1,0.2-34.5,32.1-44.3c4.2-1.3,6.5-5.9,4.9-10c-1.9-4.7-7.3-5.6-12.2-3.8
		c-31.1,11.2-37.4,36.7-38.2,53.8c0,0.1-0.1,0.2-0.2,0.1l-43-4c-22.3-2.2-44.8-13.7-58.6-30.7c-13.1-16.1-22-34.3-19.8-54.7
		c0.5-4.8,1.1-9.4-2.1-12.9c-2.4-2.3-4.4-3.7-8.3-4c-4.2-0.3-8.2,1.5-11.4,4.4L72.6,160.3c0,0,0,0,0,0c-16.9,15-18,33-3.7,50.4
		l24.9,30.5c6.3,7.7,15.3,13.1,25.2,14.2c8.4,0.9,19.2,10,18.5,17.9c-1.3,14.6,2.6,27.7,14.2,36.7l86.4,67.7
		c18.8,15.8,39,23.5,63.8,25.1l0.3,0l107.9,0c37.8-5.3,53.1-13.7,73.3-44.5c0,0,4.7-8,6.5-19.3c2.7-16.1-1.8-32.6-14.2-43.3
		C460.6,282.6,440.6,279.9,440.6,279.9z M478.6,324.3C478.6,324.3,478.6,324.3,478.6,324.3c-0.3,14.3-12.5,25.8-27.5,25.8H349
		c-35.3,0-69.9-13.9-94.8-38l-31.6-29.8c-0.1-0.1-0.1-0.2,0-0.3c17.9-9.2,42.7-8.7,58.2,4.8l40.6,36.1c5,4.3,11.4,6.7,18,6.7
		l49.3,0.9c24.7,0,43.9-15.2,48.9-38.1c0-0.1,0.1-0.1,0.2-0.1C463.1,296.7,476.6,306.3,478.6,324.3z M199.7,77
		c0.1-0.1,0.3,0,0.3,0.1c-1.2,23.5,8.3,44.5,23.4,63.2c17.1,21,38.6,34.1,66,36.8l45.5,4.3c6.6,0.6,15,10.6,17.3,16.5l1.2,3.1
		c0,0.1,0,0.2-0.1,0.2l-20.6,0c-3.7,0-6.7,3-6.4,6.7c0.4,4.7,4.6,7.1,9.6,7.1h22.9c0.1,0,0.1,0.1,0.1,0.1l5.8,20.6
		c0,0.1,0,0.2-0.2,0.2l-13.3,0c-4.6,0-8.1,3.8-7.4,8.3c0.7,4.3,4.7,5.5,9.5,5.5h17.7c0.1,0,0.1,0.1,0.1,0.1l8,18.3
		c1.1,2.8,2.9,5.3,5.2,7.1l0,0c1.5,1.2,3.1,2.1,4.9,2.8c5.4,2,16.2,7.1,35.5,10.8c0.1,0,0.2,0.1,0.1,0.2
		c-3.4,13.8-20.9,28.6-36.2,28.6l-52.3-0.9c0,0-0.1,0-0.1,0l-45.6-39.1c-25.7-19.1-53.2-20.3-80.5-4.9c-0.1,0-0.1,0-0.2,0
		l-61.9-60.1c-0.1-0.1-0.1-0.2,0-0.2c12.1-13,17.8-28.4,18.4-46.2c0.7-19.7-3.6-35.5-17.2-49.9c-0.1-0.1-0.1-0.2,0-0.2L199.7,77z
		 M117.9,139.2l20.3-15.8l0.2,0.2c11,10.8,15.9,26.9,15.4,42c-0.4,12.9-6.3,29.2-15,38.7c-0.1,0.1-0.2,0.1-0.2,0l-24.2-24.3
		c-4.8-4.6-8.4-13.3-8.6-19.7C105.3,152.3,111,144.4,117.9,139.2z M411.1,389.1l-0.3,0l-107.9,0.1c0,0,0,0,0,0
		c-20.7-1.4-40.6-9.4-56.2-22.5l-88-68.9c-6.1-4.8-9.4-12.3-8.7-20c1.6-18-11.6-34.2-30-36.7c-6-0.8-11.4-3.9-15.3-8.6l-24.6-30.1
		c-7.8-9.6-6.7-23,2.6-31.3l12.1-9.8c0.1-0.1,0.2,0,0.3,0.1c1.4,9.6,3.2,18.4,10.3,25.3l139.2,135.6c28.9,28,63.6,42.6,104.5,42.6
		l102.1,0.3c3.3,0,11.6-1.2,14.7-1.8c0.1,0,0.2,0.1,0.1,0.3C454.3,376.7,430.8,390.3,411.1,389.1z"/>
</g>
<g>
	<polygon class="st0" points="53,185.8 60.9,217.5 221.8,367.8 278.1,394.1 430.4,394.1 415.2,410.4 368.5,436.8 241.7,432.2 
		130.5,356.4 99.6,333.2 93.2,291.1 45.5,272.6 21.3,219.1 	"/>
	<path class="st0" d="M160.8,103.4c0,0-6.9,89.8,78,101c84.9,11.2,70.7,23,70.7,23l27.7,74.9l50.3,19.1l-14.1,20.8l-20.9,17.6
		c0,0-29.6-1.4-31.4-1.4s-39.1,1.4-39.1,1.4l-45.5-44.6l-36.3-10.9L164,315.6L60.2,214.1l-8.4-32.8L160.8,103.4z"/>
	<polygon class="st1" points="169.3,318.3 222.9,303.6 287.2,356.3 362.4,361 397.4,321.7 435.5,339 442.7,372.7 435.5,393.4 
		397.8,393.4 260.5,390.8 	"/>
	<path class="st1" d="M101.7,151c0,0,34.6,50-5.7,95.6c-7.3-9-17.5-14.4-24.8-23.4c-7.8-9.6-12.7-22.9-20.4-32.5
		C67.7,177.5,84.7,164.3,101.7,151z"/>
	<path class="st2" d="M396.1,315.5c-25-5.6-37.6-11.8-46-14.5c-1.3-0.4-2.4-1.4-2.9-2.7l-6.1-12.7c0-0.1,0-0.2,0.2-0.2l13.6,0
		c4.1,0,7.2-3.3,6.5-7.4c-0.7-4.2-4.7-6.4-9.5-6.4h-16.2c-0.1,0-0.1-0.1-0.1-0.1l-5.8-20.6c0-0.1,0-0.2,0.2-0.2l6.7,0
		c4.6,0,8.1-3.8,7.4-8.3c-0.7-4.3-4.7-5.5-9.5-5.5h-12c-0.1,0-0.1,0-0.1-0.1l-3.7-9.2c-0.9-2.2-1.9-4.4-3.2-6.4
		c-3-4.6-6.6-8.8-11.8-12.9c0,0,0,0,0-0.1c-0.7-6.1,0.2-34.5,32.1-44.3c4.2-1.3,6.5-5.9,4.9-10c-1.9-4.7-7.3-5.6-12.2-3.8
		c-31.1,11.2-37.4,36.7-38.2,53.8c0,0.1-0.1,0.2-0.2,0.1l-43-4c-22.3-2.2-44.8-13.7-58.6-30.7c-13.1-16.1-22-34.3-19.8-54.7
		c0.5-4.8,1.1-9.4-2.1-12.9c-2.4-2.3-4.4-3.7-8.3-4c-4.2-0.3-8.2,1.5-11.4,4.4L28.1,195.9c0,0,0,0,0,0c-16.9,15-18,33-3.7,50.4
		l24.9,30.5c6.3,7.7,15.3,13.1,25.2,14.2c8.4,0.9,19.2,10,18.5,17.9c-1.3,14.6,2.6,27.7,14.2,36.7l86.4,67.7
		c18.8,15.8,39,23.5,63.8,25.1l0.3,0l107.9,0c37.8-5.3,53.1-13.7,73.3-44.5c0,0,4.7-8,6.5-19.3c2.7-16.1-1.8-32.6-14.2-43.3
		C416,318.2,396.1,315.5,396.1,315.5z M434,359.9C434,359.9,434,359.9,434,359.9c-0.3,14.3-12.5,25.8-27.5,25.8H304.5
		c-35.3,0-69.9-13.9-94.8-38L178,317.8c-0.1-0.1-0.1-0.2,0-0.3c17.9-9.2,42.7-8.7,58.2,4.8l40.6,36.1c5,4.3,11.4,6.7,18,6.7
		l49.3,0.9c24.7,0,43.9-15.2,48.9-38.1c0-0.1,0.1-0.1,0.2-0.1C418.6,332.3,432,341.9,434,359.9z M155.2,112.6c0.1-0.1,0.3,0,0.3,0.1
		c-1.2,23.5,8.3,44.5,23.4,63.2c17.1,21,38.6,34.1,66,36.8l45.5,4.3c6.6,0.6,15,10.6,17.3,16.5l1.2,3.1c0,0.1,0,0.2-0.1,0.2l-20.6,0
		c-3.7,0-6.7,3-6.4,6.7c0.4,4.7,4.6,7.1,9.6,7.1h22.9c0.1,0,0.1,0.1,0.1,0.1l5.8,20.6c0,0.1,0,0.2-0.2,0.2l-13.3,0
		c-4.6,0-8.1,3.8-7.4,8.3c0.7,4.3,4.7,5.5,9.5,5.5h17.7c0.1,0,0.1,0.1,0.1,0.1l8,18.3c1.1,2.8,2.9,5.3,5.2,7.1l0,0
		c1.5,1.2,3.1,2.1,4.9,2.8c5.4,2,16.2,7.1,35.5,10.8c0.1,0,0.2,0.1,0.1,0.2c-3.4,13.8-20.9,28.6-36.2,28.6l-52.3-0.9
		c0,0-0.1,0-0.1,0l-45.6-39.1c-25.7-19.1-53.2-20.3-80.5-4.9c-0.1,0-0.1,0-0.2,0l-61.9-60.1c-0.1-0.1-0.1-0.2,0-0.2
		c12.1-13,17.8-28.4,18.4-46.2c0.7-19.7-3.6-35.5-17.2-49.9c-0.1-0.1-0.1-0.2,0-0.2L155.2,112.6z M73.4,174.7l20.3-15.8l0.2,0.2
		c11,10.8,15.9,26.9,15.4,42c-0.4,12.9-6.3,29.2-15,38.7c-0.1,0.1-0.2,0.1-0.2,0l-24.2-24.3c-4.8-4.6-8.4-13.3-8.6-19.7
		C60.8,187.8,66.5,179.9,73.4,174.7z M366.6,424.6l-0.3,0l-107.9,0.1c0,0,0,0,0,0c-20.7-1.4-40.6-9.4-56.2-22.5l-88-68.9
		c-6.1-4.8-9.4-12.3-8.7-20c1.6-18-11.6-34.2-30-36.7c-6-0.8-11.4-3.9-15.3-8.6l-24.6-30.1c-7.8-9.6-6.7-23,2.6-31.3l12.1-9.8
		c0.1-0.1,0.2,0,0.3,0.1c1.4,9.6,3.2,18.4,10.3,25.3L200,357.8c28.9,28,63.6,42.6,104.5,42.6l102.1,0.3c3.3,0,11.6-1.2,14.7-1.8
		c0.1,0,0.2,0.1,0.1,0.3C409.8,412.3,386.2,425.9,366.6,424.6z"/>
</g>
</svg>
