<?xml version="1.0" encoding="utf-8"?>
<!-- Generator: Adobe Illustrator 20.1.0, SVG Export Plug-In . SVG Version: 6.00 Build 0)  -->
<svg version="1.1" id="Layer_1" xmlns="http://www.w3.org/2000/svg" xmlns:xlink="http://www.w3.org/1999/xlink" x="0px" y="0px"
	 viewBox="0 0 512 512" style="enable-background:new 0 0 512 512;" xml:space="preserve">
<style type="text/css">
	.st0{fill:#FF8A18;}
	.st1{fill:#333333;stroke:#232323;stroke-width:0.25;stroke-miterlimit:10;}
	.st2{fill:#333333;}
</style>
<path class="st0" d="M199.4,144.9l49.8-34.7c0.9-0.7,2.2-0.9,3.4-0.4l82.9,31.1c0.9,0.4,1.6,1.1,2,2l23.4,56.3
	c0.5,1.1,0.4,2.5-0.4,3.4L321,264.5c-0.5,0.7-14.6,14.6-14.4,15.6l8.1,48c0.4,2.5,3.1,3.8,5.2,2.5l94.2-42.3
	c1.3-0.7-11.3-44.1-11.5-45.5L390,98.9c-0.2-0.5-0.4-1.1-0.7-1.6L331.2,21c-0.5-0.7-1.3-1.3-2.2-1.4l-87.9-16
	c-0.7-0.2-1.6,0-2.3,0.4l-66.2,33.6c-0.7,0.4-1.3,0.9-1.6,1.6l-37.4,75.5c-0.2,0.5-0.4,0.9-0.4,1.4l-4.1,91c0,0.4,0,0.7-0.2,1.1
	l-22.8,66.9c-0.5,1.6,0.2,3.4,1.6,4.3l59.7,33.6c0.4,0.2,0.7,0.4,1.3,0.4l45.9,7.6c2.2,0.4,4.1-1.3,4.1-3.4l2.7-43
	c0-1.1-8.1,1.1-8.8,0.4l-50.4-65.5c-0.7-0.7-1.1-2-0.9-3.1l4.9-32c0.2-1.3,1.1-2.5,2.3-2.9h0.2c0.9-0.4-4.1-0.4-3.6-1.1
	c5.4-10.4,25.7-17.3,34.4-25.4C199.2,145.1,199.2,144.9,199.4,144.9z"/>
<g>
	<g>
		<path class="st1" d="M397.8,364.5l-59.2-34c36-10.3,67.4-23.6,78.8-31.5c10.8-7.6,7.7-19.6,2.7-31.7
			c-10.6-25.7-19.6-74.6-19.8-128.1c-0.4-74.1-52-132-124.3-138.7c-9-0.9-18-0.9-27,0c-72.5,6.7-124.1,64.6-124.3,138.7
			c-0.2,53.2-7.4,102.3-18,128.1c-5,12.1-0.9,24.1,9.9,31.7c12.6,7.4,38.3,16.4,73.4,29.7l-62.9,37.6c-19.2,9.7-31.3,21.9-31.3,43.5
			v91.9c0,5.4,2.3,10.1,7.7,10.1c7.7,0.2,8.5-5.9,8.5-13.5v-85.1c0.4-13.3,10.3-26.4,21.8-32l51.6-26.6c17.8,30,41.7,50.9,77.2,50.9
			c35.8,0,62.8-22.5,80.8-52.7l55.2,32c10.1,5,14.6,13.5,14.6,24.8v91.9c0,5.4,2.3,10.1,7.7,10.1c7.7,0.2,8.5-5.9,8.5-13.5v-88.7
			C429.3,388.3,417.2,374.2,397.8,364.5z M262.5,389.5c-25.2,0-48.6-18.5-61.9-39.6l6.8-6.1c9-4.5,18.7-22.5,21.6-36l3.6-15.8
			c9.5,2.5,19.4,4,29.7,4c10.3,0,20.1-1.4,29.7-4l3.6,15.8c2.7,13.7,12.4,31.5,21.6,36l6.8,6.1C311.1,371,287.9,389.5,262.5,389.5z
			 M319.7,317.2c-0.7-1.1-1.4-2.3-2-3.4c-0.2-0.4-0.4-0.9-0.5-1.4l-8.8-31.7c17.6-10.1,36.2-28.2,46.4-46.4
			c13.8-33.1,10.8-67.6-14.4-95c-19.8-18.2-50-34.4-106.7-34.4c-3.6,0-3.4-0.4-5.9,2.2l-30.2,28.4c-3.6,3.6-5.4,9.4-1.8,12.8
			c5,4.7,9.9-0.7,14.9-5.8l24.8-23c36,1.1,68.3,5.4,95.5,30.9c19.1,17.4,23.7,53.8,11,76.1c-15.5,27.3-48.2,55.2-79.7,55
			c-55.6-0.2-90.6-49.6-92.6-104.3c-0.2-5-1.8-9.4-6.8-9.2c-7,0.2-8.1,6.1-7.7,13.5c3.1,46.8,26.8,84.9,61.3,104.7l-7.2,27
			c-0.4,1.4-1.6,2.9-2.3,4.1c-46-11.3-72.1-26.4-84-34.9c-0.2-0.2-2.5-4.1-2.2-4.7c11.7-28.1,19.8-80.9,20.1-138.1
			C141.1,79.3,192.7,22.4,251.6,17c7.4-0.7,14.7-0.7,22.1,0c58.8,5.4,110.4,62.2,110.6,122.7c0.2,57.2,12.1,115.6,23.7,143.5
			c0.2,0.5-0.2,0.9-0.4,1.1C395.4,292.6,365.2,307.9,319.7,317.2z"/>
	</g>
</g>
<g>
	<g>
		<path class="st2" d="M161.6,427.3c-7.4,0-8.1,6.1-8.1,13.5v57.7c0,7.4,0.7,13.5,8.1,13.5c7.4,0,8.1-6.1,8.1-13.5v-57.7
			C169.7,433.4,169,427.3,161.6,427.3z"/>
	</g>
</g>
<g>
	<g>
		<path class="st2" d="M363.4,427.3c-7.4,0-8.1,6.1-8.1,13.5v57.7c0,7.4,0.7,13.5,8.1,13.5s8.1-6.1,8.1-13.5v-57.7
			C371.5,433.4,370.8,427.3,363.4,427.3z"/>
	</g>
</g>
</svg>
