<?xml version="1.0" encoding="utf-8"?>
<!-- Generator: Adobe Illustrator 20.1.0, SVG Export Plug-In . SVG Version: 6.00 Build 0)  -->
<svg version="1.1" id="Layer_1" xmlns="http://www.w3.org/2000/svg" xmlns:xlink="http://www.w3.org/1999/xlink" x="0px" y="0px"
	 viewBox="0 0 490.1 490.1" style="enable-background:new 0 0 490.1 490.1;" xml:space="preserve">
<style type="text/css">
	.st0{fill:#333333;}
	.st1{fill:#FF8A18;}
</style>
<path class="st0" d="M428.5,407.7c38.3-43.2,61.6-99.9,61.6-162c0-64.6-25.2-123.4-66.3-167.1v0c0-0.1-0.1-0.1-0.1-0.1
	C380.9,33,320.9,3.9,254.2,1.6l0,0l-4.8-0.1c-1.2,0-2.5-0.1-3.7-0.1s-2.5,0-3.7,0.1l-4.7,0.1l0,0C170.6,3.9,110.6,33,67.8,78.5
	c0,0-0.1,0.1-0.1,0.1c0,0,0,0,0,0C26.6,122.3,1.4,181.1,1.4,245.7c0,62.1,23.3,118.8,61.6,162c0.1,0.1,0.1,0.2,0.1,0.2
	c0.2,0.2,0.4,0.3,0.5,0.5c43,48.1,104.8,79.1,173.7,81.4l0,0l4.7,0.1c1.2,0,2.5,0.1,3.7,0.1s2.5,0,3.7-0.1l4.7-0.1l0,0
	c69-2.4,130.8-33.4,173.8-81.6c0.1-0.1,0.3-0.2,0.4-0.3C428.5,407.9,428.5,407.8,428.5,407.7z M18.4,254.2h101.1
	c1,35.7,7.9,70.4,20.4,103c-24,8.7-46.9,20.3-68.4,34.8C40,354.4,20.3,306.5,18.4,254.2z M76.2,94.2c21,13.6,43.3,24.6,66.6,32.7
	c-14.3,34.6-22.1,71.9-23.2,110.4H18.4C20.4,182.5,41.9,132.5,76.2,94.2z M473.1,237.3H371.9c-1-38.4-8.9-75.7-23.2-110.4
	c23.3-8.2,45.6-19.1,66.6-32.7C449.6,132.5,471,182.5,473.1,237.3z M237.3,127.5c-24.4-0.7-48.3-4.3-71.4-10.8
	c17.1-35,41.2-66.7,71.4-93V127.5z M237.3,144.3v93H136.4c1-36.6,8.7-72.2,22.5-105.1C184.2,139.5,210.5,143.6,237.3,144.3z
	 M254.2,144.3c26.8-0.7,53.1-4.8,78.4-12.1c13.7,32.9,21.4,68.5,22.5,105.1H254.2V144.3z M254.2,127.5V23.6
	c30.2,26.3,54.3,58,71.4,93C302.4,123.1,278.5,126.8,254.2,127.5z M341.9,111.5c-16.2-33.9-38.7-64.8-66.5-91.3
	c49.3,6.5,93.7,28.8,127.9,61.7C383.9,94.2,363.3,104.1,341.9,111.5z M149.6,111.5c-21.5-7.4-42.1-17.3-61.5-29.6
	c34.2-32.9,78.6-55.2,127.9-61.7C188.3,46.7,165.8,77.6,149.6,111.5z M136.4,254.2h100.9v84.6c-27.9,0.7-55.2,5.1-81.4,13
	C144,320.9,137.4,288,136.4,254.2z M237.3,355.6v112.2c-32.3-28.2-57.6-62.4-74.9-100.4C186.6,360.3,211.7,356.3,237.3,355.6z
	 M254.2,467.8V355.6c25.6,0.7,50.7,4.7,74.9,11.8C311.8,405.4,286.5,439.7,254.2,467.8z M254.2,338.8v-84.6h100.9
	c-1,33.9-7.6,66.8-19.5,97.6C309.3,343.8,282,339.5,254.2,338.8z M371.9,254.2h101.1c-1.9,52.3-21.6,100.2-53.1,137.8
	c-21.5-14.5-44.4-26.1-68.4-34.8C364,324.6,371,289.9,371.9,254.2z M83,404.6c19.9-13.2,41.2-23.9,63.3-31.9
	c16.4,36.7,39.9,70.2,69.7,98.6C164.2,464.5,117.8,440.2,83,404.6z M275.4,471.3c29.8-28.3,53.3-61.8,69.7-98.6
	c22.2,8,43.4,18.6,63.3,31.9C373.6,440.2,327.2,464.5,275.4,471.3z"/>
<circle class="st1" cx="129.4" cy="176.1" r="34.5"/>
<circle class="st1" cx="245.1" cy="348" r="25"/>
<circle class="st1" cx="367.3" cy="245.7" r="41.7"/>
</svg>
